SplineFontDB: 3.2
FontName: D-DIN-PRO-Bold
FullName: D-DIN-PRO-Bold
FamilyName: D-DIN-PRO
Weight: Bold
Copyright: Copyright (c) CyberFei. All rights reserved
Version: 1.1.0
ItalicAngle: 0
UnderlinePosition: -150
UnderlineWidth: 50
Ascent: 831
Descent: 169
InvalidEm: 0
sfntRevision: 0x00010000
LayerCount: 2
Layer: 0 0 "Back" 1
Layer: 1 0 "Fore" 0
XUID: [1021 868 -1451673819 29405]
StyleMap: 0x0020
FSType: 4
OS2Version: 3
OS2_WeightWidthSlopeOnly: 0
OS2_UseTypoMetrics: 0
CreationTime: 1462909513
ModificationTime: 1509658855
PfmFamily: 17
TTFWeight: 700
TTFWidth: 5
LineGap: 86
VLineGap: 0
Panose: 2 11 8 4 3 2 2 3 2 4
OS2TypoAscent: 831
OS2TypoAOffset: 0
OS2TypoDescent: -169
OS2TypoDOffset: 0
OS2TypoLinegap: 86
OS2WinAscent: 902
OS2WinAOffset: 0
OS2WinDescent: 184
OS2WinDOffset: 0
HheadAscent: 831
HheadAOffset: 0
HheadDescent: -169
HheadDOffset: 0
OS2SubXSize: 650
OS2SubYSize: 600
OS2SubXOff: 0
OS2SubYOff: 75
OS2SupXSize: 650
OS2SupYSize: 600
OS2SupXOff: 0
OS2SupYOff: 350
OS2StrikeYSize: 50
OS2StrikeYPos: 312
OS2CapHeight: 690
OS2XHeight: 520
OS2Vendor: 'MONO'
OS2CodePages: 20000001.00000000
OS2UnicodeRanges: 8000006f.4000000a.00000000.00000000
Lookup: 1 0 0 "'aalt' Access All Alternates lookup 0" { "'aalt' Access All Alternates lookup 0 subtable"  } ['aalt' ('DFLT' <'dflt' > ) ]
Lookup: 1 0 0 "'sups' Superscript lookup 1" { "'sups' Superscript lookup 1 subtable" ("superior") } ['sups' ('DFLT' <'dflt' > ) ]
Lookup: 4 0 0 "'frac' Diagonal Fractions lookup 2" { "'frac' Diagonal Fractions lookup 2 subtable"  } ['frac' ('DFLT' <'dflt' > ) ]
Lookup: 6 0 0 "'ordn' Ordinals lookup 3" { "'ordn' Ordinals lookup 3 contextual 0"  "'ordn' Ordinals lookup 3 contextual 1"  } ['ordn' ('DFLT' <'dflt' > ) ]
Lookup: 4 0 0 "'dlig' Discretionary Ligatures lookup 4" { "'dlig' Discretionary Ligatures lookup 4 subtable"  } ['dlig' ('DFLT' <'dflt' > ) ]
Lookup: 4 0 1 "'liga' Standard Ligatures lookup 5" { "'liga' Standard Ligatures lookup 5 subtable"  } ['liga' ('DFLT' <'dflt' > ) ]

StartChar: .notdef
Encoding: 65536 -1 0
Width: 600
GlyphClass: 1
Flags: W
LayerCount: 2
Fore
SplineSet
101 690 m 1
 498 690 l 1
 498 0 l 1
 101 0 l 1
 101 690 l 1
464 34 m 1
 464 656 l 1
 135 656 l 1
 135 34 l 1
 464 34 l 1
EndSplineSet
EndChar

StartChar: exclam
Encoding: 33 33 3
Width: 249
GlyphClass: 2
Flags: W
LayerCount: 2
Fore
SplineSet
54 690 m 1
 195 690 l 1
 171 230 l 1
 78 230 l 1
 54 690 l 1
59 130 m 1
 190 130 l 1
 190 0 l 1
 59 0 l 1
 59 130 l 1
EndSplineSet
EndChar

StartChar: quotedbl
Encoding: 34 34 4
Width: 381
GlyphClass: 2
Flags: W
LayerCount: 2
Fore
SplineSet
38 690 m 1
 155 690 l 1
 155 392 l 1
 38 392 l 1
 38 690 l 1
227 690 m 1
 343 690 l 1
 343 392 l 1
 227 392 l 1
 227 690 l 1
EndSplineSet
EndChar

StartChar: numbersign
Encoding: 35 35 5
Width: 539
GlyphClass: 2
Flags: W
LayerCount: 2
Fore
SplineSet
431 406 m 1
 417 296 l 1
 496 296 l 1
 496 204 l 1
 405 204 l 1
 378 0 l 1
 274 0 l 1
 301 204 l 1
 195 204 l 1
 168 0 l 1
 65 0 l 1
 92 204 l 1
 18 204 l 1
 18 296 l 1
 104 296 l 1
 119 406 l 1
 43 406 l 1
 43 498 l 1
 131 498 l 1
 156 690 l 1
 259 690 l 1
 234 498 l 1
 340 498 l 1
 365 690 l 1
 468 690 l 1
 443 498 l 1
 521 498 l 1
 521 406 l 1
 431 406 l 1
328 406 m 1
 222 406 l 1
 207 296 l 1
 313 296 l 1
 328 406 l 1
EndSplineSet
EndChar

StartChar: dollar
Encoding: 36 36 6
Width: 502
GlyphClass: 2
Flags: W
LayerCount: 2
Fore
SplineSet
411 96 m 0
 383.666992188 64 345.665039062 43.333984375 296.998046875 34.0009765625 c 1
 296.998046875 -59.9990234375 l 1
 193.998046875 -59.9990234375 l 1
 193.998046875 32.0009765625 l 1
 143.998046875 39.333984375 104.665039062 59.833984375 75.998046875 93.5009765625 c 0
 47.3310546875 127.16796875 31.6640625 171.66796875 28.9970703125 227.000976562 c 1
 143.997070312 227.000976562 l 1
 147.997070312 193.66796875 157.830078125 170.16796875 173.497070312 156.500976562 c 0
 189.1640625 142.833984375 212.6640625 136.000976562 243.997070312 136.000976562 c 0
 301.330078125 136.000976562 329.997070312 162.000976562 329.997070312 214.000976562 c 0
 329.997070312 237.333984375 324.330078125 255.166992188 312.997070312 267.5 c 0
 301.6640625 279.833007812 283.331054688 288.333007812 257.998046875 293 c 2
 208.998046875 302 l 2
 152.998046875 312 111.498046875 331.166992188 84.498046875 359.5 c 0
 57.498046875 387.833007812 43.998046875 427 43.998046875 477 c 0
 43.998046875 526.333007812 57.3310546875 567 83.998046875 599 c 0
 110.665039062 631 147.33203125 651.666992188 193.999023438 661 c 1
 193.999023438 740 l 1
 296.999023438 740 l 1
 296.999023438 660 l 1
 340.333007812 650.666992188 374.666015625 630.5 399.999023438 599.5 c 0
 425.333007812 568.5 439.666015625 528.333007812 442.999023438 479 c 1
 324.999023438 479 l 1
 322.33203125 507.666992188 314.33203125 528.5 300.999023438 541.5 c 0
 287.666015625 554.5 267.666015625 561 240.999023438 561 c 0
 216.33203125 561 197.33203125 554.5 183.999023438 541.5 c 0
 170.666015625 528.5 163.999023438 510 163.999023438 486 c 0
 163.999023438 464.666992188 170.33203125 448 182.999023438 436 c 0
 195.666015625 424 216.333007812 415.333007812 245 410 c 2
 302 399 l 2
 352 389.666992188 389.5 370.666992188 414.5 342 c 0
 439.5 313.333007812 452 274 452 224 c 0
 452 170.666992188 438.333007812 128 411 96 c 0
131.998046875 690.000976562 m 1024
EndSplineSet
EndChar

StartChar: percent
Encoding: 37 37 7
Width: 904
GlyphClass: 2
Flags: W
LayerCount: 2
Fore
SplineSet
72.5 301.5 m 0
 50.8330078125 326.5 40.0009765625 363.666992188 40.0009765625 413 c 2
 40.0009765625 555 l 2
 40.0009765625 601.66796875 51.5009765625 636.834960938 74.5009765625 660.5 c 0
 97.5009765625 684.166992188 131.000976562 696 175.000976562 696 c 0
 221.000976562 696 254.833984375 684.333007812 276.500976562 661 c 0
 298.16796875 637.665039062 309.000976562 602.33203125 309.000976562 555 c 2
 309.000976562 413 l 2
 309.000976562 363.666992188 298.16796875 326.5 276.500976562 301.5 c 0
 254.833984375 276.5 221.000976562 264 175.000976562 264 c 0
 128.333984375 264 94.1669921875 276.5 72.5 301.5 c 0
595.000976562 695 m 1
 694.000976562 695 l 1
 308.000976562 0 l 1
 210.000976562 0 l 1
 595.000976562 695 l 1
201.000976562 366 m 0
 204.333984375 374.666992188 206.000976562 392.000976562 206.000976562 418.000976562 c 2
 206.000976562 542.000976562 l 2
 206.000976562 567.333984375 204.16796875 584.666992188 200.500976562 594 c 0
 196.833984375 603.333007812 188.333984375 608 175.000976562 608 c 0
 161.66796875 608 153.000976562 603.333007812 149.000976562 594 c 0
 145.000976562 584.666015625 143.000976562 567.333007812 143.000976562 542 c 2
 143.000976562 418 l 2
 143.000976562 393.333007812 144.833984375 376.333007812 148.500976562 367 c 0
 152.16796875 357.666992188 161.000976562 353 175.000976562 353 c 0
 189.000976562 353 197.66796875 357.333007812 201.000976562 366 c 0
626.500976562 31.5009765625 m 0
 604.833984375 56.5009765625 594.001953125 93.666015625 594.001953125 142.999023438 c 2
 594.001953125 284.999023438 l 2
 594.001953125 331.666015625 605.501953125 366.833007812 628.501953125 390.5 c 0
 651.501953125 414.166992188 685.001953125 426 729.001953125 426 c 0
 775.001953125 426 808.834960938 414.333007812 830.501953125 391 c 0
 852.168945312 367.666992188 863.001953125 332.333984375 863.001953125 285.000976562 c 2
 863.001953125 143.000976562 l 2
 863.001953125 93.66796875 852.168945312 56.5009765625 830.501953125 31.5009765625 c 0
 808.834960938 6.5009765625 775.001953125 -5.9990234375 729.001953125 -5.9990234375 c 0
 682.334960938 -5.9990234375 648.16796875 6.5009765625 626.500976562 31.5009765625 c 0
755.001953125 95.9990234375 m 0
 758.334960938 104.666015625 760.001953125 121.998046875 760.001953125 147.998046875 c 2
 760.001953125 271.998046875 l 2
 760.001953125 297.33203125 758.168945312 314.665039062 754.501953125 323.998046875 c 0
 750.834960938 333.331054688 742.334960938 337.998046875 729.001953125 337.998046875 c 0
 715.668945312 337.998046875 707.001953125 333.331054688 703.001953125 323.998046875 c 0
 699.001953125 314.665039062 697.001953125 297.33203125 697.001953125 271.999023438 c 2
 697.001953125 147.999023438 l 2
 697.001953125 123.33203125 698.834960938 106.33203125 702.501953125 96.9990234375 c 0
 706.168945312 87.666015625 715.001953125 82.9990234375 729.001953125 82.9990234375 c 0
 743.001953125 82.9990234375 751.668945312 87.33203125 755.001953125 95.9990234375 c 0
EndSplineSet
EndChar

StartChar: ampersand
Encoding: 38 38 8
Width: 598
GlyphClass: 2
Flags: W
LayerCount: 2
Fore
SplineSet
530 107 m 2
 551.997070312 106.999023438 l 1
 551.997070312 -0.0009765625 l 1
 503.997070312 -0.0009765625 l 2
 480.6640625 -0.0009765625 461.997070312 4.33203125 447.997070312 12.9990234375 c 0
 433.997070312 21.666015625 417.997070312 37.9990234375 399.997070312 61.9990234375 c 2
 395.997070312 66.9990234375 l 1
 371.330078125 38.9990234375 345.663085938 18.9990234375 318.997070312 6.9990234375 c 0
 292.330078125 -5.0009765625 261.997070312 -11.0009765625 227.997070312 -11.0009765625 c 0
 169.997070312 -11.0009765625 124.997070312 5.666015625 92.9970703125 38.9990234375 c 0
 60.9970703125 72.33203125 44.9970703125 116.33203125 44.9970703125 170.999023438 c 0
 44.9970703125 208.999023438 54.330078125 244.33203125 72.9970703125 276.999023438 c 0
 91.6640625 309.666015625 123.331054688 344.333007812 167.998046875 381 c 1
 140.665039062 419 121.665039062 449.166992188 110.998046875 471.5 c 0
 100.331054688 493.833007812 94.998046875 517 94.998046875 541 c 0
 94.998046875 571.666992188 102.331054688 599.166992188 116.998046875 623.5 c 0
 131.665039062 647.833007812 151.83203125 666.833007812 177.499023438 680.5 c 0
 203.166015625 694.166992188 231.999023438 701 263.999023438 701 c 0
 296.666015625 701 325.833007812 694 351.5 680 c 0
 377.166992188 666 397 646.833007812 411 622.5 c 0
 425 598.1640625 432 571.331054688 432 542 c 0
 432 511.333007812 423.666992188 482.666015625 407 456 c 0
 390.333007812 429.333007812 361 398.333007812 319 363 c 1
 406 246 l 1
 475 332 l 1
 553 263 l 1
 470 159 l 1
 489 133 l 2
 502.333007812 115.666992188 516 107 530 107 c 2
225.997070312 588.999023438 m 0
 215.997070312 578.33203125 210.997070312 563.999023438 210.997070312 545.999023438 c 0
 210.997070312 533.33203125 213.830078125 520.665039062 219.497070312 507.998046875 c 0
 225.1640625 495.331054688 237.331054688 475.998046875 255.997070312 449.998046875 c 1
 280.6640625 470.665039062 297.1640625 487.83203125 305.497070312 501.499023438 c 0
 313.830078125 515.166015625 317.997070312 529.999023438 317.997070312 545.999023438 c 0
 317.997070312 563.33203125 312.997070312 577.499023438 302.997070312 588.499023438 c 0
 292.997070312 599.499023438 280.330078125 604.999023438 264.997070312 604.999023438 c 0
 248.997070312 604.999023438 235.997070312 599.666015625 225.997070312 588.999023438 c 0
283.997070312 108.499023438 m 0
 297.997070312 116.83203125 314.331054688 131.999023438 332.998046875 153.999023438 c 1
 231.998046875 291.999023438 l 1
 206.6640625 269.999023438 188.831054688 250.33203125 178.498046875 232.999023438 c 0
 168.165039062 215.666015625 162.998046875 197.999023438 162.998046875 179.999023438 c 0
 162.998046875 153.999023438 169.665039062 133.499023438 182.998046875 118.499023438 c 0
 196.331054688 103.499023438 214.6640625 95.9990234375 237.997070312 95.9990234375 c 0
 254.6640625 95.9990234375 269.997070312 100.166015625 283.997070312 108.499023438 c 0
EndSplineSet
EndChar

StartChar: quotesingle
Encoding: 39 39 9
Width: 193
GlyphClass: 2
Flags: W
LayerCount: 2
Fore
SplineSet
38 690 m 1
 155 690 l 1
 155 392 l 1
 38 392 l 1
 38 690 l 1
EndSplineSet
EndChar

StartChar: parenleft
Encoding: 40 40 10
Width: 310
GlyphClass: 2
Flags: W
LayerCount: 2
Fore
SplineSet
45 328 m 0
 45 478 88.3330078125 615.333984375 175 740.000976562 c 1
 265 740.000976562 l 1
 233 676.666992188 208.833007812 609.833984375 192.5 539.500976562 c 0
 176.166992188 469.16796875 168 398.66796875 168 328.000976562 c 0
 168 258.000976562 176.333007812 187.66796875 193 117.000976562 c 0
 209.666992188 46.333984375 233.666992188 -20.666015625 265 -83.9990234375 c 1
 174 -83.9990234375 l 1
 88 43.333984375 45 180.666992188 45 328 c 0
EndSplineSet
EndChar

StartChar: parenright
Encoding: 41 41 11
Width: 310
GlyphClass: 2
Flags: W
LayerCount: 2
Fore
SplineSet
117 117 m 0
 133.666992188 187.666992188 142 258 142 328 c 0
 142 398.666992188 133.833007812 469.166992188 117.5 539.5 c 0
 101.166992188 609.833007812 77 676.666015625 45 739.999023438 c 1
 135 739.999023438 l 1
 221.666992188 615.33203125 265 477.999023438 265 327.999023438 c 0
 265 180.666015625 222 43.3330078125 136 -84 c 1
 45 -84 l 1
 76.3330078125 -20.6669921875 100.333007812 46.3330078125 117 117 c 0
EndSplineSet
EndChar

StartChar: asterisk
Encoding: 42 42 12
Width: 377
GlyphClass: 2
Flags: W
LayerCount: 2
Fore
SplineSet
154 486 m 1
 76 441 l 1
 45 495 l 1
 125 541 l 1
 45 587 l 1
 76 641 l 1
 154 597 l 1
 154 690 l 1
 223 690 l 1
 223 596 l 1
 301 641 l 1
 331 587 l 1
 251 541 l 1
 332 495 l 1
 300 441 l 1
 223 485 l 1
 223 389 l 1
 154 389 l 1
 154 486 l 1
EndSplineSet
EndChar

StartChar: plus
Encoding: 43 43 13
Width: 529
GlyphClass: 2
Flags: W
LayerCount: 2
Fore
SplineSet
208 219 m 1
 48 219 l 1
 48 333 l 1
 208 333 l 1
 208 493 l 1
 322 493 l 1
 322 333 l 1
 481 333 l 1
 481 219 l 1
 322 219 l 1
 322 59 l 1
 208 59 l 1
 208 219 l 1
EndSplineSet
EndChar

StartChar: comma
Encoding: 44 44 14
Width: 193
GlyphClass: 2
Flags: W
LayerCount: 2
Fore
SplineSet
38 137 m 1
 155 137 l 1
 155 -63 l 1
 38 -162 l 1
 38 137 l 1
EndSplineSet
EndChar

StartChar: hyphen
Encoding: 45 45 15
Width: 365
GlyphClass: 2
Flags: W
LayerCount: 2
Fore
SplineSet
45 403 m 1
 320 403 l 1
 320 288 l 1
 45 288 l 1
 45 403 l 1
EndSplineSet
EndChar

StartChar: period
Encoding: 46 46 16
Width: 215
GlyphClass: 2
Flags: W
LayerCount: 2
Fore
SplineSet
38 142 m 1
 177 142 l 1
 177 0 l 1
 38 0 l 1
 38 142 l 1
EndSplineSet
EndChar

StartChar: slash
Encoding: 47 47 17
Width: 405
GlyphClass: 2
Flags: W
LayerCount: 2
Fore
SplineSet
256 695 m 1
 360 695 l 1
 148 -10 l 1
 45 -10 l 1
 256 695 l 1
EndSplineSet
EndChar

StartChar: zero
Encoding: 48 48 18
Width: 512
GlyphClass: 2
Flags: W
LayerCount: 2
Fore
SplineSet
100.5 48.5 m 0
 66.8330078125 88.1669921875 50 147.666992188 50 227 c 2
 50 471 l 2
 50 546.333007812 67.5 603.5 102.5 642.5 c 0
 137.5 681.5 188.666992188 701 256 701 c 0
 326 701 377.833007812 681.666992188 411.5 643 c 0
 445.166992188 604.333007812 462 547 462 471 c 2
 462 227 l 2
 462 148.333007812 445.166992188 89 411.5 49 c 0
 377.833007812 9 326 -11 256 -11 c 0
 186 -11 134.166992188 8.8330078125 100.5 48.5 c 0
315.5 133.5 m 0
 325.833007812 153.833007812 330.999023438 188.666015625 330.999023438 237.999023438 c 2
 330.999023438 451.999023438 l 2
 330.999023438 501.33203125 325.83203125 535.999023438 315.499023438 555.999023438 c 0
 305.166015625 575.999023438 285.333007812 585.999023438 256 585.999023438 c 0
 226.666992188 585.999023438 207 575.999023438 197 555.999023438 c 0
 187 535.999023438 182 501.33203125 182 451.999023438 c 2
 182 237.999023438 l 2
 182 188.666015625 187.166992188 153.833007812 197.5 133.5 c 0
 207.833007812 113.166992188 227.333007812 103 256 103 c 0
 285.333984375 103 305.166992188 113.166992188 315.5 133.5 c 0
EndSplineSet
EndChar

StartChar: one
Encoding: 49 49 19
Width: 348
GlyphClass: 2
Flags: W
LayerCount: 2
Fore
SplineSet
152 545 m 1
 36 461 l 1
 36 603 l 1
 152 690 l 1
 283 690 l 1
 283 0 l 1
 152 0 l 1
 152 545 l 1
EndSplineSet
Substitution2: "'sups' Superscript lookup 1 subtable" uni00B9
Substitution2: "'aalt' Access All Alternates lookup 0 subtable" uni00B9
EndChar

StartChar: two
Encoding: 50 50 20
Width: 493
GlyphClass: 2
Flags: W
LayerCount: 2
Fore
SplineSet
48 104 m 1
 277 401 l 2
 302.333007812 435 315 467.333007812 315 498 c 2
 315 512 l 2
 315 536 308.5 555 295.5 569 c 0
 282.5 583 265 590 243 590 c 0
 221 590 203.666992188 582.666992188 191 568 c 0
 178.333007812 553.333007812 172 533 172 507 c 2
 172 491 l 1
 45 491 l 1
 45 515 l 2
 45 551 53.1669921875 583 69.5 611 c 0
 85.8330078125 639 109.333007812 661 140 677 c 0
 170.666992188 693 206.666992188 701 248 701 c 0
 288 701 323.166992188 692.666992188 353.5 676 c 0
 383.833984375 659.333007812 407.166992188 637 423.5 609 c 0
 439.833007812 581 448 550 448 516 c 2
 448 499 l 2
 448 469 442.666992188 441.333007812 432 416 c 0
 421.333007812 390.666992188 405.666015625 364.666992188 385 338 c 2
 213 115 l 1
 448 115 l 1
 448 0 l 1
 48 0 l 1
 48 104 l 1
EndSplineSet
Substitution2: "'sups' Superscript lookup 1 subtable" uni00B2
Substitution2: "'aalt' Access All Alternates lookup 0 subtable" uni00B2
EndChar

StartChar: three
Encoding: 51 51 21
Width: 504
GlyphClass: 2
Flags: W
LayerCount: 2
Fore
SplineSet
98.5 35.5 m 0
 62.8330078125 66.5 44.9970703125 110.333984375 44.9970703125 167.000976562 c 2
 44.9970703125 188.000976562 l 1
 166.997070312 188.000976562 l 1
 166.997070312 173.000976562 l 2
 166.997070312 149.000976562 173.830078125 130.833984375 187.497070312 118.500976562 c 0
 201.1640625 106.16796875 220.997070312 100.000976562 246.997070312 100.000976562 c 0
 271.6640625 100.000976562 291.1640625 108.000976562 305.497070312 124.000976562 c 0
 319.830078125 140.000976562 326.997070312 161.66796875 326.997070312 189.000976562 c 2
 326.997070312 207.000976562 l 2
 326.997070312 237.000976562 319.330078125 260.000976562 303.997070312 276.000976562 c 0
 288.6640625 292.000976562 266.331054688 300.000976562 236.998046875 300.000976562 c 2
 201.998046875 300.000976562 l 1
 201.998046875 411.000976562 l 1
 235.998046875 411.000976562 l 2
 261.331054688 411.000976562 280.998046875 418.333984375 294.998046875 433.000976562 c 0
 308.998046875 447.66796875 315.998046875 468.000976562 315.998046875 494.000976562 c 2
 315.998046875 509.000976562 l 2
 315.998046875 534.333984375 309.498046875 554.166992188 296.498046875 568.5 c 0
 283.498046875 582.833007812 265.665039062 590 242.998046875 590 c 0
 219.665039062 590 201.665039062 583.5 188.998046875 570.5 c 0
 176.331054688 557.5 169.998046875 539.666992188 169.998046875 517 c 2
 169.998046875 500 l 1
 49.998046875 500 l 1
 49.998046875 517 l 2
 49.998046875 575 67.498046875 620.166992188 102.498046875 652.5 c 0
 137.498046875 684.833007812 185.998046875 701 247.998046875 701 c 0
 308.665039062 701 356.33203125 684.5 390.999023438 651.5 c 0
 425.666015625 618.5 442.999023438 574.333007812 442.999023438 519 c 2
 442.999023438 504 l 2
 442.999023438 474 435.999023438 447.166992188 421.999023438 423.5 c 0
 407.999023438 399.833007812 387.999023438 381 361.999023438 367 c 1
 391.999023438 354.333007812 414.83203125 334.333007812 430.499023438 307 c 0
 446.166015625 279.666992188 453.999023438 246.666992188 453.999023438 208 c 2
 453.999023438 189 l 2
 453.999023438 148.333007812 445.33203125 113 427.999023438 83 c 0
 410.666015625 53 386.333007812 29.8330078125 355 13.5 c 0
 323.666992188 -2.8330078125 288.333984375 -11 249.000976562 -11 c 0
 184.333984375 -11 134.166992188 4.5 98.5 35.5 c 0
EndSplineSet
Substitution2: "'sups' Superscript lookup 1 subtable" uni00B3
Substitution2: "'aalt' Access All Alternates lookup 0 subtable" uni00B3
EndChar

StartChar: four
Encoding: 52 52 22
Width: 521
GlyphClass: 2
Flags: W
LayerCount: 2
Fore
SplineSet
486 110 m 1
 430 110 l 1
 430 0 l 1
 299 0 l 1
 299 110 l 1
 35 110 l 1
 35 225 l 1
 232 690 l 1
 363 690 l 1
 166 225 l 1
 299 225 l 1
 299 387 l 1
 430 387 l 1
 430 225 l 1
 486 225 l 1
 486 110 l 1
EndSplineSet
EndChar

StartChar: five
Encoding: 53 53 23
Width: 497
GlyphClass: 2
Flags: W
LayerCount: 2
Fore
SplineSet
102.5 34 m 0
 67.5 64 50 105.666015625 50 158.999023438 c 2
 50 173.999023438 l 1
 170 173.999023438 l 1
 170 167.999023438 l 2
 170 146.666015625 176.666992188 129.999023438 190 117.999023438 c 0
 203.333007812 105.999023438 221.666015625 99.9990234375 244.999023438 99.9990234375 c 0
 270.333007812 99.9990234375 289.166015625 108.166015625 301.499023438 124.499023438 c 0
 313.83203125 140.83203125 319.999023438 164.665039062 319.999023438 195.998046875 c 2
 319.999023438 247.998046875 l 2
 319.999023438 280.665039062 313.83203125 304.83203125 301.499023438 320.499023438 c 0
 289.166015625 336.166015625 269.999023438 343.999023438 243.999023438 343.999023438 c 0
 210.666015625 343.999023438 186.999023438 328.33203125 172.999023438 296.999023438 c 1
 59.9990234375 296.999023438 l 1
 59.9990234375 689.999023438 l 1
 432.999023438 689.999023438 l 1
 432.999023438 577.999023438 l 1
 172.999023438 577.999023438 l 1
 172.999023438 421.999023438 l 1
 199.666015625 443.33203125 232.333007812 453.999023438 271 453.999023438 c 0
 329 453.999023438 372.833007812 436.83203125 402.5 402.499023438 c 0
 432.166992188 368.166015625 447 318.999023438 447 254.999023438 c 2
 447 189.999023438 l 2
 447 126.666015625 429.166992188 77.3330078125 393.5 42 c 0
 357.833007812 6.6669921875 308.333007812 -11 245 -11 c 0
 185 -11 137.5 4 102.5 34 c 0
EndSplineSet
EndChar

StartChar: six
Encoding: 54 54 24
Width: 516
GlyphClass: 2
Flags: W
LayerCount: 2
Fore
SplineSet
101.5 43 m 0
 63.8330078125 79 44.9990234375 128.999023438 44.9990234375 192.999023438 c 2
 44.9990234375 223.999023438 l 2
 44.9990234375 251.33203125 48.83203125 277.33203125 56.4990234375 301.999023438 c 0
 64.166015625 326.666015625 75.3330078125 353.666015625 90 382.999023438 c 2
 248 689.999023438 l 1
 386 689.999023438 l 1
 243 410.999023438 l 1
 257.666992188 417.666015625 274.333984375 420.999023438 293.000976562 420.999023438 c 0
 347.000976562 420.999023438 390.16796875 403.83203125 422.500976562 369.499023438 c 0
 454.833984375 335.166015625 471.000976562 288.333007812 471.000976562 229 c 2
 471.000976562 197 l 2
 471.000976562 131.666992188 451.500976562 80.6669921875 412.500976562 44 c 0
 373.500976562 7.3330078125 322.000976562 -11 258.000976562 -11 c 0
 191.333984375 -11 139.166992188 7 101.5 43 c 0
317.999023438 123.999023438 m 0
 332.666015625 139.999023438 339.999023438 162.331054688 339.999023438 190.998046875 c 2
 339.999023438 221.998046875 l 2
 339.999023438 250.665039062 332.666015625 272.83203125 317.999023438 288.499023438 c 0
 303.33203125 304.166015625 283.33203125 311.999023438 257.999023438 311.999023438 c 0
 232.666015625 311.999023438 212.833007812 304.166015625 198.5 288.499023438 c 0
 184.166992188 272.83203125 177 250.999023438 177 222.999023438 c 2
 177 189.999023438 l 2
 177 161.999023438 184.166992188 139.999023438 198.5 123.999023438 c 0
 212.833007812 107.999023438 232.666015625 99.9990234375 257.999023438 99.9990234375 c 0
 283.33203125 99.9990234375 303.33203125 107.999023438 317.999023438 123.999023438 c 0
EndSplineSet
EndChar

StartChar: seven
Encoding: 55 55 25
Width: 457
GlyphClass: 2
Flags: W
LayerCount: 2
Fore
SplineSet
427 690 m 1
 427 576 l 1
 217 0 l 1
 85 0 l 1
 299 576 l 1
 30 576 l 1
 30 690 l 1
 427 690 l 1
EndSplineSet
EndChar

StartChar: eight
Encoding: 56 56 26
Width: 525
GlyphClass: 2
Flags: W
LayerCount: 2
Fore
SplineSet
153 13.5 m 0
 121 29.8330078125 95.8310546875 53.333984375 77.498046875 84.0009765625 c 0
 59.1650390625 114.66796875 49.998046875 150.000976562 49.998046875 190.000976562 c 2
 49.998046875 213.000976562 l 2
 49.998046875 244.333984375 57.3310546875 273.166992188 71.998046875 299.5 c 0
 86.6650390625 325.833984375 107.33203125 346.666992188 133.999023438 362 c 1
 112.666015625 374.666992188 95.4990234375 392.5 82.4990234375 415.5 c 0
 69.4990234375 438.5 62.9990234375 465 62.9990234375 495 c 2
 62.9990234375 513 l 2
 62.9990234375 547 71.166015625 578.333007812 87.4990234375 607 c 0
 103.83203125 635.666992188 126.999023438 658.5 156.999023438 675.5 c 0
 186.999023438 692.5 222.33203125 701 262.999023438 701 c 0
 303.666015625 701 339.166015625 692.5 369.499023438 675.5 c 0
 399.83203125 658.5 422.999023438 635.666992188 438.999023438 607 c 0
 454.999023438 578.333007812 462.999023438 547 462.999023438 513 c 2
 462.999023438 495 l 2
 462.999023438 465.666992188 456.33203125 439.333984375 442.999023438 416.000976562 c 0
 429.666015625 392.66796875 412.666015625 374.66796875 391.999023438 362.000976562 c 1
 418.666015625 346.000976562 439.166015625 324.833984375 453.499023438 298.500976562 c 0
 467.83203125 272.16796875 474.999023438 244.000976562 474.999023438 214.000976562 c 2
 474.999023438 191.000976562 l 2
 474.999023438 150.333984375 465.83203125 114.666992188 447.499023438 84 c 0
 429.166015625 53.3330078125 403.833007812 29.8330078125 371.5 13.5 c 0
 339.166992188 -2.8330078125 302.666992188 -11 262 -11 c 0
 221.333007812 -11 185 -2.8330078125 153 13.5 c 0
316.998046875 436.500976562 m 0
 330.331054688 451.500976562 336.998046875 470.66796875 336.998046875 494.000976562 c 2
 336.998046875 513.000976562 l 2
 336.998046875 535.000976562 330.165039062 553.333984375 316.498046875 568.000976562 c 0
 302.831054688 582.66796875 284.998046875 590.000976562 262.998046875 590.000976562 c 0
 240.998046875 590.000976562 223.165039062 582.66796875 209.498046875 568.000976562 c 0
 195.831054688 553.333984375 188.998046875 535.000976562 188.998046875 513.000976562 c 2
 188.998046875 494.000976562 l 2
 188.998046875 470.000976562 195.665039062 450.66796875 208.998046875 436.000976562 c 0
 222.331054688 421.333984375 240.331054688 414.000976562 262.998046875 414.000976562 c 0
 285.665039062 414.000976562 303.665039062 421.500976562 316.998046875 436.500976562 c 0
325.498046875 125.000976562 m 0
 341.165039062 141.66796875 348.998046875 164.000976562 348.998046875 192.000976562 c 2
 348.998046875 216.000976562 l 2
 348.998046875 242.66796875 341.165039062 264.334960938 325.498046875 281.001953125 c 0
 309.831054688 297.668945312 288.998046875 306.001953125 262.998046875 306.001953125 c 0
 237.665039062 306.001953125 216.998046875 297.668945312 200.998046875 281.001953125 c 0
 184.998046875 264.334960938 176.998046875 242.66796875 176.998046875 216.000976562 c 2
 176.998046875 192.000976562 l 2
 176.998046875 164.66796875 184.665039062 142.500976562 199.998046875 125.500976562 c 0
 215.331054688 108.500976562 236.331054688 100.000976562 262.998046875 100.000976562 c 0
 288.998046875 100.000976562 309.831054688 108.333984375 325.498046875 125.000976562 c 0
EndSplineSet
EndChar

StartChar: nine
Encoding: 57 57 27
Width: 516
GlyphClass: 2
Flags: W
LayerCount: 2
Fore
SplineSet
273 279 m 1
 258.333007812 272.333007812 241.666015625 269.000976562 222.999023438 269.000976562 c 0
 168.999023438 269.000976562 125.83203125 286.16796875 93.4990234375 320.500976562 c 0
 61.166015625 354.833984375 44.9990234375 401.666992188 44.9990234375 461 c 2
 44.9990234375 493 l 2
 44.9990234375 558.333007812 64.4990234375 609.333007812 103.499023438 646 c 0
 142.499023438 682.666992188 193.999023438 701 257.999023438 701 c 0
 324.666015625 701 376.833007812 683 414.5 647 c 0
 452.166992188 611 471 561 471 497 c 2
 471 466 l 2
 471 439.333007812 467.166992188 413.5 459.5 388.5 c 0
 451.83203125 363.5 440.665039062 336.333007812 426 307 c 2
 268 0 l 1
 130 0 l 1
 273 279 l 1
317.5 401.500976562 m 0
 331.833007812 417.16796875 338.999023438 439.001953125 338.999023438 467.001953125 c 2
 338.999023438 500.001953125 l 2
 338.999023438 528.001953125 331.83203125 550.001953125 317.499023438 566.001953125 c 0
 303.166015625 582.001953125 283.333007812 590.001953125 258 590.001953125 c 0
 232.666992188 590.001953125 212.666992188 582.001953125 198 566.001953125 c 0
 183.333007812 550.001953125 176 527.668945312 176 499.001953125 c 2
 176 468.001953125 l 2
 176 439.333984375 183.333007812 417.166992188 198 401.500976562 c 0
 212.666992188 385.833984375 232.666992188 378.000976562 258 378.000976562 c 0
 283.333984375 378.000976562 303.166992188 385.833984375 317.5 401.500976562 c 0
EndSplineSet
EndChar

StartChar: colon
Encoding: 58 58 28
Width: 215
GlyphClass: 2
Flags: W
LayerCount: 2
Fore
SplineSet
38 142 m 1
 177 142 l 1
 177 0 l 1
 38 0 l 1
 38 142 l 1
38 480 m 1
 177 480 l 1
 177 338 l 1
 38 338 l 1
 38 480 l 1
108 520 m 1024
EndSplineSet
EndChar

StartChar: semicolon
Encoding: 59 59 29
Width: 215
GlyphClass: 2
Flags: W
LayerCount: 2
Fore
SplineSet
38 480 m 1
 177 480 l 1
 177 338 l 1
 38 338 l 1
 38 480 l 1
58 137 m 1
 175 137 l 1
 175 -63 l 1
 58 -162 l 1
 58 137 l 1
104 520 m 1024
EndSplineSet
EndChar

StartChar: less
Encoding: 60 60 30
Width: 529
GlyphClass: 2
Flags: W
LayerCount: 2
Fore
SplineSet
48 223 m 1
 48 326 l 1
 480 495 l 1
 480 380 l 1
 202 274 l 1
 480 169 l 1
 480 53 l 1
 48 223 l 1
EndSplineSet
EndChar

StartChar: equal
Encoding: 61 61 31
Width: 529
GlyphClass: 2
Flags: W
LayerCount: 2
Fore
SplineSet
48 437 m 1
 480 437 l 1
 480 324 l 1
 48 324 l 1
 48 437 l 1
48 228 m 1
 480 228 l 1
 480 115 l 1
 48 115 l 1
 48 228 l 1
EndSplineSet
EndChar

StartChar: greater
Encoding: 62 62 32
Width: 529
GlyphClass: 2
Flags: W
LayerCount: 2
Fore
SplineSet
48 169 m 1
 326 274 l 1
 48 380 l 1
 48 495 l 1
 480 326 l 1
 480 223 l 1
 48 53 l 1
 48 169 l 1
EndSplineSet
EndChar

StartChar: question
Encoding: 63 63 33
Width: 451
GlyphClass: 2
Flags: W
LayerCount: 2
Fore
SplineSet
157 244 m 2
 157 270 159.500976562 290.66796875 164.500976562 306.000976562 c 0
 169.500976562 321.333984375 180.66796875 340.333984375 198.000976562 363.000976562 c 2
 253.000976562 434.000976562 l 2
 266.334960938 451.334960938 275.66796875 466.16796875 281 478.5 c 0
 286.333007812 490.833007812 289 504 289 518 c 0
 289 539.333007812 283.166992188 556.166015625 271.5 568.499023438 c 0
 259.833007812 580.83203125 242 586.999023438 218 586.999023438 c 0
 194 586.999023438 176.5 580.499023438 165.5 567.499023438 c 0
 154.5 554.499023438 148.666992188 534.666015625 148 507.999023438 c 1
 27 507.999023438 l 1
 28.3330078125 570.666992188 45.666015625 618.333984375 78.9990234375 650.999023438 c 0
 112.33203125 683.666015625 159.999023438 699.999023438 221.999023438 699.999023438 c 0
 260.666015625 699.999023438 294.833007812 692.33203125 324.5 676.999023438 c 0
 354.166992188 661.666015625 377 640.499023438 393 613.499023438 c 0
 409 586.499023438 417 555.999023438 417 521.999023438 c 0
 417 497.999023438 413 475.83203125 405 455.499023438 c 0
 397 435.166015625 384 413.333007812 366 390 c 2
 308 312 l 2
 297.331054688 298 290.1640625 285.833007812 286.5 275.5 c 0
 282.833007812 265.166992188 281 251.666992188 281 235 c 2
 281 193 l 1
 157 193 l 1
 157 244 l 2
153.000976562 126.000976562 m 1
 284.000976562 126.000976562 l 1
 284.000976562 0.0009765625 l 1
 153.000976562 0.0009765625 l 1
 153.000976562 126.000976562 l 1
EndSplineSet
EndChar

StartChar: at
Encoding: 64 64 34
Width: 873
GlyphClass: 2
Flags: W
LayerCount: 2
Fore
SplineSet
233 -88 m 0
 173.666992188 -56 127.5 -11.16796875 94.5 46.4990234375 c 0
 61.5 104.166015625 45 170.666015625 45 245.999023438 c 2
 45 315.999023438 l 2
 45 391.33203125 61.5 457.83203125 94.5 515.499023438 c 0
 127.5 573.166015625 173.666992188 617.999023438 233 649.999023438 c 0
 292.333007812 681.999023438 360.333007812 697.999023438 437 697.999023438 c 0
 512.333007812 697.999023438 579.666015625 682.166015625 638.999023438 650.499023438 c 0
 698.33203125 618.83203125 744.665039062 574.33203125 777.998046875 516.999023438 c 0
 811.331054688 459.666015625 827.998046875 394.333007812 827.998046875 321 c 2
 827.998046875 251 l 2
 827.998046875 187 811.998046875 138.166992188 779.998046875 104.5 c 0
 747.998046875 70.8330078125 707.665039062 54 658.998046875 54 c 0
 628.998046875 54 603.331054688 59.6669921875 581.998046875 71 c 0
 560.663085938 82.3330078125 544.330078125 98.3330078125 532.999023438 119 c 1
 511.666015625 75.6669921875 468.999023438 54 404.999023438 54 c 0
 304.33203125 54 253.999023438 114.333007812 253.999023438 235 c 2
 253.999023438 323 l 2
 253.999023438 380.333007812 265.83203125 425 289.499023438 457 c 0
 313.166015625 489 349.333007812 505 398 505 c 0
 422 505 443.166992188 500.333007812 461.5 491 c 0
 479.833007812 481.666992188 493.333007812 469.333984375 502 454.000976562 c 1
 502 494.000976562 l 1
 611 494.000976562 l 1
 611 209.000976562 l 2
 611 187.666992188 615.5 171.833984375 624.5 161.500976562 c 0
 633.5 151.16796875 645.333007812 146.000976562 660 146.000976562 c 0
 678.666992188 146.000976562 692.666992188 154.16796875 702 170.500976562 c 0
 711.333007812 186.833984375 716 213.333984375 716 250.000976562 c 2
 716 320.000976562 l 2
 716 376.66796875 704.833007812 425.834960938 682.5 467.501953125 c 0
 660.166992188 509.168945312 628.166992188 541.3359375 586.5 564.002929688 c 0
 544.833007812 586.669921875 495 598.002929688 437 598.002929688 c 0
 349.666992188 598.002929688 281.166992188 573.002929688 231.5 523.002929688 c 0
 181.833007812 473.002929688 157 404.669921875 157 318.002929688 c 2
 157 247.002929688 l 2
 157 190.3359375 168.166992188 140.668945312 190.5 98.001953125 c 0
 212.833007812 55.3349609375 245 22.3349609375 287 -0.998046875 c 0
 329 -24.3310546875 379 -35.998046875 437 -35.998046875 c 0
 477 -35.998046875 513 -31.8310546875 545 -23.498046875 c 0
 577 -15.1650390625 610 -2.33203125 644 15.0009765625 c 1
 688 -69.9990234375 l 1
 649.333007812 -92.666015625 610 -109.333007812 570 -120 c 0
 530 -130.666992188 485.666992188 -136 437 -136 c 0
 360.333007812 -136 292.333007812 -120 233 -88 c 0
500 237.999023438 m 2
 500 321.999023438 l 2
 500 381.33203125 478 410.999023438 434 410.999023438 c 0
 410.666992188 410.999023438 393.5 403.166015625 382.5 387.499023438 c 0
 371.5 371.83203125 366 350.33203125 366 322.999023438 c 2
 366 240.999023438 l 2
 366 210.999023438 371.333007812 187.999023438 382 171.999023438 c 0
 392.666992188 155.999023438 410 147.999023438 434 147.999023438 c 0
 478 147.999023438 500 177.999023438 500 237.999023438 c 2
EndSplineSet
EndChar

StartChar: A
Encoding: 65 65 35
Width: 606
GlyphClass: 2
Flags: W
AnchorPoint: "Anchor-0" 303 690 basechar 0
LayerCount: 2
Fore
SplineSet
421 134 m 1
 184 134 l 1
 142 0 l 1
 4 0 l 1
 249 690 l 1
 356 690 l 1
 602 0 l 1
 463 0 l 1
 421 134 l 1
386 243 m 1
 302 508 l 1
 219 243 l 1
 386 243 l 1
EndSplineSet
Substitution2: "Single Substitution lookup 6 subtable" ordfeminine
Substitution2: "'aalt' Access All Alternates lookup 0 subtable" ordfeminine
EndChar

StartChar: B
Encoding: 66 66 36
Width: 598
GlyphClass: 2
Flags: W
LayerCount: 2
Fore
SplineSet
523.5 294 m 0
 539.833007812 267.333007812 547.999023438 235.333984375 547.999023438 198.000976562 c 0
 547.999023438 135.333984375 529.33203125 86.6669921875 491.999023438 52 c 0
 454.666015625 17.3330078125 402.666015625 0 335.999023438 0 c 2
 58.9990234375 0 l 1
 58.9990234375 690 l 1
 324.999023438 690 l 2
 392.33203125 690 444.83203125 673.333007812 482.499023438 640 c 0
 520.166015625 606.666015625 538.999023438 559.333007812 538.999023438 498 c 0
 538.999023438 467.333007812 531.33203125 439.166015625 515.999023438 413.5 c 0
 500.666015625 387.833007812 479.333007812 368.333007812 452 355 c 1
 483.333984375 341 507.166992188 320.666992188 523.5 294 c 0
189.999023438 576.000976562 m 1
 189.999023438 408.000976562 l 1
 314.999023438 408.000976562 l 2
 344.999023438 408.000976562 367.83203125 415.16796875 383.499023438 429.500976562 c 0
 399.166015625 443.833984375 406.999023438 464.000976562 406.999023438 490.000976562 c 0
 406.999023438 518.000976562 399.166015625 539.333984375 383.499023438 554.000976562 c 0
 367.83203125 568.66796875 344.999023438 576.000976562 314.999023438 576.000976562 c 2
 189.999023438 576.000976562 l 1
393.499023438 138.500976562 m 0
 409.166015625 154.833984375 416.999023438 177.668945312 416.999023438 207.001953125 c 0
 416.999023438 234.334960938 409.166015625 255.66796875 393.499023438 271.000976562 c 0
 377.83203125 286.333984375 354.33203125 294.000976562 322.999023438 294.000976562 c 2
 189.999023438 294.000976562 l 1
 189.999023438 114.000976562 l 1
 322.999023438 114.000976562 l 2
 354.33203125 114.000976562 377.83203125 122.16796875 393.499023438 138.500976562 c 0
EndSplineSet
EndChar

StartChar: C
Encoding: 67 67 37
Width: 600
GlyphClass: 2
Flags: W
LayerCount: 2
Fore
SplineSet
50 267 m 2
 49.9990234375 425 l 2
 49.9990234375 608.333007812 134.33203125 700 302.999023438 700 c 0
 378.33203125 700 438.33203125 680 482.999023438 640 c 0
 527.666015625 600 549.999023438 543.666992188 549.999023438 471 c 2
 549.999023438 464 l 1
 418.999023438 464 l 1
 418.999023438 470 l 2
 418.999023438 505.333007812 408.83203125 533.333007812 388.499023438 554 c 0
 368.166015625 574.666992188 339.333007812 585 302 585 c 0
 260 585 229.5 572 210.5 546 c 0
 191.5 520 182 477.333007812 182 418 c 2
 182 269 l 2
 182 213 191.833007812 172.333007812 211.5 147 c 0
 231.166992188 121.666992188 262 109 304 109 c 0
 341.333007812 109 369.833007812 119 389.5 139 c 0
 409.166992188 159 419 186.333007812 419 221 c 2
 419 229 l 1
 548 229 l 1
 548 222 l 2
 548 148 526 91.1669921875 482 51.5 c 0
 438 11.8330078125 377.666992188 -8 301 -8 c 0
 133.666992188 -8 50 83.6669921875 50 267 c 2
EndSplineSet
EndChar

StartChar: D
Encoding: 68 68 38
Width: 600
GlyphClass: 2
Flags: W
LayerCount: 2
Fore
SplineSet
59 690 m 1
 301.999023438 690 l 2
 378.666015625 690 439.166015625 668.666992188 483.499023438 626 c 0
 527.83203125 583.333007812 549.999023438 513.333007812 549.999023438 416 c 2
 549.999023438 275 l 2
 549.999023438 177.666992188 527.33203125 107.5 481.999023438 64.5 c 0
 436.666015625 21.5 375.333007812 0 298 0 c 2
 59 0 l 1
 59 690 l 1
300.999023438 114 m 2
 340.33203125 114 369.83203125 127 389.499023438 153 c 0
 409.166015625 179 418.999023438 220 418.999023438 276 c 2
 418.999023438 409 l 2
 418.999023438 467.666992188 409.33203125 510.166992188 389.999023438 536.5 c 0
 370.666015625 562.833007812 340.999023438 576 300.999023438 576 c 2
 189.999023438 576 l 1
 189.999023438 114 l 1
 300.999023438 114 l 2
EndSplineSet
EndChar

StartChar: E
Encoding: 69 69 39
Width: 532
GlyphClass: 2
Flags: W
AnchorPoint: "Anchor-0" 268 690 basechar 0
LayerCount: 2
Fore
SplineSet
190 576 m 1
 190 405 l 1
 452 405 l 1
 452 291 l 1
 190 291 l 1
 190 114 l 1
 497 114 l 1
 497 0 l 1
 59 0 l 1
 59 690 l 1
 497 690 l 1
 497 576 l 1
 190 576 l 1
EndSplineSet
EndChar

StartChar: F
Encoding: 70 70 40
Width: 527
GlyphClass: 2
Flags: W
LayerCount: 2
Fore
SplineSet
190 576 m 1
 190 399 l 1
 453 399 l 1
 453 285 l 1
 190 285 l 1
 190 0 l 1
 59 0 l 1
 59 690 l 1
 497 690 l 1
 497 576 l 1
 190 576 l 1
EndSplineSet
EndChar

StartChar: G
Encoding: 71 71 41
Width: 600
GlyphClass: 2
Flags: W
LayerCount: 2
Fore
SplineSet
50 267 m 2
 49.9990234375 425 l 2
 49.9990234375 608.333007812 134.33203125 700 302.999023438 700 c 0
 378.33203125 700 438.33203125 680.166992188 482.999023438 640.5 c 0
 527.666015625 600.833007812 549.999023438 546 549.999023438 476 c 2
 549.999023438 469 l 1
 418.999023438 469 l 1
 418.999023438 476 l 2
 418.999023438 507.333007812 408.83203125 533.333007812 388.499023438 554 c 0
 368.166015625 574.666992188 339.333007812 585 302 585 c 0
 260 585 229.5 572 210.5 546 c 0
 191.5 520 182 477.333007812 182 418 c 2
 182 269 l 2
 182 212.333007812 192.166992188 171.5 212.5 146.5 c 0
 232.833007812 121.5 264.333007812 109 307 109 c 0
 347 109 376.166992188 119.333007812 394.5 140 c 0
 412.833007812 160.666992188 422 192 422 234 c 2
 422 267 l 1
 300 267 l 1
 300 375 l 1
 550 375 l 1
 550 257 l 2
 550 80.3330078125 467 -8 301 -8 c 0
 133.666992188 -8 50 83.6669921875 50 267 c 2
EndSplineSet
EndChar

StartChar: H
Encoding: 72 72 42
Width: 609
GlyphClass: 2
Flags: W
LayerCount: 2
Fore
SplineSet
550 690 m 1
 550 0 l 1
 419 0 l 1
 419 292 l 1
 190 292 l 1
 190 0 l 1
 59 0 l 1
 59 690 l 1
 190 690 l 1
 190 406 l 1
 419 406 l 1
 419 690 l 1
 550 690 l 1
EndSplineSet
EndChar

StartChar: I
Encoding: 73 73 43
Width: 261
GlyphClass: 2
Flags: W
AnchorPoint: "Anchor-0" 130 690 basechar 0
LayerCount: 2
Fore
SplineSet
65 690 m 1
 196 690 l 1
 196 0 l 1
 65 0 l 1
 65 690 l 1
EndSplineSet
EndChar

StartChar: J
Encoding: 74 74 44
Width: 331
GlyphClass: 2
Flags: W
LayerCount: 2
Fore
SplineSet
24 115 m 1
 78 115 l 2
 98.6669921875 115 113.166992188 119.833007812 121.5 129.5 c 0
 129.833007812 139.166992188 134 156 134 180 c 2
 134 690 l 1
 266 690 l 1
 266 158 l 2
 266 107.333007812 252.166992188 68.3330078125 224.5 41 c 0
 196.833007812 13.6669921875 158 0 108 0 c 2
 24 0 l 1
 24 115 l 1
EndSplineSet
EndChar

StartChar: K
Encoding: 75 75 45
Width: 610
GlyphClass: 2
Flags: W
LayerCount: 2
Fore
SplineSet
281 307 m 1
 190 193 l 1
 190 0 l 1
 59 0 l 1
 59 690 l 1
 190 690 l 1
 190 368 l 1
 429 690 l 1
 586 690 l 1
 365 413 l 1
 604 0 l 1
 452 0 l 1
 281 307 l 1
EndSplineSet
EndChar

StartChar: L
Encoding: 76 76 46
Width: 516
GlyphClass: 2
Flags: W
LayerCount: 2
Fore
SplineSet
59 690 m 1
 190 690 l 1
 190 114 l 1
 492 114 l 1
 492 0 l 1
 59 0 l 1
 59 690 l 1
EndSplineSet
EndChar

StartChar: M
Encoding: 77 77 47
Width: 732
GlyphClass: 2
Flags: W
LayerCount: 2
Fore
SplineSet
673 690 m 1
 673 0 l 1
 542 0 l 1
 542 409 l 1
 411 133 l 1
 323 133 l 1
 190 412 l 1
 190 0 l 1
 59 0 l 1
 59 690 l 1
 190 690 l 1
 367 309 l 1
 542 690 l 1
 673 690 l 1
EndSplineSet
EndChar

StartChar: N
Encoding: 78 78 48
Width: 634
GlyphClass: 2
Flags: W
AnchorPoint: "Anchor-0" 317 690 basechar 0
LayerCount: 2
Fore
SplineSet
575 690 m 1
 575 0 l 1
 444 0 l 1
 190 431 l 1
 190 0 l 1
 59 0 l 1
 59 690 l 1
 190 690 l 1
 444 258 l 1
 444 690 l 1
 575 690 l 1
EndSplineSet
EndChar

StartChar: O
Encoding: 79 79 49
Width: 600
GlyphClass: 2
Flags: W
AnchorPoint: "Anchor-0" 300 690 basechar 0
LayerCount: 2
Fore
SplineSet
50 267 m 2
 49.9990234375 425 l 2
 49.9990234375 608.333007812 133.666015625 700 300.999023438 700 c 0
 377.666015625 700 438.333007812 678.5 483 635.5 c 0
 527.666992188 592.5 550 522.333007812 550 425 c 2
 550 267 l 2
 550 169.666992188 527.166992188 99.5 481.5 56.5 c 0
 435.833007812 13.5 374.333007812 -8 297 -8 c 0
 132.333007812 -8 50 83.6669921875 50 267 c 2
389.999023438 147.5 m 0
 409.33203125 173.166992188 418.999023438 213.666992188 418.999023438 269 c 2
 418.999023438 418 l 2
 418.999023438 476.666992188 409.33203125 519.166992188 389.999023438 545.5 c 0
 370.666015625 571.833007812 340.999023438 585 300.999023438 585 c 0
 258.999023438 585 228.666015625 572.166992188 209.999023438 546.5 c 0
 191.33203125 520.833007812 181.999023438 478 181.999023438 418 c 2
 181.999023438 269 l 2
 181.999023438 212.333007812 191.33203125 171.5 209.999023438 146.5 c 0
 228.666015625 121.5 258.999023438 109 300.999023438 109 c 0
 340.999023438 109 370.666015625 121.833007812 389.999023438 147.5 c 0
EndSplineSet
Substitution2: "Single Substitution lookup 6 subtable" ordmasculine
Substitution2: "'aalt' Access All Alternates lookup 0 subtable" ordmasculine
EndChar

StartChar: P
Encoding: 80 80 50
Width: 567
GlyphClass: 2
Flags: W
LayerCount: 2
Fore
SplineSet
482.5 632 m 0
 522.833007812 593.333007812 543 540.333007812 543 473 c 0
 543 409 522.833007812 357.833007812 482.5 319.5 c 0
 442.166992188 281.166992188 387 262 317 262 c 2
 190 262 l 1
 190 0 l 1
 59 0 l 1
 59 690 l 1
 317 690 l 2
 387 690 442.166992188 670.666992188 482.5 632 c 0
385 402 m 0
 403 418.666992188 412 442.333007812 412 473 c 0
 412 506.333007812 403.166992188 531.833007812 385.5 549.5 c 0
 367.833007812 567.166992188 343 576 311 576 c 2
 190 576 l 1
 190 377 l 1
 311 377 l 2
 342.333007812 377 367 385.333007812 385 402 c 0
EndSplineSet
EndChar

StartChar: Q
Encoding: 81 81 51
Width: 600
GlyphClass: 2
Flags: W
AnchorPoint: "Anchor-0" 300 690 basechar 0
LayerCount: 2
Fore
SplineSet
456 35 m 1
 528.999023438 -99 l 1
 428.999023438 -154 l 1
 347.999023438 -5 l 1
 331.999023438 -7 314.999023438 -8 296.999023438 -8 c 0
 132.33203125 -8 49.9990234375 83.6669921875 49.9990234375 267 c 2
 49.9990234375 425 l 2
 49.9990234375 608.333007812 133.666015625 700 300.999023438 700 c 0
 377.666015625 700 438.333007812 678.5 483 635.5 c 0
 527.666992188 592.5 550 522.333007812 550 425 c 2
 550 267 l 2
 550 156.333007812 518.666992188 79 456 35 c 1
209.999023438 146.5 m 0
 228.666015625 121.5 258.999023438 109 300.999023438 109 c 0
 340.999023438 109 370.666015625 121.833007812 389.999023438 147.5 c 0
 409.33203125 173.166992188 418.999023438 213.666992188 418.999023438 269 c 2
 418.999023438 418 l 2
 418.999023438 476.666992188 409.33203125 519.166992188 389.999023438 545.5 c 0
 370.666015625 571.833007812 340.999023438 585 300.999023438 585 c 0
 258.999023438 585 228.666015625 572.166992188 209.999023438 546.5 c 0
 191.33203125 520.833007812 181.999023438 478 181.999023438 418 c 2
 181.999023438 269 l 2
 181.999023438 212.333007812 191.33203125 171.5 209.999023438 146.5 c 0
EndSplineSet
EndChar

StartChar: R
Encoding: 82 82 52
Width: 600
GlyphClass: 2
Flags: W
LayerCount: 2
Fore
SplineSet
288 280 m 1
 190 279.999023438 l 1
 190 -0.0009765625 l 1
 59 -0.0009765625 l 1
 59 689.999023438 l 1
 321 689.999023438 l 2
 388.333007812 689.999023438 442 671.499023438 482 634.499023438 c 0
 522 597.499023438 542 547.33203125 542 483.999023438 c 0
 542 438.666015625 531.5 400.333007812 510.5 369 c 0
 489.5 337.666992188 459.333007812 314.666992188 420 300 c 1
 570 0 l 1
 419 0 l 1
 288 280 l 1
190 388.999023438 m 1
 314 388.999023438 l 2
 344.666992188 388.999023438 368.5 397.166015625 385.5 413.499023438 c 0
 402.5 429.83203125 411 453.33203125 411 483.999023438 c 0
 411 511.999023438 402.333007812 534.33203125 385 550.999023438 c 0
 367.666992188 567.666015625 344 575.999023438 314 575.999023438 c 2
 190 575.999023438 l 1
 190 388.999023438 l 1
EndSplineSet
EndChar

StartChar: S
Encoding: 83 83 53
Width: 548
GlyphClass: 2
Flags: W
AnchorPoint: "Anchor-0" 272 690 basechar 0
LayerCount: 2
Fore
SplineSet
94 49.5 m 0
 52.6669921875 86.5 29.6630859375 140.002929688 24.99609375 210.002929688 c 1
 148.99609375 210.002929688 l 1
 153.663085938 172.002929688 165.830078125 145.169921875 185.497070312 129.502929688 c 0
 205.1640625 113.8359375 234.331054688 106.002929688 272.998046875 106.002929688 c 0
 346.998046875 106.002929688 383.998046875 136.3359375 383.998046875 197.002929688 c 0
 383.998046875 224.3359375 376.665039062 245.168945312 361.998046875 259.501953125 c 0
 347.331054688 273.8359375 323.998046875 283.668945312 291.998046875 289.000976562 c 2
 226.998046875 300.000976562 l 2
 102.331054688 320.66796875 39.998046875 384.66796875 39.998046875 492.000976562 c 0
 39.998046875 556.000976562 61.1650390625 606.66796875 103.498046875 644.000976562 c 0
 145.831054688 681.333984375 201.998046875 700.000976562 271.998046875 700.000976562 c 0
 339.998046875 700.000976562 393.831054688 682.000976562 433.498046875 646.000976562 c 0
 473.165039062 610.000976562 495.665039062 559.333984375 500.998046875 494.000976562 c 1
 374.998046875 494.000976562 l 1
 372.998046875 527.333984375 363.331054688 551.666992188 345.998046875 567 c 0
 328.665039062 582.333007812 303.33203125 590 269.999023438 590 c 0
 235.999023438 590 210.33203125 582.166992188 192.999023438 566.5 c 0
 175.666015625 550.833007812 166.999023438 529.333007812 166.999023438 502 c 0
 166.999023438 478 174.666015625 459 189.999023438 445 c 0
 205.33203125 431 229.33203125 421 261.999023438 415 c 2
 334.999023438 402 l 2
 453.666015625 380.666992188 512.999023438 316 512.999023438 208 c 0
 512.999023438 138.666992188 490.83203125 85.6669921875 446.499023438 49 c 0
 402.166015625 12.3330078125 342.333007812 -6 267 -6 c 0
 193 -6 135.333007812 12.5 94 49.5 c 0
EndSplineSet
EndChar

StartChar: T
Encoding: 84 84 54
Width: 496
GlyphClass: 2
Flags: W
LayerCount: 2
Fore
SplineSet
490 576 m 1
 314 576 l 1
 314 0 l 1
 182 0 l 1
 182 576 l 1
 6 576 l 1
 6 690 l 1
 490 690 l 1
 490 576 l 1
EndSplineSet
EndChar

StartChar: U
Encoding: 85 85 55
Width: 614
GlyphClass: 2
Flags: W
AnchorPoint: "Anchor-0" 307 690 basechar 0
LayerCount: 2
Fore
SplineSet
179.5 23.5 m 0
 141.833007812 43.1669921875 112.333984375 70.833984375 91.0009765625 106.500976562 c 0
 69.66796875 142.16796875 59.0009765625 182.66796875 59.0009765625 228.000976562 c 2
 59.0009765625 690.000976562 l 1
 190.000976562 690.000976562 l 1
 190.000976562 232.000976562 l 2
 190.000976562 192.66796875 200.333984375 162.16796875 221.000976562 140.500976562 c 0
 241.66796875 118.833984375 270.000976562 108.000976562 306.000976562 108.000976562 c 0
 342.000976562 108.000976562 370.500976562 118.833984375 391.500976562 140.500976562 c 0
 412.500976562 162.16796875 423.000976562 192.66796875 423.000976562 232.000976562 c 2
 423.000976562 690.000976562 l 1
 555.000976562 690.000976562 l 1
 555.000976562 228.000976562 l 2
 555.000976562 182.66796875 544.16796875 142.16796875 522.500976562 106.500976562 c 0
 500.833984375 70.833984375 471.166992188 43.1669921875 433.500976562 23.5 c 0
 395.833984375 3.8330078125 353.333984375 -6 306.000976562 -6 c 0
 259.333984375 -6 217.166992188 3.8330078125 179.5 23.5 c 0
EndSplineSet
EndChar

StartChar: V
Encoding: 86 86 56
Width: 554
GlyphClass: 2
Flags: W
LayerCount: 2
Fore
SplineSet
4 690 m 1
 141 690 l 1
 277 213 l 1
 413 690 l 1
 550 690 l 1
 329 0 l 1
 224 0 l 1
 4 690 l 1
EndSplineSet
EndChar

StartChar: W
Encoding: 87 87 57
Width: 833
GlyphClass: 2
Flags: W
LayerCount: 2
Fore
SplineSet
829 690 m 1
 664 0 l 1
 544 0 l 1
 418 511 l 1
 293 0 l 1
 174 0 l 1
 4 690 l 1
 135 690 l 1
 239 203 l 1
 340 690 l 1
 503 690 l 1
 609 203 l 1
 707 690 l 1
 829 690 l 1
EndSplineSet
EndChar

StartChar: X
Encoding: 88 88 58
Width: 593
GlyphClass: 2
Flags: W
LayerCount: 2
Fore
SplineSet
219 359 m 1
 20 690 l 1
 175 690 l 1
 297 466 l 1
 417 690 l 1
 566 690 l 1
 371 364 l 1
 589 0 l 1
 433 0 l 1
 294 255 l 1
 153 0 l 1
 4 0 l 1
 219 359 l 1
EndSplineSet
EndChar

StartChar: Y
Encoding: 89 89 59
Width: 541
GlyphClass: 2
Flags: W
AnchorPoint: "Anchor-0" 270 690 basechar 0
LayerCount: 2
Fore
SplineSet
336 284 m 1
 336 0 l 1
 205 0 l 1
 205 283 l 1
 4 690 l 1
 147 690 l 1
 270 410 l 1
 393 690 l 1
 537 690 l 1
 336 284 l 1
EndSplineSet
EndChar

StartChar: Z
Encoding: 90 90 60
Width: 505
GlyphClass: 2
Flags: W
AnchorPoint: "Anchor-0" 252 690 basechar 0
LayerCount: 2
Fore
SplineSet
478 115 m 1
 478 0 l 1
 30 0 l 1
 30 115 l 1
 327 576 l 1
 36 576 l 1
 36 690 l 1
 469 690 l 1
 469 576 l 1
 173 115 l 1
 478 115 l 1
EndSplineSet
EndChar

StartChar: bracketleft
Encoding: 91 91 61
Width: 315
GlyphClass: 2
Flags: W
LayerCount: 2
Fore
SplineSet
59 741 m 1
 270 741 l 1
 270 626 l 1
 183 626 l 1
 183 31 l 1
 270 31 l 1
 270 -84 l 1
 59 -84 l 1
 59 741 l 1
EndSplineSet
EndChar

StartChar: backslash
Encoding: 92 92 62
Width: 405
GlyphClass: 2
Flags: W
LayerCount: 2
Fore
SplineSet
45 695 m 1
 148 695 l 1
 360 -10 l 1
 257 -10 l 1
 45 695 l 1
EndSplineSet
EndChar

StartChar: bracketright
Encoding: 93 93 63
Width: 316
GlyphClass: 2
Flags: W
LayerCount: 2
Fore
SplineSet
45 31 m 1
 133 31 l 1
 133 623 l 1
 45 623 l 1
 45 737 l 1
 257 737 l 1
 257 -84 l 1
 45 -84 l 1
 45 31 l 1
EndSplineSet
EndChar

StartChar: asciicircum
Encoding: 94 94 64
Width: 529
GlyphClass: 2
Flags: W
LayerCount: 2
Fore
SplineSet
212 695 m 1
 316 695 l 1
 486 271 l 1
 383 271 l 1
 264 575 l 1
 145 271 l 1
 42 271 l 1
 212 695 l 1
EndSplineSet
EndChar

StartChar: underscore
Encoding: 95 95 65
Width: 500
GlyphClass: 2
Flags: W
LayerCount: 2
Fore
SplineSet
0 -40 m 1
 500 -40 l 1
 500 -121 l 1
 0 -121 l 1
 0 -40 l 1
EndSplineSet
EndChar

StartChar: grave
Encoding: 96 96 66
Width: 500
GlyphClass: 2
Flags: W
LayerCount: 2
Fore
SplineSet
127 721 m 1
 264 721 l 1
 372 588 l 1
 265 588 l 1
 127 721 l 1
EndSplineSet
EndChar

StartChar: a
Encoding: 97 97 67
Width: 501
GlyphClass: 2
Flags: W
AnchorPoint: "Anchor-0" 242 520 basechar 0
LayerCount: 2
Fore
SplineSet
394 479.5 m 0
 429.333007812 448.5 446.997070312 402.666015625 446.997070312 341.999023438 c 2
 446.997070312 -0.0009765625 l 1
 326.997070312 -0.0009765625 l 1
 326.997070312 44.9990234375 l 1
 309.6640625 26.9990234375 291.831054688 13.9990234375 273.498046875 5.9990234375 c 0
 255.165039062 -2.0009765625 231.998046875 -6.0009765625 203.998046875 -6.0009765625 c 0
 150.665039062 -6.0009765625 109.33203125 8.33203125 79.9990234375 36.9990234375 c 0
 50.666015625 65.666015625 35.9990234375 105.333007812 35.9990234375 156 c 0
 35.9990234375 202.666992188 51.666015625 239.5 82.9990234375 266.5 c 0
 114.33203125 293.5 157.999023438 307 213.999023438 307 c 2
 323.999023438 307 l 1
 323.999023438 348 l 2
 323.999023438 403.333007812 296.33203125 431 240.999023438 431 c 0
 217.666015625 431 199.166015625 425.166992188 185.499023438 413.5 c 0
 171.83203125 401.833007812 164.999023438 386.333007812 164.999023438 367 c 2
 164.999023438 364 l 1
 49.9990234375 364 l 1
 49.9990234375 368 l 2
 49.9990234375 416.666992188 67.33203125 455.166992188 101.999023438 483.5 c 0
 136.666015625 511.833007812 183.333007812 526 242 526 c 0
 308 526 358.666992188 510.5 394 479.5 c 0
302.497070312 116.499023438 m 0
 316.830078125 131.499023438 323.997070312 154.33203125 323.997070312 184.999023438 c 2
 323.997070312 221.999023438 l 1
 233.997070312 221.999023438 l 2
 181.997070312 221.999023438 155.997070312 200.999023438 155.997070312 158.999023438 c 0
 155.997070312 115.666015625 181.330078125 93.9990234375 231.997070312 93.9990234375 c 0
 264.6640625 93.9990234375 288.1640625 101.499023438 302.497070312 116.499023438 c 0
EndSplineSet
Substitution2: "Single Substitution lookup 6 subtable" ordfeminine
Substitution2: "'aalt' Access All Alternates lookup 0 subtable" ordfeminine
EndChar

StartChar: b
Encoding: 98 98 68
Width: 515
GlyphClass: 2
Flags: W
LayerCount: 2
Fore
SplineSet
175 48 m 1
 174.999023438 0 l 1
 53.9990234375 0 l 1
 53.9990234375 690 l 1
 177.999023438 690 l 1
 177.999023438 467 l 1
 206.666015625 506.333007812 245.333007812 526 294 526 c 0
 346 526 388.333007812 508.333007812 421 473 c 0
 453.666992188 437.666992188 470 384 470 312 c 2
 470 209 l 2
 470 137 453.666992188 83.1669921875 421 47.5 c 0
 388.333007812 11.8330078125 347.333007812 -6 298 -6 c 0
 245.333007812 -6 204.333007812 12 175 48 c 1
345.999023438 213 m 2
 345.999023438 307 l 2
 345.999023438 345.666992188 338.499023438 373.5 323.499023438 390.5 c 0
 308.499023438 407.5 288.33203125 416 262.999023438 416 c 0
 236.33203125 416 215.33203125 406.666992188 199.999023438 388 c 0
 184.666015625 369.333007812 176.999023438 342.333007812 176.999023438 307 c 2
 176.999023438 213 l 2
 176.999023438 177.666992188 184.83203125 150.666992188 200.499023438 132 c 0
 216.166015625 113.333007812 237.999023438 104 265.999023438 104 c 0
 319.33203125 104 345.999023438 140.333007812 345.999023438 213 c 2
EndSplineSet
EndChar

StartChar: c
Encoding: 99 99 69
Width: 505
GlyphClass: 2
Flags: W
LayerCount: 2
Fore
SplineSet
101.5 47 m 0
 63.8330078125 82.3330078125 45 137.333007812 45 212 c 2
 45 309 l 2
 45 383 63.8330078125 437.666992188 101.5 473 c 0
 139.166992188 508.333007812 190.666992188 526 256 526 c 0
 320 526 370 509.666992188 406 477 c 0
 442 444.333007812 460 399 460 341 c 2
 460 331 l 1
 342 331 l 1
 342 337 l 2
 342 361.666992188 334.5 381 319.5 395 c 0
 304.5 409 284 416 258 416 c 0
 198 416 168 379.666992188 168 307 c 2
 168 213 l 2
 168 173.666992188 175.833007812 145.666992188 191.5 129 c 0
 207.166992188 112.333007812 229.333984375 104 258 104 c 0
 284 104 304.5 110.666992188 319.5 124 c 0
 334.5 137.333007812 342 156 342 180 c 2
 342 186 l 1
 460 186 l 1
 460 179 l 2
 460 121.666992188 442 76.5 406 43.5 c 0
 370 10.5 320 -6 256 -6 c 0
 190.666992188 -6 139.166992188 11.6669921875 101.5 47 c 0
EndSplineSet
EndChar

StartChar: d
Encoding: 100 100 70
Width: 514
GlyphClass: 2
Flags: W
LayerCount: 2
Fore
SplineSet
93.5 47.5 m 0
 61.1669921875 83.1669921875 45 137 45 209 c 2
 45 312 l 2
 45 384 60.8330078125 437.666992188 92.5 473 c 0
 124.166992188 508.333007812 165.333984375 526 216.000976562 526 c 0
 268.000976562 526 308.333984375 506.333007812 337.000976562 467 c 1
 337.000976562 690 l 1
 460.000976562 690 l 1
 460.000976562 0 l 1
 339.000976562 0 l 1
 339.000976562 48 l 1
 310.333984375 12 269.666992188 -6 217 -6 c 0
 167 -6 125.833007812 11.8330078125 93.5 47.5 c 0
314 132 m 0
 329.333007812 150.666992188 337 177.666992188 337 213 c 2
 337 307 l 2
 337 342.333007812 329.5 369.333007812 314.5 388 c 0
 299.5 406.666992188 278.666992188 416 252 416 c 0
 196.666992188 416 169 379.666992188 169 307 c 2
 169 213 l 2
 169 140.333007812 195.666992188 104 249 104 c 0
 277 104 298.666992188 113.333007812 314 132 c 0
EndSplineSet
EndChar

StartChar: e
Encoding: 101 101 71
Width: 517
GlyphClass: 2
Flags: W
AnchorPoint: "Anchor-0" 258 520 basechar 0
LayerCount: 2
Fore
SplineSet
168 223 m 1
 168 209 l 2
 168 170.333007812 176.666992188 142.666015625 194 125.999023438 c 0
 211.333007812 109.33203125 236 100.999023438 268 100.999023438 c 0
 292.666992188 100.999023438 312 106.166015625 326 116.499023438 c 0
 340 126.83203125 347.666992188 141.33203125 349 159.999023438 c 1
 350 162.999023438 l 1
 468 162.999023438 l 1
 468 157.999023438 l 2
 468 108.666015625 449.666992188 68.9990234375 413 38.9990234375 c 0
 376.333007812 8.9990234375 326.333007812 -6.0009765625 263 -6.0009765625 c 0
 196.333007812 -6.0009765625 143.333007812 13.166015625 104 51.4990234375 c 0
 64.6669921875 89.83203125 45 148.999023438 45 228.999023438 c 2
 45 291.999023438 l 2
 45 369.999023438 64 428.499023438 102 467.499023438 c 0
 140 506.499023438 192.333007812 525.999023438 259 525.999023438 c 0
 324.333984375 525.999023438 376.166992188 506.33203125 414.5 466.999023438 c 0
 452.833007812 427.666015625 472 369.333007812 472 292 c 2
 472 223 l 1
 168 223 l 1
191.5 395 m 0
 175.833007812 378.333007812 168 350.333007812 168 311 c 2
 168 308 l 1
 348 308 l 1
 348 321 l 2
 348 387 318.333007812 420 259 420 c 0
 229.666992188 420 207.166992188 411.666992188 191.5 395 c 0
EndSplineSet
EndChar

StartChar: f
Encoding: 102 102 72
Width: 334
GlyphClass: 2
Flags: W
LayerCount: 2
Fore
SplineSet
226.5 593.5 m 0
 218.166992188 585.166992188 214 572.666992188 214 556 c 2
 214 520 l 1
 307 520 l 1
 307 433 l 1
 214 433 l 1
 214 0 l 1
 91 0 l 1
 91 433 l 1
 36 433 l 1
 36 520 l 1
 91 520 l 1
 91 551 l 2
 91 595 103.5 629.166992188 128.5 653.5 c 0
 153.5 677.833007812 189 690 235 690 c 2
 307 690 l 1
 307 606 l 1
 266 606 l 2
 248 606 234.833007812 601.833007812 226.5 593.5 c 0
EndSplineSet
EndChar

StartChar: g
Encoding: 103 103 73
Width: 514
GlyphClass: 2
Flags: W
LayerCount: 2
Fore
SplineSet
107.5 -124 m 0
 73.8330078125 -97.3330078125 55.3359375 -60.3330078125 52.0029296875 -13 c 1
 171.002929688 -13 l 1
 174.3359375 -29 183.168945312 -41.8330078125 197.501953125 -51.5 c 0
 211.834960938 -61.1669921875 230.66796875 -66 254.000976562 -66 c 0
 310.66796875 -66 339.000976562 -34 339.000976562 30 c 2
 339.000976562 94 l 1
 310.333984375 58 269.666992188 40 217 40 c 0
 167 40 125.833007812 57.8330078125 93.5 93.5 c 0
 61.1669921875 129.166992188 45 183 45 255 c 2
 45 312 l 2
 45 384 60.8330078125 437.666992188 92.5 473 c 0
 124.166992188 508.333007812 165.333984375 526 216.000976562 526 c 0
 268.000976562 526 308.333984375 506.333007812 337.000976562 467 c 1
 337.000976562 520 l 1
 460.000976562 520 l 1
 460.000976562 38 l 2
 460.000976562 -24 441.333984375 -73.1669921875 404.000976562 -109.5 c 0
 366.66796875 -145.833007812 315.000976562 -164 249.000976562 -164 c 0
 188.333984375 -164 141.166992188 -150.666992188 107.5 -124 c 0
314.002929688 178 m 0
 329.3359375 196.666992188 337.002929688 223.666992188 337.002929688 259 c 2
 337.002929688 307 l 2
 337.002929688 342.333007812 329.502929688 369.333007812 314.502929688 388 c 0
 299.502929688 406.666992188 278.669921875 416 252.002929688 416 c 0
 196.669921875 416 169.002929688 379.666992188 169.002929688 307 c 2
 169.002929688 259 l 2
 169.002929688 186.333007812 195.669921875 150 249.002929688 150 c 0
 277.002929688 150 298.669921875 159.333007812 314.002929688 178 c 0
EndSplineSet
EndChar

StartChar: h
Encoding: 104 104 74
Width: 520
GlyphClass: 2
Flags: W
LayerCount: 2
Fore
SplineSet
54 690 m 1
 178 690 l 1
 178 474 l 1
 193.333007812 491.333007812 211.333007812 504.333007812 232 513 c 0
 252.666992188 521.666992188 274.666992188 526 298 526 c 0
 351.333984375 526 392.666992188 509.5 422 476.5 c 0
 451.333007812 443.5 466 397.666992188 466 339 c 2
 466 0 l 1
 342 0 l 1
 342 324 l 2
 342 354 334.666992188 376.833007812 320 392.5 c 0
 305.333007812 408.166992188 285.666015625 416 261 416 c 0
 237 416 217.166992188 408 201.5 392 c 0
 185.833007812 376 178 353.333007812 178 324 c 2
 178 0 l 1
 54 0 l 1
 54 690 l 1
EndSplineSet
EndChar

StartChar: i
Encoding: 105 105 75
Width: 241
GlyphClass: 2
Flags: W
AnchorPoint: "Anchor-0" 120 520 basechar 0
LayerCount: 2
Fore
SplineSet
59 520 m 1
 182 520 l 1
 182 0 l 1
 59 0 l 1
 59 520 l 1
57 690 m 1
 183 690 l 1
 183 591 l 1
 57 591 l 1
 57 690 l 1
EndSplineSet
EndChar

StartChar: j
Encoding: 106 106 76
Width: 241
GlyphClass: 2
Flags: W
LayerCount: 2
Fore
SplineSet
56 690 m 1
 182 690 l 1
 182 591 l 1
 56 591 l 1
 56 690 l 1
-33 -49 m 1
 9 -49 l 2
 26.3330078125 -49 39 -44.3330078125 47 -35 c 0
 55 -25.6669921875 59 -10.6669921875 59 10 c 2
 59 520 l 1
 182 520 l 1
 182 2 l 2
 182 -48.6669921875 168.333007812 -87.6669921875 141 -115 c 0
 113.666992188 -142.333007812 75 -156 25 -156 c 2
 -33 -156 l 1
 -33 -49 l 1
EndSplineSet
EndChar

StartChar: k
Encoding: 107 107 77
Width: 520
GlyphClass: 2
Flags: W
LayerCount: 2
Fore
SplineSet
233 218 m 1
 178 154 l 1
 178 0 l 1
 54 0 l 1
 54 690 l 1
 178 690 l 1
 178 304 l 1
 346 520 l 1
 493 520 l 1
 315 313 l 1
 506 0 l 1
 356 0 l 1
 233 218 l 1
EndSplineSet
EndChar

StartChar: l
Encoding: 108 108 78
Width: 287
GlyphClass: 2
Flags: W
LayerCount: 2
Fore
SplineSet
95.5 41 m 0
 67.8330078125 68.3330078125 54 107.333007812 54 158 c 2
 54 690 l 1
 178 690 l 1
 178 166 l 2
 178 144.666992188 181.833007812 129.5 189.5 120.5 c 0
 197.166992188 111.5 209.666992188 107 227 107 c 2
 269 107 l 1
 269 0 l 1
 212 0 l 2
 162 0 123.166992188 13.6669921875 95.5 41 c 0
EndSplineSet
EndChar

StartChar: m
Encoding: 109 109 79
Width: 808
GlyphClass: 2
Flags: W
LayerCount: 2
Fore
SplineSet
54 520 m 1
 175 520 l 1
 175 473 l 1
 190.333007812 489.666992188 208.833007812 502.666992188 230.5 512 c 0
 252.166992188 521.333007812 274.666992188 526 298 526 c 0
 356 526 400.333007812 504.333007812 431 461 c 1
 471 504.333007812 520 526 578 526 c 0
 633.333007812 526 676.5 509.333007812 707.5 476 c 0
 738.5 442.666992188 754 397 754 339 c 2
 754 0 l 1
 630 0 l 1
 630 324 l 2
 630 354 622.5 376.833007812 607.5 392.5 c 0
 592.5 408.166992188 573 416 549 416 c 0
 523.666015625 416 503.499023438 407.833007812 488.5 391.5 c 0
 473.5 375.166992188 466 353.666992188 466 327 c 2
 466 0 l 1
 342 0 l 1
 342 324 l 2
 342 354 334.5 376.833007812 319.5 392.5 c 0
 304.5 408.166992188 285 416 261 416 c 0
 236.333007812 416 216.333007812 408 201 392 c 0
 185.666992188 376 178 353.333007812 178 324 c 2
 178 0 l 1
 54 0 l 1
 54 520 l 1
EndSplineSet
EndChar

StartChar: n
Encoding: 110 110 80
Width: 520
GlyphClass: 2
Flags: W
AnchorPoint: "Anchor-0" 260 520 basechar 0
LayerCount: 2
Fore
SplineSet
54 520 m 1
 175 520 l 1
 175 473 l 1
 190.333007812 490.333007812 208.833007812 503.5 230.5 512.5 c 0
 252.166992188 521.5 274.666992188 526 298 526 c 0
 351.333984375 526 392.666992188 509.333007812 422 476 c 0
 451.333007812 442.666992188 466 397 466 339 c 2
 466 0 l 1
 342 0 l 1
 342 324 l 2
 342 353.333007812 334.666992188 376 320 392 c 0
 305.333007812 408 285.666015625 416 261 416 c 0
 237 416 217.166992188 408 201.5 392 c 0
 185.833007812 376 178 353.333007812 178 324 c 2
 178 0 l 1
 54 0 l 1
 54 520 l 1
EndSplineSet
EndChar

StartChar: o
Encoding: 111 111 81
Width: 510
GlyphClass: 2
Flags: W
AnchorPoint: "Anchor-0" 256 520 basechar 0
LayerCount: 2
Fore
SplineSet
101.5 47 m 0
 63.8330078125 82.3330078125 45 137.333007812 45 212 c 2
 45 309 l 2
 45 383 63.8330078125 437.666992188 101.5 473 c 0
 139.166992188 508.333007812 190.666992188 526 256 526 c 0
 320.666992188 526 371.666992188 508.333007812 409 473 c 0
 446.333007812 437.666992188 465 383 465 309 c 2
 465 212 l 2
 465 137.333007812 446.333007812 82.3330078125 409 47 c 0
 371.666992188 11.6669921875 320.666992188 -6 256 -6 c 0
 190.666992188 -6 139.166992188 11.6669921875 101.5 47 c 0
342 213 m 2
 342 307 l 2
 342 379.666992188 313.333007812 416 256 416 c 0
 197.333007812 416 168 379.666992188 168 307 c 2
 168 213 l 2
 168 140.333007812 197.333007812 104 256 104 c 0
 313.333007812 104 342 140.333007812 342 213 c 2
EndSplineSet
Substitution2: "Single Substitution lookup 6 subtable" ordmasculine
Substitution2: "'aalt' Access All Alternates lookup 0 subtable" ordmasculine
EndChar

StartChar: p
Encoding: 112 112 82
Width: 515
GlyphClass: 2
Flags: W
LayerCount: 2
Fore
SplineSet
54 520 m 1
 174.999023438 520 l 1
 174.999023438 467 l 1
 205.666015625 506.333007812 245.333007812 526 294 526 c 0
 346 526 388.333007812 508.333007812 421 473 c 0
 453.666992188 437.666992188 470 384 470 312 c 2
 470 209 l 2
 470 137 453.666992188 83.1669921875 421 47.5 c 0
 388.333007812 11.8330078125 347.333007812 -6 298 -6 c 0
 246.666992188 -6 206.666992188 11.6669921875 178 47 c 1
 178 -156 l 1
 54 -156 l 1
 54 520 l 1
345.999023438 213 m 2
 345.999023438 307 l 2
 345.999023438 345.666992188 338.499023438 373.5 323.499023438 390.5 c 0
 308.499023438 407.5 288.33203125 416 262.999023438 416 c 0
 236.33203125 416 215.33203125 406.666992188 199.999023438 388 c 0
 184.666015625 369.333007812 176.999023438 342.333007812 176.999023438 307 c 2
 176.999023438 213 l 2
 176.999023438 177.666992188 184.83203125 150.666992188 200.499023438 132 c 0
 216.166015625 113.333007812 237.999023438 104 265.999023438 104 c 0
 319.33203125 104 345.999023438 140.333007812 345.999023438 213 c 2
EndSplineSet
EndChar

StartChar: q
Encoding: 113 113 83
Width: 514
GlyphClass: 2
Flags: W
LayerCount: 2
Fore
SplineSet
337 47 m 1
 308.333007812 11.6669921875 268.333007812 -6 217 -6 c 0
 167 -6 125.833007812 11.8330078125 93.5 47.5 c 0
 61.1669921875 83.1669921875 45 137 45 209 c 2
 45 312 l 2
 45 384 61.1669921875 437.666992188 93.5 473 c 0
 125.833007812 508.333007812 168 526 220 526 c 0
 270 526 309.666992188 506.333007812 339 467 c 1
 339 520 l 1
 460 520 l 1
 460 -156 l 1
 337 -156 l 1
 337 47 l 1
314 132 m 0
 329.333007812 150.666992188 337 177.666992188 337 213 c 2
 337 307 l 2
 337 342.333007812 329.5 369.333007812 314.5 388 c 0
 299.5 406.666992188 278.666992188 416 252 416 c 0
 196.666992188 416 169 379.666992188 169 307 c 2
 169 213 l 2
 169 140.333007812 195.666992188 104 249 104 c 0
 277 104 298.666992188 113.333007812 314 132 c 0
EndSplineSet
EndChar

StartChar: r
Encoding: 114 114 84
Width: 358
GlyphClass: 2
Flags: W
LayerCount: 2
Fore
SplineSet
54 520 m 1
 175 520 l 1
 175 466 l 1
 187.666992188 488 204.666992188 504.333007812 226 515 c 0
 247.333007812 525.666992188 271.333007812 531 298 531 c 0
 313.333007812 531 327.333007812 529.666992188 340 527 c 1
 340 411 l 1
 316.666992188 418.333007812 296 422 278 422 c 0
 248 422 223.833007812 412.5 205.5 393.5 c 0
 187.166992188 374.5 178 347.333007812 178 312 c 2
 178 0 l 1
 54 0 l 1
 54 520 l 1
EndSplineSet
EndChar

StartChar: s
Encoding: 115 115 85
Width: 474
GlyphClass: 2
Flags: W
AnchorPoint: "Anchor-0" 237 520 basechar 0
LayerCount: 2
Fore
SplineSet
90 37.5 m 0
 54 66.5 35.9990234375 105.333007812 35.9990234375 154 c 2
 35.9990234375 158 l 1
 151.999023438 158 l 1
 151.999023438 156 l 2
 151.999023438 136.666992188 159.83203125 121.5 175.499023438 110.5 c 0
 191.166015625 99.5 211.666015625 94 236.999023438 94 c 0
 264.333007812 94 285.666015625 98.8330078125 300.999023438 108.5 c 0
 316.33203125 118.166992188 323.999023438 132.666992188 323.999023438 152 c 0
 323.999023438 168 318.33203125 180.333007812 306.999023438 189 c 0
 295.666015625 197.666992188 276.666015625 204 249.999023438 208 c 2
 194.999023438 217 l 2
 142.999023438 225.666992188 104.666015625 241.666992188 79.9990234375 265 c 0
 55.33203125 288.333984375 42.9990234375 321.666992188 42.9990234375 365 c 0
 42.9990234375 414.333007812 61.166015625 453.5 97.4990234375 482.5 c 0
 133.83203125 511.5 180.33203125 526 236.999023438 526 c 0
 275.666015625 526 309.833007812 519.5 339.5 506.5 c 0
 369.166992188 493.5 392.166992188 475.5 408.5 452.5 c 0
 424.833007812 429.5 433 403.666992188 433 375 c 2
 433 369 l 1
 318 369 l 1
 318 372 l 2
 318 390 310.833007812 404 296.5 414 c 0
 282.166992188 424 262.333984375 429 237.000976562 429 c 0
 211.666992188 429 192.333984375 424 179.000976562 414 c 0
 165.66796875 404 159.000976562 390.666992188 159.000976562 374 c 0
 159.000976562 358.666992188 164.16796875 346.666992188 174.500976562 338 c 0
 184.833984375 329.333007812 201.666992188 323.333007812 225 320 c 2
 286 311 l 2
 338 303.666992188 377 287.666992188 403 263 c 0
 429 238.333007812 442 204.333007812 442 161 c 0
 442 107.666992188 422.666992188 66.5 384 37.5 c 0
 345.333007812 8.5 295 -6 233 -6 c 0
 173.666992188 -6 126 8.5 90 37.5 c 0
EndSplineSet
EndChar

StartChar: t
Encoding: 116 116 86
Width: 352
GlyphClass: 2
Flags: W
LayerCount: 2
Fore
SplineSet
220 433 m 1
 220 158 l 2
 220 122.666992188 237 105 271 105 c 2
 310 105 l 1
 310 0 l 1
 251 0 l 2
 203.666992188 0 166.166992188 13.5 138.5 40.5 c 0
 110.833007812 67.5 97 104 97 150 c 2
 97 433 l 1
 25 433 l 1
 25 520 l 1
 97 520 l 1
 97 622 l 1
 220 665 l 1
 220 520 l 1
 320 520 l 1
 320 433 l 1
 220 433 l 1
EndSplineSet
EndChar

StartChar: u
Encoding: 117 117 87
Width: 520
GlyphClass: 2
Flags: W
AnchorPoint: "Anchor-0" 260 520 basechar 0
LayerCount: 2
Fore
SplineSet
54 210 m 2
 54 520 l 1
 178 520 l 1
 178 216 l 2
 178 179.333007812 183.5 151.5 194.5 132.5 c 0
 205.5 113.5 227.333007812 104 260 104 c 0
 292.666992188 104 314.5 113 325.5 131 c 0
 336.5 149 342 177.333007812 342 216 c 2
 342 520 l 1
 466 520 l 1
 466 210 l 2
 466 138 449 84 415 48 c 0
 381 12 329.333007812 -6 260 -6 c 0
 122.666992188 -6 54 66 54 210 c 2
EndSplineSet
EndChar

StartChar: v
Encoding: 118 118 88
Width: 481
GlyphClass: 2
Flags: W
LayerCount: 2
Fore
SplineSet
9 520 m 1
 140 520 l 1
 241 190 l 1
 341 520 l 1
 472 520 l 1
 291 0 l 1
 189 0 l 1
 9 520 l 1
EndSplineSet
EndChar

StartChar: w
Encoding: 119 119 89
Width: 736
GlyphClass: 2
Flags: W
LayerCount: 2
Fore
SplineSet
9 520 m 1
 140 520 l 1
 221 190 l 1
 321 520 l 1
 414 520 l 1
 514 190 l 1
 595 520 l 1
 727 520 l 1
 574 0 l 1
 469 0 l 1
 367 337 l 1
 266 0 l 1
 161 0 l 1
 9 520 l 1
EndSplineSet
EndChar

StartChar: x
Encoding: 120 120 90
Width: 459
GlyphClass: 2
Flags: W
LayerCount: 2
Fore
SplineSet
321 0 m 1
 225 164 l 1
 139 0 l 1
 9 0 l 1
 165 268 l 1
 18 520 l 1
 148 520 l 1
 234 372 l 1
 311 520 l 1
 441 520 l 1
 292 272 l 1
 450 0 l 1
 321 0 l 1
EndSplineSet
EndChar

StartChar: y
Encoding: 121 121 91
Width: 482
GlyphClass: 2
Flags: W
AnchorPoint: "Anchor-0" 241 520 basechar 0
LayerCount: 2
Fore
SplineSet
473 520 m 1
 276 -45 l 2
 262.666992188 -83 243.5 -110.666992188 218.5 -128 c 0
 193.5 -145.333007812 160.333007812 -154 119 -154 c 2
 76 -154 l 1
 76 -43 l 1
 115 -43 l 2
 135 -43 149.833007812 -39.5 159.5 -32.5 c 0
 169.166992188 -25.5 177 -12.3330078125 183 7 c 2
 185 14 l 1
 9 520 l 1
 140 520 l 1
 242 193 l 1
 346 520 l 1
 473 520 l 1
EndSplineSet
EndChar

StartChar: z
Encoding: 122 122 92
Width: 455
GlyphClass: 2
Flags: W
AnchorPoint: "Anchor-0" 227 520 basechar 0
LayerCount: 2
Fore
SplineSet
410 416 m 1
 180 104 l 1
 410 104 l 1
 410 0 l 1
 45 0 l 1
 45 104 l 1
 275 416 l 1
 45 416 l 1
 45 520 l 1
 410 520 l 1
 410 416 l 1
EndSplineSet
EndChar

StartChar: braceleft
Encoding: 123 123 93
Width: 360
GlyphClass: 2
Flags: W
LayerCount: 2
Fore
SplineSet
153 -52.5 m 0
 131.666992188 -31.5 121 -1 121 39 c 2
 121 197 l 2
 121 225 115.333007812 245.333007812 104 258 c 0
 92.6669921875 270.666992188 73 277 45 277 c 1
 45 383 l 1
 73 383 92.6669921875 389.333007812 104 402 c 0
 115.333007812 414.666992188 121 435 121 463 c 2
 121 618 l 2
 121 657.333007812 131.666992188 687.5 153 708.5 c 0
 174.333007812 729.5 205 740 245 740 c 2
 315 740 l 1
 315 640 l 1
 280 640 l 2
 252 640 238 625.333007812 238 596 c 2
 238 457 l 2
 238 419 232.833007812 390.5 222.5 371.5 c 0
 212.166992188 352.5 193.666992188 338.666992188 167 330 c 1
 193.666992188 320.666992188 212.166992188 306.666992188 222.5 288 c 0
 232.833007812 269.333007812 238 241 238 203 c 2
 238 60 l 2
 238 30.6669921875 252 16 280 16 c 2
 315 16 l 1
 315 -84 l 1
 245 -84 l 2
 205 -84 174.333007812 -73.5 153 -52.5 c 0
EndSplineSet
EndChar

StartChar: bar
Encoding: 124 124 94
Width: 295
GlyphClass: 2
Flags: W
LayerCount: 2
Fore
SplineSet
90 740 m 1
 205 740 l 1
 205 -84 l 1
 90 -84 l 1
 90 740 l 1
EndSplineSet
EndChar

StartChar: braceright
Encoding: 125 125 95
Width: 360
GlyphClass: 2
Flags: W
LayerCount: 2
Fore
SplineSet
45 16 m 1
 80.0009765625 16 l 2
 108.66796875 16 123.000976562 30.6669921875 123.000976562 60 c 2
 123.000976562 203 l 2
 123.000976562 241 128.16796875 269.333007812 138.500976562 288 c 0
 148.833984375 306.666992188 167.333984375 320.666992188 194.000976562 330 c 1
 167.333984375 338.666992188 148.833984375 352.5 138.500976562 371.5 c 0
 128.166992188 390.5 123 419 123 457 c 2
 123 596 l 2
 123 625.333007812 108.666992188 640 80 640 c 2
 45 640 l 1
 45 740 l 1
 116 740 l 2
 156 740 186.5 729.5 207.5 708.5 c 0
 228.5 687.5 239 657.333007812 239 618 c 2
 239 463 l 2
 239 435 244.833007812 414.666992188 256.5 402 c 0
 268.166992188 389.333007812 287.666992188 383 315 383 c 1
 315 277 l 1
 287.666992188 277 268.166992188 270.666992188 256.5 258 c 0
 244.833007812 245.333007812 239 225 239 197 c 2
 239 39 l 2
 239 -1 228.5 -31.5 207.5 -52.5 c 0
 186.5 -73.5 156 -84 116 -84 c 2
 45 -84 l 1
 45 16 l 1
EndSplineSet
EndChar

StartChar: asciitilde
Encoding: 126 126 96
Width: 529
GlyphClass: 2
Flags: W
LayerCount: 2
Fore
SplineSet
299.5 203.5 m 0
 285.166992188 209.166992188 268.999023438 217.333007812 250.999023438 227.999023438 c 0
 234.999023438 236.666015625 222.666015625 242.833007812 213.999023438 246.5 c 0
 205.33203125 250.166992188 196.33203125 252 186.999023438 252 c 0
 172.999023438 252 160.83203125 247.666992188 150.499023438 239 c 0
 140.166015625 230.333007812 129.666015625 216 118.999023438 196 c 1
 38.9990234375 245 l 1
 54.9990234375 280.333007812 75.33203125 307.333007812 99.9990234375 326 c 0
 124.666015625 344.666992188 151.999023438 354 181.999023438 354 c 0
 199.33203125 354 214.999023438 351.333007812 228.999023438 346 c 0
 242.999023438 340.666992188 259.33203125 332.666992188 277.999023438 322 c 0
 292.666015625 314 304.666015625 308 313.999023438 304 c 0
 323.33203125 300 332.999023438 298 342.999023438 298 c 0
 357.666015625 298 370.166015625 302.333007812 380.499023438 311 c 0
 390.83203125 319.666992188 400.999023438 334 410.999023438 354 c 1
 490.999023438 305 l 1
 475.666015625 269.666992188 455.499023438 242.5 430.499023438 223.5 c 0
 405.499023438 204.5 377.666015625 195 346.999023438 195 c 0
 329.666015625 195 313.833007812 197.833007812 299.5 203.5 c 0
EndSplineSet
EndChar

StartChar: exclamdown
Encoding: 161 161 98
Width: 249
GlyphClass: 2
Flags: W
LayerCount: 2
Fore
SplineSet
58 520 m 1
 191 520 l 1
 191 389 l 1
 58 389 l 1
 58 520 l 1
78 290 m 1
 171 290 l 1
 195 -156 l 1
 54 -156 l 1
 78 290 l 1
EndSplineSet
EndChar

StartChar: cent
Encoding: 162 162 99
Width: 547
GlyphClass: 2
Flags: W
LayerCount: 2
Fore
SplineSet
342 331 m 1
 342 337.00390625 l 2
 342 361.670898438 334.5 381.00390625 319.5 395.00390625 c 0
 304.5 409.00390625 284 416.00390625 258 416.00390625 c 0
 198 416.00390625 168 379.670898438 168 307.00390625 c 2
 168 213.00390625 l 2
 168 173.670898438 175.833007812 145.670898438 191.5 129.00390625 c 0
 207.166992188 112.336914062 229.333984375 104.00390625 258 104.00390625 c 0
 284 104.00390625 304.5 110.670898438 319.5 124.00390625 c 0
 334.5 137.336914062 342 156.00390625 342 180.00390625 c 2
 342 186.00390625 l 1
 460 186.00390625 l 1
 460 179.00390625 l 2
 460 130.336914062 446.666992188 90.169921875 420 58.5029296875 c 0
 393.333007812 26.8359375 356 6.6689453125 308 -1.998046875 c 1
 308 -99.998046875 l 1
 249 -99.998046875 l 1
 249 -5.998046875 l 1
 185.666992188 -4.6650390625 135.833984375 13.66796875 99.5009765625 49.0009765625 c 0
 63.16796875 84.333984375 45.0009765625 138.666992188 45.0009765625 212 c 2
 45.0009765625 309 l 2
 45.0009765625 381.666992188 63.16796875 435.666992188 99.5009765625 471 c 0
 135.833984375 506.333007812 185.666992188 524.666015625 249 525.999023438 c 1
 249 634.999023438 l 1
 308 634.999023438 l 1
 308 521.999023438 l 1
 356.666992188 513.33203125 394.166992188 493.33203125 420.5 461.999023438 c 0
 446.833007812 430.666015625 460 390.333007812 460 341 c 2
 460 331 l 1
 342 331 l 1
EndSplineSet
EndChar

StartChar: sterling
Encoding: 163 163 100
Width: 466
GlyphClass: 2
Flags: W
LayerCount: 2
Fore
SplineSet
187 113 m 1
 441 113.000976562 l 1
 441 0.0009765625 l 1
 43 0.0009765625 l 1
 43 108.000976562 l 1
 59 115.333984375 70.3330078125 126.000976562 77 140.000976562 c 0
 83.6669921875 154.000976562 87 174.333984375 87 201.000976562 c 2
 87 276.000976562 l 1
 25 276.000976562 l 1
 25 390.000976562 l 1
 87 390.000976562 l 1
 87 512.000976562 l 2
 87 572.000976562 102.666992188 618.333984375 134 651.000976562 c 0
 165.333007812 683.66796875 210 700.000976562 268 700.000976562 c 0
 321.333007812 700.000976562 363.5 685.66796875 394.5 657.000976562 c 0
 425.5 628.333984375 441 587.333984375 441 534.000976562 c 1
 319 534.000976562 l 1
 319 551.333984375 314.666992188 564.833984375 306 574.500976562 c 0
 297.333007812 584.16796875 285.333007812 589.000976562 270 589.000976562 c 0
 253.333007812 589.000976562 240.5 583.500976562 231.5 572.500976562 c 0
 222.5 561.500976562 218 546.333984375 218 527.000976562 c 2
 218 390.000976562 l 1
 348 390.000976562 l 1
 348 276.000976562 l 1
 218 276.000976562 l 1
 218 214.000976562 l 2
 218 169.333984375 207.666992188 135.666992188 187 113 c 1
EndSplineSet
EndChar

StartChar: currency
Encoding: 164 164 101
Width: 595
GlyphClass: 2
Flags: W
LayerCount: 2
Fore
SplineSet
402 140 m 1
 370.666992188 121.333007812 335.666992188 112 297 112 c 0
 258.333007812 112 223.333007812 121.333007812 192 140 c 1
 127 75 l 1
 54 148 l 1
 120 214 l 1
 102.666992188 243.333007812 94 277.333007812 94 316 c 0
 94 352 103 386 121 418 c 1
 54 485 l 1
 127 558 l 1
 193 492 l 1
 225 510 259.666992188 519 297 519 c 0
 334.333007812 519 369 510 401 492 c 1
 468 558 l 1
 540 485 l 1
 474 418 l 1
 492 386 501 352 501 316 c 0
 501 278 492.333007812 243.666992188 475 213 c 1
 541 147 l 1
 468 74 l 1
 402 140 l 1
371 240.5 m 0
 390.333007812 260.833007812 400 286 400 316 c 0
 400 346 390.333007812 371 371 391 c 0
 351.666992188 411 327 421 297 421 c 0
 267.666992188 421 243.333984375 411 224.000976562 391 c 0
 204.66796875 371 195.000976562 346 195.000976562 316 c 0
 195.000976562 286 204.66796875 260.833007812 224.000976562 240.5 c 0
 243.333984375 220.166992188 267.666992188 210 297 210 c 0
 327 210 351.666992188 220.166992188 371 240.5 c 0
EndSplineSet
EndChar

StartChar: yen
Encoding: 165 165 102
Width: 497
GlyphClass: 2
Flags: W
LayerCount: 2
Fore
SplineSet
183 117 m 1
 54 117 l 1
 54 205 l 1
 183 205 l 1
 183 260 l 1
 54 260 l 1
 54 348 l 1
 162 348 l 1
 7 690 l 1
 142 690 l 1
 251 413 l 1
 356 690 l 1
 490 690 l 1
 335 348 l 1
 443 348 l 1
 443 260 l 1
 314 260 l 1
 314 205 l 1
 443 205 l 1
 443 117 l 1
 314 117 l 1
 314 0 l 1
 183 0 l 1
 183 117 l 1
EndSplineSet
EndChar

StartChar: brokenbar
Encoding: 166 166 103
Width: 295
GlyphClass: 2
Flags: W
LayerCount: 2
Fore
SplineSet
90 740 m 1
 205 740 l 1
 205 388 l 1
 90 388 l 1
 90 740 l 1
90 270 m 1
 205 270 l 1
 205 -84 l 1
 90 -84 l 1
 90 270 l 1
EndSplineSet
EndChar

StartChar: section
Encoding: 167 167 104
Width: 511
GlyphClass: 2
Flags: W
LayerCount: 2
Fore
SplineSet
119 -123 m 0
 88.3330078125 -93 73 -50.66796875 73 3.9990234375 c 1
 186 3.9990234375 l 1
 186 -42.66796875 207.333007812 -66.0009765625 250 -66.0009765625 c 0
 270.666992188 -66.0009765625 286.333984375 -60.66796875 297.000976562 -50.0009765625 c 0
 307.66796875 -39.333984375 313.000976562 -25.0009765625 313.000976562 -7.0009765625 c 0
 313.000976562 16.9990234375 305.500976562 35.666015625 290.500976562 48.9990234375 c 0
 275.500976562 62.33203125 247.333984375 74.6650390625 206.000976562 85.998046875 c 0
 156.000976562 99.998046875 119.000976562 122.498046875 95.0009765625 153.498046875 c 0
 71.0009765625 184.498046875 59.0009765625 224.998046875 59.0009765625 274.998046875 c 0
 59.0009765625 309.665039062 66.66796875 340.33203125 82.0009765625 366.999023438 c 0
 97.333984375 393.666015625 118.666992188 414.333007812 146 429 c 1
 122.666992188 442.333984375 106 459.666992188 96 480.999023438 c 0
 86 502.333007812 81 527.333007812 81 555.999023438 c 0
 81 585.999023438 88.3330078125 613.166015625 103 637.499023438 c 0
 117.666992188 661.83203125 138.333984375 680.999023438 165.000976562 694.999023438 c 0
 191.66796875 708.999023438 222.66796875 715.999023438 258.000976562 715.999023438 c 0
 316.000976562 715.999023438 359.833984375 700.666015625 389.500976562 669.999023438 c 0
 419.16796875 639.33203125 434.000976562 597.665039062 434.000976562 544.998046875 c 1
 322.000976562 544.998046875 l 1
 322.000976562 590.998046875 301.333984375 613.998046875 260.000976562 613.998046875 c 0
 241.333984375 613.998046875 226.666992188 608.665039062 216 597.998046875 c 0
 205.333007812 587.331054688 200 572.998046875 200 554.998046875 c 0
 200 531.663085938 207.5 513.830078125 222.5 501.499023438 c 0
 237.5 489.166015625 265 477.333007812 305 466 c 0
 355 452 392 429.5 416 398.5 c 0
 440 367.5 452 327 452 277 c 0
 452 242.333007812 444 211.333007812 428 184 c 0
 412 156.666992188 390.666992188 136.666992188 364 124 c 1
 389.333007812 109.333007812 407 91.5 417 70.5 c 0
 427 49.5 432 22.6669921875 432 -10 c 0
 432 -56 415.666992188 -93.8330078125 383 -123.5 c 0
 350.333007812 -153.166992188 306.666015625 -168 252 -168 c 0
 194 -168 149.666992188 -153 119 -123 c 0
312 211.499023438 m 0
 325.333007812 227.166015625 332.000976562 248.666015625 332.000976562 275.999023438 c 0
 332.000976562 303.33203125 325.333984375 324.83203125 312.000976562 340.499023438 c 0
 298.66796875 356.166015625 280.000976562 363.999023438 256.000976562 363.999023438 c 0
 231.333984375 363.999023438 212.166992188 356.33203125 198.5 340.999023438 c 0
 184.833007812 325.666015625 178 303.999023438 178 275.999023438 c 0
 178 247.999023438 184.833007812 226.33203125 198.5 210.999023438 c 0
 212.166992188 195.666015625 231.333984375 187.999023438 256 187.999023438 c 0
 280 187.999023438 298.666992188 195.83203125 312 211.499023438 c 0
158.000976562 706.999023438 m 1024
EndSplineSet
EndChar

StartChar: dieresis
Encoding: 168 168 105
Width: 500
GlyphClass: 2
Flags: W
LayerCount: 2
Fore
SplineSet
100 703 m 1
 207 703 l 1
 207 587 l 1
 100 587 l 1
 100 703 l 1
292 703 m 1
 399 703 l 1
 399 587 l 1
 292 587 l 1
 292 703 l 1
EndSplineSet
EndChar

StartChar: copyright
Encoding: 169 169 106
Width: 784
GlyphClass: 2
Flags: W
LayerCount: 2
Fore
SplineSet
211.5 35 m 0
 159.833007812 64.3330078125 120 105.5 92 158.5 c 0
 64 211.5 50 272.666992188 50 342 c 0
 50 412 64 473.5 92 526.5 c 0
 120 579.5 159.833007812 620.5 211.5 649.5 c 0
 263.166992188 678.5 323.333984375 693 392.000976562 693 c 0
 460.66796875 693 520.834960938 678.333007812 572.501953125 649 c 0
 624.168945312 619.666992188 664.001953125 578.5 692.001953125 525.5 c 0
 720.001953125 472.5 734.001953125 411.333007812 734.001953125 342 c 0
 734.001953125 272.666992188 720.001953125 211.5 692.001953125 158.5 c 0
 664.001953125 105.5 624.168945312 64.3330078125 572.501953125 35 c 0
 520.834960938 5.6669921875 460.66796875 -9 392.000976562 -9 c 0
 323.333984375 -9 263.166992188 5.6669921875 211.5 35 c 0
583.5 141.5 m 0
 629.833007812 190.5 653 257.333007812 653 342 c 0
 653 426.666992188 629.833007812 493.666992188 583.5 543 c 0
 537.166992188 592.333007812 473.333984375 617 392.000976562 617 c 0
 310.66796875 617 246.834960938 592.333007812 200.501953125 543 c 0
 154.168945312 493.666992188 131.001953125 426.666992188 131.001953125 342 c 0
 131.001953125 257.333007812 154.168945312 190.5 200.501953125 141.5 c 0
 246.834960938 92.5 310.66796875 68 392.000976562 68 c 0
 473.333984375 68 537.166992188 92.5 583.5 141.5 c 0
282 186.5 m 0
 254.666992188 212.166992188 240.999023438 252.33203125 240.999023438 306.999023438 c 2
 240.999023438 376.999023438 l 2
 240.999023438 430.999023438 254.666015625 470.999023438 281.999023438 496.999023438 c 0
 309.333007812 522.999023438 346.666015625 535.999023438 393.999023438 535.999023438 c 0
 440.666015625 535.999023438 477.166015625 523.999023438 503.499023438 499.999023438 c 0
 529.83203125 475.999023438 542.999023438 442.999023438 542.999023438 400.999023438 c 2
 542.999023438 393.999023438 l 1
 456.999023438 393.999023438 l 1
 456.999023438 397.999023438 l 2
 456.999023438 415.999023438 451.499023438 430.166015625 440.499023438 440.499023438 c 0
 429.499023438 450.83203125 414.666015625 455.999023438 395.999023438 455.999023438 c 0
 351.999023438 455.999023438 329.999023438 429.33203125 329.999023438 375.999023438 c 2
 329.999023438 307.999023438 l 2
 329.999023438 278.666015625 335.666015625 257.999023438 346.999023438 245.999023438 c 0
 358.333007812 233.999023438 374.666015625 227.999023438 395.999023438 227.999023438 c 0
 415.33203125 227.999023438 430.33203125 232.83203125 440.999023438 242.499023438 c 0
 451.666015625 252.166015625 456.999023438 265.999023438 456.999023438 283.999023438 c 2
 456.999023438 287.999023438 l 1
 542.999023438 287.999023438 l 1
 542.999023438 282.999023438 l 2
 542.999023438 241.666015625 529.666015625 208.833007812 502.999023438 184.5 c 0
 476.33203125 160.166992188 439.999023438 148 393.999023438 148 c 0
 346.666015625 148 309.333007812 160.833007812 282 186.5 c 0
EndSplineSet
EndChar

StartChar: ordfeminine
Encoding: 170 170 107
Width: 353
GlyphClass: 2
Flags: W
LayerCount: 2
Fore
SplineSet
266 719.5 m 0
 288.666992188 700.5 300 672.000976562 300 634.000976562 c 2
 300 430.000976562 l 1
 214 430.000976562 l 1
 214 455.000976562 l 1
 202.666992188 444.333984375 191.666992188 436.833984375 181 432.500976562 c 0
 170.333007812 428.16796875 157 426.000976562 141 426.000976562 c 0
 108.333007812 426.000976562 82.666015625 435.16796875 63.9990234375 453.500976562 c 0
 45.33203125 471.833984375 35.9990234375 496.333984375 35.9990234375 527.000976562 c 0
 35.9990234375 555.000976562 45.9990234375 577.333984375 65.9990234375 594.000976562 c 0
 85.9990234375 610.66796875 113.666015625 619.000976562 148.999023438 619.000976562 c 2
 210.999023438 619.000976562 l 1
 210.999023438 639.000976562 l 2
 210.999023438 666.333984375 196.33203125 680.000976562 166.999023438 680.000976562 c 0
 154.999023438 680.000976562 145.499023438 677.16796875 138.499023438 671.500976562 c 0
 131.499023438 665.833984375 127.999023438 658.333984375 127.999023438 649.000976562 c 2
 127.999023438 647.000976562 l 1
 44.9990234375 647.000976562 l 1
 44.9990234375 649.000976562 l 2
 44.9990234375 680.333984375 55.9990234375 704.666992188 77.9990234375 722 c 0
 99.9990234375 739.333007812 129.999023438 748 167.999023438 748 c 0
 210.666015625 748 243.333007812 738.5 266 719.5 c 0
199.5 510.000976562 m 0
 207.166992188 517.333984375 211 528.66796875 211 544.000976562 c 2
 211 559.000976562 l 1
 163 559.000976562 l 2
 135.666992188 559.000976562 122 549.333984375 122 530.000976562 c 0
 122 520.66796875 125.333007812 513.16796875 132 507.500976562 c 0
 138.666992188 501.833984375 148.666992188 499.000976562 162 499.000976562 c 0
 179.333007812 499.000976562 191.833007812 502.66796875 199.5 510.000976562 c 0
166 847.001953125 m 1024
EndSplineSet
EndChar

StartChar: guillemotleft
Encoding: 171 171 108
Width: 525
GlyphClass: 2
Flags: W
LayerCount: 2
Fore
SplineSet
18 264 m 1
 244 491 l 1
 244 360 l 1
 149 264 l 1
 244 168 l 1
 244 37 l 1
 18 264 l 1
244 264 m 1
 471 491 l 1
 471 360 l 1
 375 264 l 1
 471 168 l 1
 471 37 l 1
 244 264 l 1
EndSplineSet
EndChar

StartChar: logicalnot
Encoding: 172 172 109
Width: 529
GlyphClass: 2
Flags: W
LayerCount: 2
Fore
SplineSet
355 254 m 1
 50 254 l 1
 50 365 l 1
 478 365 l 1
 478 120 l 1
 355 120 l 1
 355 254 l 1
EndSplineSet
EndChar

StartChar: uni00AD
Encoding: 173 173 110
Width: 365
GlyphClass: 2
Flags: W
LayerCount: 2
Fore
SplineSet
45 403 m 1
 320 403 l 1
 320 288 l 1
 45 288 l 1
 45 403 l 1
EndSplineSet
EndChar

StartChar: registered
Encoding: 174 174 111
Width: 495
GlyphClass: 2
Flags: W
LayerCount: 2
Fore
SplineSet
150.5 333 m 0
 122.166992188 349.666992188 99.8330078125 372.666015625 83.5 401.999023438 c 0
 67.1669921875 431.33203125 59 463.999023438 59 499.999023438 c 0
 59 535.999023438 67.1669921875 568.499023438 83.5 597.499023438 c 0
 99.8330078125 626.499023438 122.333007812 649.33203125 151 665.999023438 c 0
 179.666992188 682.666015625 211.666992188 690.999023438 247 690.999023438 c 0
 283 690.999023438 315.333007812 682.666015625 344 665.999023438 c 0
 372.666992188 649.33203125 395.166992188 626.33203125 411.5 596.999023438 c 0
 427.833007812 567.665039062 436 535.33203125 436 500 c 0
 436 464 427.833007812 431.333007812 411.5 402 c 0
 395.166992188 372.666992188 372.666992188 349.666992188 344 333 c 0
 315.333007812 316.333007812 283 308 247 308 c 0
 211 308 178.833007812 316.333007812 150.5 333 c 0
352.499023438 390.499023438 m 0
 379.499023438 418.83203125 392.999023438 455.33203125 392.999023438 499.999023438 c 0
 392.999023438 544.666015625 379.33203125 580.999023438 351.999023438 608.999023438 c 0
 324.666015625 636.999023438 289.666015625 650.999023438 246.999023438 650.999023438 c 0
 204.33203125 650.999023438 169.33203125 636.999023438 141.999023438 608.999023438 c 0
 114.666015625 580.999023438 100.999023438 544.666015625 100.999023438 499.999023438 c 0
 100.999023438 455.33203125 114.666015625 418.83203125 141.999023438 390.499023438 c 0
 169.33203125 362.166015625 204.33203125 347.999023438 246.999023438 347.999023438 c 0
 290.33203125 347.999023438 325.499023438 362.166015625 352.499023438 390.499023438 c 0
169.999023438 606.999023438 m 1
 257.999023438 606.999023438 l 2
 282.666015625 606.999023438 301.666015625 601.33203125 314.999023438 589.999023438 c 0
 328.33203125 578.663085938 334.999023438 562.330078125 334.999023438 540.999023438 c 0
 334.999023438 512.999023438 322.666015625 492.999023438 297.999023438 480.999023438 c 1
 339.999023438 394.999023438 l 1
 283.999023438 394.999023438 l 1
 246.999023438 472.999023438 l 1
 221.999023438 472.999023438 l 1
 221.999023438 394.999023438 l 1
 169.999023438 394.999023438 l 1
 169.999023438 606.999023438 l 1
254.999023438 516.999023438 m 2
 273.666015625 516.999023438 282.999023438 524.666015625 282.999023438 539.999023438 c 0
 282.999023438 555.33203125 273.666015625 562.999023438 254.999023438 562.999023438 c 2
 221.999023438 562.999023438 l 1
 221.999023438 516.999023438 l 1
 254.999023438 516.999023438 l 2
EndSplineSet
EndChar

StartChar: macron
Encoding: 175 175 112
Width: 500
GlyphClass: 2
Flags: W
LayerCount: 2
Fore
SplineSet
109 700 m 1
 391 700 l 1
 391 590 l 1
 109 590 l 1
 109 700 l 1
EndSplineSet
EndChar

StartChar: degree
Encoding: 176 176 113
Width: 394
GlyphClass: 2
Flags: W
LayerCount: 2
Fore
SplineSet
92 449 m 0
 64 477 49.9990234375 512.000976562 49.9990234375 554.000976562 c 0
 49.9990234375 581.333984375 56.33203125 606.166992188 68.9990234375 628.5 c 0
 81.666015625 650.833007812 99.3330078125 668.5 122 681.5 c 0
 144.666992188 694.5 169.666992188 701 197 701 c 0
 224.333007812 701 249.166015625 694.5 271.499023438 681.5 c 0
 293.83203125 668.5 311.499023438 650.833007812 324.499023438 628.5 c 0
 337.499023438 606.166015625 343.999023438 581.333007812 343.999023438 554.000976562 c 0
 343.999023438 526.666992188 337.499023438 501.666992188 324.499023438 479.000976562 c 0
 311.499023438 456.333984375 293.83203125 438.666992188 271.499023438 426 c 0
 249.166015625 413.333007812 224.333007812 407 197 407 c 0
 155 407 120 421 92 449 c 0
246.499023438 502.500976562 m 0
 259.499023438 516.169921875 265.999023438 533.334960938 265.999023438 554 c 0
 265.999023438 574.668945312 259.499023438 591.8359375 246.499023438 605.5 c 0
 233.499023438 619.166992188 216.999023438 626 196.999023438 626 c 0
 176.33203125 626 159.665039062 619.333007812 146.998046875 606 c 0
 134.331054688 592.6640625 127.998046875 575.331054688 127.998046875 554 c 0
 127.998046875 532.665039062 134.331054688 515.33203125 146.998046875 502.000976562 c 0
 159.665039062 488.66796875 176.33203125 482.000976562 196.999023438 482.000976562 c 0
 216.999023438 482.000976562 233.499023438 488.833984375 246.499023438 502.500976562 c 0
EndSplineSet
EndChar

StartChar: plusminus
Encoding: 177 177 114
Width: 529
GlyphClass: 2
Flags: W
LayerCount: 2
Fore
SplineSet
208 281 m 1
 48 281 l 1
 48 395 l 1
 208 395 l 1
 208 555 l 1
 322 555 l 1
 322 395 l 1
 481 395 l 1
 481 281 l 1
 322 281 l 1
 322 121 l 1
 208 121 l 1
 208 281 l 1
48 78 m 1
 481 78 l 1
 481 -36 l 1
 48 -36 l 1
 48 78 l 1
EndSplineSet
EndChar

StartChar: uni00B2
Encoding: 178 178 115
Width: 346
GlyphClass: 2
Flags: W
LayerCount: 2
Fore
SplineSet
44 510 m 1
 181 681 l 2
 194.333007812 697.668945312 201 713.3359375 201 728 c 2
 201 735 l 2
 201 745.666992188 198.333007812 754.166992188 193 760.5 c 0
 187.666992188 766.833007812 180 770 170 770 c 0
 160.666015625 770 153.333007812 766.666992188 148 760 c 0
 142.666992188 753.333007812 140 744.333007812 140 733 c 2
 140 724 l 1
 41 724 l 1
 41 739 l 2
 41 773.66796875 53 801.834960938 77 823.5 c 0
 101 845.166992188 133.666992188 856 175 856 c 0
 214.333007812 856 246 844.666992188 270 822 c 0
 294 799.333007812 306 772 306 740 c 2
 306 729 l 2
 306 710.333007812 302.666992188 693.5 296 678.5 c 0
 289.333007812 663.5 279.333007812 648 266 632 c 2
 174 519 l 1
 306 519 l 1
 306 430 l 1
 44 430 l 1
 44 510 l 1
EndSplineSet
EndChar

StartChar: uni00B3
Encoding: 179 179 116
Width: 341
GlyphClass: 2
Flags: W
LayerCount: 2
Fore
SplineSet
71.5 452 m 0
 48.5 471.333007812 37 499.3359375 37 536.002929688 c 2
 37 551.002929688 l 1
 130 551.002929688 l 1
 130 541.002929688 l 2
 130 519.002929688 142.333007812 508.002929688 167 508.002929688 c 0
 177.666992188 508.002929688 186.166992188 511.502929688 192.5 518.502929688 c 0
 198.833007812 525.502929688 202 535.3359375 202 548.002929688 c 2
 202 557.002929688 l 2
 202 587.002929688 187.666992188 602.002929688 159 602.002929688 c 2
 138 602.002929688 l 1
 138 687.002929688 l 1
 158 687.002929688 l 2
 170 687.002929688 179.166992188 690.3359375 185.5 697.002929688 c 0
 191.833007812 703.669921875 195 713.002929688 195 725.002929688 c 2
 195 733.002929688 l 2
 195 757.669921875 184.666992188 770.002929688 164 770.002929688 c 0
 142 770.002929688 131 759.669921875 131 739.002929688 c 2
 131 728.002929688 l 1
 39 728.002929688 l 1
 39 738.002929688 l 2
 39 775.3359375 50.3330078125 804.3359375 73 825.002929688 c 0
 95.6669921875 845.669921875 127.333984375 856.002929688 168.000976562 856.002929688 c 0
 207.333984375 856.002929688 238.166992188 845.669921875 260.5 825.002929688 c 0
 282.833007812 804.3359375 294 776.668945312 294 742.001953125 c 2
 294 733.001953125 l 2
 294 697.001953125 278.666992188 670.334960938 248 653.001953125 c 1
 265.333007812 646.334960938 278.5 634.66796875 287.5 618.000976562 c 0
 296.5 601.333984375 301 581.666992188 301 559 c 2
 301 548 l 2
 301 510 288.666992188 479.666992188 264 457 c 0
 239.333007812 434.333007812 208 423 170 423 c 0
 127.333007812 423 94.5 432.666992188 71.5 452 c 0
EndSplineSet
EndChar

StartChar: acute
Encoding: 180 180 117
Width: 500
GlyphClass: 2
Flags: W
LayerCount: 2
Fore
SplineSet
235 721 m 1
 372 721 l 1
 234 588 l 1
 127 588 l 1
 235 721 l 1
EndSplineSet
EndChar

StartChar: uni00B5
Encoding: 181 181 118
Width: 520
GlyphClass: 2
Flags: W
LayerCount: 2
Fore
SplineSet
54 520 m 1
 177.998046875 520 l 1
 177.998046875 196 l 2
 177.998046875 166.666992188 185.331054688 144 199.998046875 128 c 0
 214.665039062 112 234.33203125 104 258.999023438 104 c 0
 282.999023438 104 302.83203125 112 318.499023438 128 c 0
 334.166015625 144 341.999023438 166.666992188 341.999023438 196 c 2
 341.999023438 520 l 1
 465.999023438 520 l 1
 465.999023438 0 l 1
 344.999023438 0 l 1
 344.999023438 47 l 1
 318.999023438 11.6669921875 284.33203125 -6 240.999023438 -6 c 0
 217.666015625 -6 196.333007812 -0.6669921875 177 10 c 1
 177 -156 l 1
 54 -156 l 1
 54 520 l 1
EndSplineSet
EndChar

StartChar: paragraph
Encoding: 182 182 119
Width: 644
GlyphClass: 2
Flags: W
LayerCount: 2
Fore
SplineSet
256 253 m 1
 217.333007812 255.666992188 183.16796875 266.66796875 153.500976562 286.000976562 c 0
 123.833984375 305.333984375 100.666992188 331.166992188 84 363.5 c 0
 67.3330078125 395.833007812 59 432 59 472 c 0
 59 512.666992188 68.1669921875 549.666992188 86.5 583 c 0
 104.833007812 616.333007812 131 642.5 165 661.5 c 0
 199 680.5 239.333007812 690 286 690 c 2
 555 690 l 1
 555 -156 l 1
 448 -156 l 1
 448 590 l 1
 366 590 l 1
 366 -156 l 1
 256 -156 l 1
 256 253 l 1
EndSplineSet
EndChar

StartChar: periodcentered
Encoding: 183 183 120
Width: 215
GlyphClass: 2
Flags: W
LayerCount: 2
Fore
SplineSet
38 350 m 1
 177 350 l 1
 177 208 l 1
 38 208 l 1
 38 350 l 1
EndSplineSet
EndChar

StartChar: cedilla
Encoding: 184 184 121
Width: 500
GlyphClass: 2
Flags: W
LayerCount: 2
Fore
SplineSet
225 13 m 1
 323 13 l 1
 270 -156 l 1
 156 -156 l 1
 225 13 l 1
EndSplineSet
EndChar

StartChar: uni00B9
Encoding: 185 185 122
Width: 253
GlyphClass: 2
Flags: W
LayerCount: 2
Fore
SplineSet
97 737 m 1
 29 689 l 1
 29 799 l 1
 98 849 l 1
 200 849 l 1
 200 430 l 1
 97 430 l 1
 97 737 l 1
EndSplineSet
EndChar

StartChar: ordmasculine
Encoding: 186 186 123
Width: 355
GlyphClass: 2
Flags: W
LayerCount: 2
Fore
SplineSet
79 459 m 0
 55 481 43 514.334960938 43 559.000976562 c 2
 43 616.000976562 l 2
 43 660.668945312 55 693.8359375 79 715.500976562 c 0
 103 737.16796875 136 748.000976562 178 748.000976562 c 0
 220 748.000976562 252.833007812 737.16796875 276.5 715.500976562 c 0
 300.166992188 693.833984375 312 660.666992188 312 616 c 2
 312 559 l 2
 312 514.333007812 300.166992188 481 276.5 459 c 0
 252.833007812 437 220 426 178 426 c 0
 136 426 103 437 79 459 c 0
222 559.001953125 m 2
 222 615.001953125 l 2
 222 650.334960938 207 668.001953125 177 668.001953125 c 0
 147 668.001953125 132 650.334960938 132 615.001953125 c 2
 132 559.001953125 l 2
 132 523.668945312 147 506.001953125 177 506.001953125 c 0
 207 506.001953125 222 523.668945312 222 559.001953125 c 2
166 847.001953125 m 1024
EndSplineSet
EndChar

StartChar: guillemotright
Encoding: 187 187 124
Width: 525
GlyphClass: 2
Flags: W
LayerCount: 2
Fore
SplineSet
54 168 m 1
 150 264 l 1
 54 360 l 1
 54 491 l 1
 281 264 l 1
 54 37 l 1
 54 168 l 1
281 168 m 1
 376 264 l 1
 281 360 l 1
 281 491 l 1
 507 264 l 1
 281 37 l 1
 281 168 l 1
EndSplineSet
EndChar

StartChar: onequarter
Encoding: 188 188 125
Width: 804
GlyphClass: 3
Flags: W
LayerCount: 2
Fore
SplineSet
97 578 m 1
 29 530 l 1
 29 640 l 1
 98 690 l 1
 200 690 l 1
 200 271 l 1
 97 271 l 1
 97 578 l 1
779 57 m 1
 752 57 l 1
 752 0 l 1
 649 0 l 1
 649 57 l 1
 487 57 l 1
 487 146 l 1
 602 419 l 1
 705 419 l 1
 590 146 l 1
 649 146 l 1
 649 234 l 1
 752 234 l 1
 752 146 l 1
 779 146 l 1
 779 57 l 1
498 695 m 1
 597 695 l 1
 211 0 l 1
 113 0 l 1
 498 695 l 1
EndSplineSet
Ligature2: "'frac' Diagonal Fractions lookup 2 subtable" one slash four
EndChar

StartChar: onehalf
Encoding: 189 189 126
Width: 803
GlyphClass: 3
Flags: W
LayerCount: 2
Fore
SplineSet
97 578 m 1
 29 530 l 1
 29 640 l 1
 98 690 l 1
 200 690 l 1
 200 271 l 1
 97 271 l 1
 97 578 l 1
501 80 m 1
 638 250.998046875 l 2
 651.333007812 267.665039062 658 283.33203125 658 297.999023438 c 2
 658 304.999023438 l 2
 658 315.666015625 655.333007812 324.166015625 650 330.499023438 c 0
 644.666992188 336.83203125 637 339.999023438 627 339.999023438 c 0
 617.657226562 339.999023438 610.32421875 336.666015625 605 329.999023438 c 0
 599.666992188 323.33203125 597 314.33203125 597 302.999023438 c 2
 597 293.999023438 l 1
 498 293.999023438 l 1
 498 308.999023438 l 2
 498 343.666015625 510 371.833007812 534 393.5 c 0
 558 415.166992188 590.666992188 426 632 426 c 0
 671.333007812 426 703 414.666992188 727 392 c 0
 751 369.333007812 763 342 763 310 c 2
 763 299 l 2
 763 280.333007812 759.666992188 263.5 753 248.5 c 0
 746.333007812 233.5 736.333007812 218 723 202 c 2
 631 89 l 1
 763 89 l 1
 763 0 l 1
 501 0 l 1
 501 80 l 1
498 694.998046875 m 1
 597 694.998046875 l 1
 211 -0.001953125 l 1
 113 -0.001953125 l 1
 498 694.998046875 l 1
EndSplineSet
Ligature2: "'frac' Diagonal Fractions lookup 2 subtable" one slash two
EndChar

StartChar: threequarters
Encoding: 190 190 127
Width: 892
GlyphClass: 3
Flags: W
LayerCount: 2
Fore
SplineSet
71.5 293 m 0
 48.5 312.333007812 37 340.333984375 37 377.000976562 c 2
 37 392.000976562 l 1
 130 392.000976562 l 1
 130 382.000976562 l 2
 130 360.000976562 142.333007812 349.000976562 167 349.000976562 c 0
 177.666992188 349.000976562 186.166992188 352.500976562 192.5 359.500976562 c 0
 198.833007812 366.500976562 202 376.333984375 202 389.000976562 c 2
 202 398.000976562 l 2
 202 428.000976562 187.666992188 443.000976562 159 443.000976562 c 2
 138 443.000976562 l 1
 138 528.000976562 l 1
 158 528.000976562 l 2
 170 528.000976562 179.166992188 531.333984375 185.5 538.000976562 c 0
 191.833007812 544.66796875 195 554.000976562 195 566.000976562 c 2
 195 574.000976562 l 2
 195 598.66796875 184.666992188 611.000976562 164 611.000976562 c 0
 142 611.000976562 131 600.66796875 131 580.000976562 c 2
 131 569.000976562 l 1
 39 569.000976562 l 1
 39 579.000976562 l 2
 39 616.333984375 50.3330078125 645.333984375 73 666.000976562 c 0
 95.6669921875 686.66796875 127.333984375 697.000976562 168.000976562 697.000976562 c 0
 207.333984375 697.000976562 238.166992188 686.66796875 260.5 666.000976562 c 0
 282.833007812 645.333984375 294 617.666992188 294 583 c 2
 294 574 l 2
 294 538 278.666992188 511.333007812 248 494 c 1
 265.333007812 487.333007812 278.5 475.666015625 287.5 459 c 0
 296.5 442.333007812 301 422.666015625 301 400 c 2
 301 389 l 2
 301 351 288.666992188 320.666992188 264 298 c 0
 239.333007812 275.333007812 208 264 170 264 c 0
 127.333007812 264 94.5 273.666992188 71.5 293 c 0
867 57.0009765625 m 1
 840 57.0009765625 l 1
 840 0.0009765625 l 1
 737 0.0009765625 l 1
 737 57.0009765625 l 1
 575 57.0009765625 l 1
 575 146.000976562 l 1
 690 419.000976562 l 1
 793 419.000976562 l 1
 678 146.000976562 l 1
 737 146.000976562 l 1
 737 234.000976562 l 1
 840 234.000976562 l 1
 840 146.000976562 l 1
 867 146.000976562 l 1
 867 57.0009765625 l 1
586 695.000976562 m 1
 685 695.000976562 l 1
 299 0.0009765625 l 1
 201 0.0009765625 l 1
 586 695.000976562 l 1
EndSplineSet
Ligature2: "'frac' Diagonal Fractions lookup 2 subtable" three slash four
EndChar

StartChar: questiondown
Encoding: 191 191 128
Width: 451
GlyphClass: 2
Flags: W
LayerCount: 2
Fore
SplineSet
167 520 m 1
 297 520 l 1
 297 390 l 1
 167 390 l 1
 167 520 l 1
126.5 -143.5 m 0
 96.8330078125 -128.5 74.0009765625 -107.662109375 58.0009765625 -80.9951171875 c 0
 42.0009765625 -54.328125 34.0009765625 -24.328125 34.0009765625 9.0048828125 c 0
 34.0009765625 36.337890625 38.16796875 60.6708984375 46.5009765625 82.00390625 c 0
 54.833984375 103.336914062 69.333984375 126.00390625 90.0009765625 150.00390625 c 2
 134.000976562 201.00390625 l 2
 149.333984375 219.00390625 159.166992188 234.00390625 163.5 246.00390625 c 0
 167.833007812 258.00390625 170 274.00390625 170 294.00390625 c 2
 170 323.00390625 l 1
 294 323.00390625 l 1
 294 285.00390625 l 2
 294 256.336914062 291.166992188 233.669921875 285.5 217.002929688 c 0
 279.833007812 200.3359375 266.333007812 179.668945312 245 155.001953125 c 2
 198 100.001953125 l 2
 184.666015625 84.001953125 175.333007812 69.6689453125 170 57.001953125 c 0
 164.666992188 44.3349609375 162 30.66796875 162 16.0009765625 c 0
 162 -5.33203125 168 -22.33203125 180 -34.9990234375 c 0
 192 -47.666015625 209.666992188 -53.9990234375 233 -53.9990234375 c 0
 257 -53.9990234375 274.5 -47.33203125 285.5 -33.9990234375 c 0
 296.5 -20.666015625 302.333007812 -0.666015625 303 26.0009765625 c 1
 424 26.0009765625 l 1
 422.666992188 -36.666015625 405.333984375 -84.3330078125 372.000976562 -117 c 0
 338.66796875 -149.666992188 291.000976562 -166 229.000976562 -166 c 0
 190.333984375 -166 156.166992188 -158.5 126.5 -143.5 c 0
EndSplineSet
EndChar

StartChar: Agrave
Encoding: 192 192 129
Width: 606
GlyphClass: 2
Flags: W
AnchorPoint: "Anchor-0" 303 690 basechar 0
LayerCount: 2
Fore
SplineSet
421 134 m 1
 184 134 l 1
 142 0 l 1
 4 0 l 1
 249 690 l 1
 356 690 l 1
 602 0 l 1
 463 0 l 1
 421 134 l 1
386 243 m 1
 302 508 l 1
 219 243 l 1
 386 243 l 1
144 891 m 1
 281 891 l 1
 389 758 l 1
 282 758 l 1
 144 891 l 1
EndSplineSet
EndChar

StartChar: Aacute
Encoding: 193 193 130
Width: 606
GlyphClass: 2
Flags: W
AnchorPoint: "Anchor-0" 303 690 basechar 0
LayerCount: 2
Fore
SplineSet
421 134 m 1
 184 134 l 1
 142 0 l 1
 4 0 l 1
 249 690 l 1
 356 690 l 1
 602 0 l 1
 463 0 l 1
 421 134 l 1
386 243 m 1
 302 508 l 1
 219 243 l 1
 386 243 l 1
318 891 m 1
 455 891 l 1
 317 758 l 1
 210 758 l 1
 318 891 l 1
EndSplineSet
EndChar

StartChar: Acircumflex
Encoding: 194 194 131
Width: 606
GlyphClass: 2
Flags: W
AnchorPoint: "Anchor-0" 303 690 basechar 0
LayerCount: 2
Fore
SplineSet
421 134 m 1
 184 134 l 1
 142 0 l 1
 4 0 l 1
 249 690 l 1
 356 690 l 1
 602 0 l 1
 463 0 l 1
 421 134 l 1
386 243 m 1
 302 508 l 1
 219 243 l 1
 386 243 l 1
257 898 m 1
 348 898 l 1
 463 747 l 1
 366 747 l 1
 303 825 l 1
 240 747 l 1
 142 747 l 1
 257 898 l 1
EndSplineSet
EndChar

StartChar: Atilde
Encoding: 195 195 132
Width: 606
GlyphClass: 2
Flags: W
AnchorPoint: "Anchor-0" 303 690 basechar 0
LayerCount: 2
Fore
SplineSet
421 134 m 1
 184 134 l 1
 142 0 l 1
 4 0 l 1
 249 690 l 1
 356 690 l 1
 602 0 l 1
 463 0 l 1
 421 134 l 1
386 243 m 1
 302 508 l 1
 219 243 l 1
 386 243 l 1
161 842 m 1
 176.333007812 857.333007812 189.83203125 868.333007812 201.499023438 875 c 0
 213.166015625 881.666992188 226.666015625 885 241.999023438 885 c 0
 255.33203125 885 266.999023438 883.333007812 276.999023438 880 c 0
 286.999023438 876.653320312 298.999023438 871.3203125 312.999023438 864 c 0
 334.333007812 852.666992188 352.666015625 847 367.999023438 847 c 0
 381.33203125 847 392.999023438 849.666992188 402.999023438 855 c 0
 412.999023438 860.333007812 426.666015625 871 443.999023438 887 c 1
 443.999023438 796 l 1
 428.666015625 780.666992188 415.166015625 769.666992188 403.499023438 763 c 0
 391.83203125 756.333007812 378.33203125 753 362.999023438 753 c 0
 350.33203125 753 338.999023438 754.666992188 328.999023438 758 c 0
 318.999023438 761.333007812 306.999023438 766.666015625 292.999023438 773.999023438 c 0
 271.666015625 785.33203125 253.333007812 790.999023438 238 790.999023438 c 0
 224.666992188 790.999023438 213 788.33203125 203 782.999023438 c 0
 193 777.66015625 179 767.327148438 161 752 c 1
 161 842 l 1
EndSplineSet
EndChar

StartChar: Adieresis
Encoding: 196 196 133
Width: 606
GlyphClass: 2
Flags: W
AnchorPoint: "Anchor-0" 303 690 basechar 0
LayerCount: 2
Fore
SplineSet
421 134 m 1
 184 134 l 1
 142 0 l 1
 4 0 l 1
 249 690 l 1
 356 690 l 1
 602 0 l 1
 463 0 l 1
 421 134 l 1
386 243 m 1
 302 508 l 1
 219 243 l 1
 386 243 l 1
153 873 m 1
 260 873 l 1
 260 757 l 1
 153 757 l 1
 153 873 l 1
345 873 m 1
 452 873 l 1
 452 757 l 1
 345 757 l 1
 345 873 l 1
EndSplineSet
EndChar

StartChar: Aring
Encoding: 197 197 134
Width: 606
GlyphClass: 2
Flags: W
AnchorPoint: "Anchor-0" 303 690 basechar 0
LayerCount: 2
Fore
SplineSet
421 134 m 1
 184.000976562 134.000976562 l 1
 142.000976562 0.0009765625 l 1
 4.0009765625 0.0009765625 l 1
 249.000976562 690.000976562 l 1
 234.333984375 699.333984375 222.666992188 711.666992188 214 727 c 0
 205.333007812 742.333007812 201 759.333007812 201 778 c 0
 201 808 210.833007812 832.833007812 230.5 852.5 c 0
 250.166992188 872.166992188 274.666992188 882 304 882 c 0
 333.333007812 882 357.833007812 872.166992188 377.5 852.5 c 0
 397.166992188 832.833007812 407 808 407 778 c 0
 407 758.666992188 402.5 741.166992188 393.5 725.5 c 0
 384.5 709.833007812 372.333007812 697.333007812 357 688 c 1
 602 0 l 1
 463 0 l 1
 421 134 l 1
271.000976562 813.000976562 m 0
 262.333984375 803.66796875 258.000976562 792.000976562 258.000976562 778.000976562 c 0
 258.000976562 764.665039062 262.500976562 753.33203125 271.500976562 744.001953125 c 0
 280.500976562 734.668945312 291.333984375 730.001953125 304.000976562 730.001953125 c 0
 317.333984375 730.001953125 328.500976562 734.668945312 337.500976562 744.001953125 c 0
 346.500976562 753.334960938 351.000976562 764.66796875 351.000976562 778.000976562 c 0
 351.000976562 792.000976562 346.500976562 803.66796875 337.500976562 813.000976562 c 0
 328.500976562 822.333984375 317.333984375 827.000976562 304.000976562 827.000976562 c 0
 290.66796875 827.000976562 279.66796875 822.333984375 271.000976562 813.000976562 c 0
386.000976562 243.000976562 m 1
 302.000976562 508.000976562 l 1
 219.000976562 243.000976562 l 1
 386.000976562 243.000976562 l 1
303.000976562 675.000976562 m 1024
EndSplineSet
EndChar

StartChar: AE
Encoding: 198 198 135
Width: 883
GlyphClass: 2
Flags: W
LayerCount: 2
Fore
SplineSet
551 576 m 1
 551 405 l 1
 803 405 l 1
 803 291 l 1
 551 291 l 1
 551 114 l 1
 848 114 l 1
 848 0 l 1
 419 0 l 1
 419 141 l 1
 209 141 l 1
 142 0 l 1
 4 0 l 1
 344 690 l 1
 848 690 l 1
 848 576 l 1
 551 576 l 1
419 250 m 1
 419 579 l 1
 262 250 l 1
 419 250 l 1
EndSplineSet
EndChar

StartChar: Ccedilla
Encoding: 199 199 136
Width: 600
GlyphClass: 2
Flags: W
LayerCount: 2
Fore
SplineSet
419 464 m 1
 418.999023438 470 l 2
 418.999023438 505.333007812 408.83203125 533.333007812 388.499023438 554 c 0
 368.166015625 574.666992188 339.333007812 585 302 585 c 0
 260 585 229.5 572 210.5 546 c 0
 191.5 520 182 477.333007812 182 418 c 2
 182 269 l 2
 182 213 191.833007812 172.333007812 211.5 147 c 0
 231.166992188 121.666992188 262 109 304 109 c 0
 341.333007812 109 369.833007812 119 389.5 139 c 0
 409.166992188 159 419 186.333007812 419 221 c 2
 419 229 l 1
 548 229 l 1
 548 222 l 2
 548 159.333007812 532.333007812 109 501 71 c 0
 469.666992188 33 425.666992188 8.6669921875 369 -2 c 1
 321 -156 l 1
 207 -156 l 1
 268 -7 l 1
 122.666992188 5.6669921875 50 97 50 267 c 2
 50 425 l 2
 50 608.333007812 134.333007812 700 303 700 c 0
 378.333007812 700 438.333007812 680 483 640 c 0
 527.666992188 600 550 543.666992188 550 471 c 2
 550 464 l 1
 419 464 l 1
EndSplineSet
EndChar

StartChar: Egrave
Encoding: 200 200 137
Width: 532
GlyphClass: 2
Flags: W
AnchorPoint: "Anchor-0" 268 690 basechar 0
LayerCount: 2
Fore
SplineSet
190 576 m 1
 190 405 l 1
 452 405 l 1
 452 291 l 1
 190 291 l 1
 190 114 l 1
 497 114 l 1
 497 0 l 1
 59 0 l 1
 59 690 l 1
 497 690 l 1
 497 576 l 1
 190 576 l 1
109 891 m 1
 246 891 l 1
 354 758 l 1
 247 758 l 1
 109 891 l 1
EndSplineSet
EndChar

StartChar: Eacute
Encoding: 201 201 138
Width: 532
GlyphClass: 2
Flags: W
AnchorPoint: "Anchor-0" 268 690 basechar 0
LayerCount: 2
Fore
SplineSet
190 576 m 1
 190 405 l 1
 452 405 l 1
 452 291 l 1
 190 291 l 1
 190 114 l 1
 497 114 l 1
 497 0 l 1
 59 0 l 1
 59 690 l 1
 497 690 l 1
 497 576 l 1
 190 576 l 1
283 891 m 1
 420 891 l 1
 282 758 l 1
 175 758 l 1
 283 891 l 1
EndSplineSet
EndChar

StartChar: Ecircumflex
Encoding: 202 202 139
Width: 532
GlyphClass: 2
Flags: W
AnchorPoint: "Anchor-0" 268 690 basechar 0
LayerCount: 2
Fore
SplineSet
190 576 m 1
 190 405 l 1
 452 405 l 1
 452 291 l 1
 190 291 l 1
 190 114 l 1
 497 114 l 1
 497 0 l 1
 59 0 l 1
 59 690 l 1
 497 690 l 1
 497 576 l 1
 190 576 l 1
222 898 m 1
 313 898 l 1
 428 747 l 1
 331 747 l 1
 268 825 l 1
 205 747 l 1
 107 747 l 1
 222 898 l 1
EndSplineSet
EndChar

StartChar: Edieresis
Encoding: 203 203 140
Width: 532
GlyphClass: 2
Flags: W
AnchorPoint: "Anchor-0" 268 690 basechar 0
LayerCount: 2
Fore
SplineSet
190 576 m 1
 190 405 l 1
 452 405 l 1
 452 291 l 1
 190 291 l 1
 190 114 l 1
 497 114 l 1
 497 0 l 1
 59 0 l 1
 59 690 l 1
 497 690 l 1
 497 576 l 1
 190 576 l 1
118 873 m 1
 225 873 l 1
 225 757 l 1
 118 757 l 1
 118 873 l 1
310 873 m 1
 417 873 l 1
 417 757 l 1
 310 757 l 1
 310 873 l 1
EndSplineSet
EndChar

StartChar: Igrave
Encoding: 204 204 141
Width: 261
GlyphClass: 2
Flags: W
AnchorPoint: "Anchor-0" 130 690 basechar 0
LayerCount: 2
Fore
SplineSet
65 690 m 1
 196 690 l 1
 196 0 l 1
 65 0 l 1
 65 690 l 1
-29 891 m 1
 108 891 l 1
 216 758 l 1
 109 758 l 1
 -29 891 l 1
EndSplineSet
EndChar

StartChar: Iacute
Encoding: 205 205 142
Width: 261
GlyphClass: 2
Flags: W
AnchorPoint: "Anchor-0" 130 690 basechar 0
LayerCount: 2
Fore
SplineSet
65 690 m 1
 196 690 l 1
 196 0 l 1
 65 0 l 1
 65 690 l 1
145 891 m 1
 282 891 l 1
 144 758 l 1
 37 758 l 1
 145 891 l 1
EndSplineSet
EndChar

StartChar: Icircumflex
Encoding: 206 206 143
Width: 261
GlyphClass: 2
Flags: W
AnchorPoint: "Anchor-0" 130 690 basechar 0
LayerCount: 2
Fore
SplineSet
65 690 m 1
 196 690 l 1
 196 0 l 1
 65 0 l 1
 65 690 l 1
84 898 m 1
 175 898 l 1
 290 747 l 1
 193 747 l 1
 130 825 l 1
 67 747 l 1
 -31 747 l 1
 84 898 l 1
EndSplineSet
EndChar

StartChar: Idieresis
Encoding: 207 207 144
Width: 261
GlyphClass: 2
Flags: W
AnchorPoint: "Anchor-0" 130 690 basechar 0
LayerCount: 2
Fore
SplineSet
65 690 m 1
 196 690 l 1
 196 0 l 1
 65 0 l 1
 65 690 l 1
-20 873 m 1
 87 873 l 1
 87 757 l 1
 -20 757 l 1
 -20 873 l 1
172 873 m 1
 279 873 l 1
 279 757 l 1
 172 757 l 1
 172 873 l 1
EndSplineSet
EndChar

StartChar: Eth
Encoding: 208 208 145
Width: 632
GlyphClass: 2
Flags: W
LayerCount: 2
Fore
SplineSet
515.5 626 m 0
 559.833007812 583.333007812 581.999023438 513.333007812 581.999023438 416 c 2
 581.999023438 275 l 2
 581.999023438 177.666992188 559.33203125 107.5 513.999023438 64.5 c 0
 468.666015625 21.5 407.333007812 0 330 0 c 2
 91 0 l 1
 91 294 l 1
 27 294 l 1
 27 409 l 1
 91 409 l 1
 91 690 l 1
 334 690 l 2
 410.666992188 690 471.166992188 668.666992188 515.5 626 c 0
450.999023438 409 m 2
 450.999023438 467.666992188 441.33203125 510.166992188 421.999023438 536.5 c 0
 402.666015625 562.833007812 372.999023438 576 332.999023438 576 c 2
 221.999023438 576 l 1
 221.999023438 409 l 1
 339.999023438 409 l 1
 339.999023438 294 l 1
 221.999023438 294 l 1
 221.999023438 114 l 1
 332.999023438 114 l 2
 372.33203125 114 401.83203125 127 421.499023438 153 c 0
 441.166015625 179 450.999023438 220 450.999023438 276 c 2
 450.999023438 409 l 2
EndSplineSet
EndChar

StartChar: Ntilde
Encoding: 209 209 146
Width: 634
GlyphClass: 2
Flags: W
AnchorPoint: "Anchor-0" 317 690 basechar 0
LayerCount: 2
Fore
SplineSet
575 690 m 1
 575 0 l 1
 444 0 l 1
 190 431 l 1
 190 0 l 1
 59 0 l 1
 59 690 l 1
 190 690 l 1
 444 258 l 1
 444 690 l 1
 575 690 l 1
175 842 m 1
 190.333007812 857.333007812 203.83203125 868.333007812 215.499023438 875 c 0
 227.166015625 881.666992188 240.666015625 885 255.999023438 885 c 0
 269.33203125 885 280.999023438 883.333007812 290.999023438 880 c 0
 300.999023438 876.653320312 312.999023438 871.3203125 326.999023438 864 c 0
 348.333007812 852.666992188 366.666015625 847 381.999023438 847 c 0
 395.33203125 847 406.999023438 849.666992188 416.999023438 855 c 0
 426.999023438 860.333007812 440.666015625 871 457.999023438 887 c 1
 457.999023438 796 l 1
 442.666015625 780.666992188 429.166015625 769.666992188 417.499023438 763 c 0
 405.83203125 756.333007812 392.33203125 753 376.999023438 753 c 0
 364.33203125 753 352.999023438 754.666992188 342.999023438 758 c 0
 332.999023438 761.333007812 320.999023438 766.666015625 306.999023438 773.999023438 c 0
 285.666015625 785.33203125 267.333007812 790.999023438 252 790.999023438 c 0
 238.666992188 790.999023438 227 788.33203125 217 782.999023438 c 0
 207 777.66015625 193 767.327148438 175 752 c 1
 175 842 l 1
EndSplineSet
EndChar

StartChar: Ograve
Encoding: 210 210 147
Width: 600
GlyphClass: 2
Flags: W
AnchorPoint: "Anchor-0" 300 690 basechar 0
LayerCount: 2
Fore
SplineSet
50 267 m 2
 49.9990234375 425 l 2
 49.9990234375 608.333007812 133.666015625 700 300.999023438 700 c 0
 377.666015625 700 438.333007812 678.5 483 635.5 c 0
 527.666992188 592.5 550 522.333007812 550 425 c 2
 550 267 l 2
 550 169.666992188 527.166992188 99.5 481.5 56.5 c 0
 435.833007812 13.5 374.333007812 -8 297 -8 c 0
 132.333007812 -8 50 83.6669921875 50 267 c 2
389.999023438 147.5 m 0
 409.33203125 173.166992188 418.999023438 213.666992188 418.999023438 269 c 2
 418.999023438 418 l 2
 418.999023438 476.666992188 409.33203125 519.166992188 389.999023438 545.5 c 0
 370.666015625 571.833007812 340.999023438 585 300.999023438 585 c 0
 258.999023438 585 228.666015625 572.166992188 209.999023438 546.5 c 0
 191.33203125 520.833007812 181.999023438 478 181.999023438 418 c 2
 181.999023438 269 l 2
 181.999023438 212.333007812 191.33203125 171.5 209.999023438 146.5 c 0
 228.666015625 121.5 258.999023438 109 300.999023438 109 c 0
 340.999023438 109 370.666015625 121.833007812 389.999023438 147.5 c 0
140.999023438 891 m 1
 277.999023438 891 l 1
 385.999023438 758 l 1
 278.999023438 758 l 1
 140.999023438 891 l 1
EndSplineSet
EndChar

StartChar: Oacute
Encoding: 211 211 148
Width: 600
GlyphClass: 2
Flags: W
AnchorPoint: "Anchor-0" 300 690 basechar 0
LayerCount: 2
Fore
SplineSet
50 267 m 2
 49.9990234375 425 l 2
 49.9990234375 608.333007812 133.666015625 700 300.999023438 700 c 0
 377.666015625 700 438.333007812 678.5 483 635.5 c 0
 527.666992188 592.5 550 522.333007812 550 425 c 2
 550 267 l 2
 550 169.666992188 527.166992188 99.5 481.5 56.5 c 0
 435.833007812 13.5 374.333007812 -8 297 -8 c 0
 132.333007812 -8 50 83.6669921875 50 267 c 2
389.999023438 147.5 m 0
 409.33203125 173.166992188 418.999023438 213.666992188 418.999023438 269 c 2
 418.999023438 418 l 2
 418.999023438 476.666992188 409.33203125 519.166992188 389.999023438 545.5 c 0
 370.666015625 571.833007812 340.999023438 585 300.999023438 585 c 0
 258.999023438 585 228.666015625 572.166992188 209.999023438 546.5 c 0
 191.33203125 520.833007812 181.999023438 478 181.999023438 418 c 2
 181.999023438 269 l 2
 181.999023438 212.333007812 191.33203125 171.5 209.999023438 146.5 c 0
 228.666015625 121.5 258.999023438 109 300.999023438 109 c 0
 340.999023438 109 370.666015625 121.833007812 389.999023438 147.5 c 0
314.999023438 891 m 1
 451.999023438 891 l 1
 313.999023438 758 l 1
 206.999023438 758 l 1
 314.999023438 891 l 1
EndSplineSet
EndChar

StartChar: Ocircumflex
Encoding: 212 212 149
Width: 600
GlyphClass: 2
Flags: W
AnchorPoint: "Anchor-0" 300 690 basechar 0
LayerCount: 2
Fore
SplineSet
50 267 m 2
 49.9990234375 425 l 2
 49.9990234375 608.333007812 133.666015625 700 300.999023438 700 c 0
 377.666015625 700 438.333007812 678.5 483 635.5 c 0
 527.666992188 592.5 550 522.333007812 550 425 c 2
 550 267 l 2
 550 169.666992188 527.166992188 99.5 481.5 56.5 c 0
 435.833007812 13.5 374.333007812 -8 297 -8 c 0
 132.333007812 -8 50 83.6669921875 50 267 c 2
389.999023438 147.5 m 0
 409.33203125 173.166992188 418.999023438 213.666992188 418.999023438 269 c 2
 418.999023438 418 l 2
 418.999023438 476.666992188 409.33203125 519.166992188 389.999023438 545.5 c 0
 370.666015625 571.833007812 340.999023438 585 300.999023438 585 c 0
 258.999023438 585 228.666015625 572.166992188 209.999023438 546.5 c 0
 191.33203125 520.833007812 181.999023438 478 181.999023438 418 c 2
 181.999023438 269 l 2
 181.999023438 212.333007812 191.33203125 171.5 209.999023438 146.5 c 0
 228.666015625 121.5 258.999023438 109 300.999023438 109 c 0
 340.999023438 109 370.666015625 121.833007812 389.999023438 147.5 c 0
253.999023438 898 m 1
 344.999023438 898 l 1
 459.999023438 747 l 1
 362.999023438 747 l 1
 299.999023438 825 l 1
 236.999023438 747 l 1
 138.999023438 747 l 1
 253.999023438 898 l 1
EndSplineSet
EndChar

StartChar: Otilde
Encoding: 213 213 150
Width: 600
GlyphClass: 2
Flags: W
AnchorPoint: "Anchor-0" 300 690 basechar 0
LayerCount: 2
Fore
SplineSet
50 267 m 2
 49.9990234375 425 l 2
 49.9990234375 608.333007812 133.666015625 700 300.999023438 700 c 0
 377.666015625 700 438.333007812 678.5 483 635.5 c 0
 527.666992188 592.5 550 522.333007812 550 425 c 2
 550 267 l 2
 550 169.666992188 527.166992188 99.5 481.5 56.5 c 0
 435.833007812 13.5 374.333007812 -8 297 -8 c 0
 132.333007812 -8 50 83.6669921875 50 267 c 2
389.999023438 147.5 m 0
 409.33203125 173.166992188 418.999023438 213.666992188 418.999023438 269 c 2
 418.999023438 418 l 2
 418.999023438 476.666992188 409.33203125 519.166992188 389.999023438 545.5 c 0
 370.666015625 571.833007812 340.999023438 585 300.999023438 585 c 0
 258.999023438 585 228.666015625 572.166992188 209.999023438 546.5 c 0
 191.33203125 520.833007812 181.999023438 478 181.999023438 418 c 2
 181.999023438 269 l 2
 181.999023438 212.333007812 191.33203125 171.5 209.999023438 146.5 c 0
 228.666015625 121.5 258.999023438 109 300.999023438 109 c 0
 340.999023438 109 370.666015625 121.833007812 389.999023438 147.5 c 0
157.999023438 842 m 1
 173.33203125 857.333007812 186.831054688 868.333007812 198.498046875 875 c 0
 210.165039062 881.666992188 223.665039062 885 238.998046875 885 c 0
 252.331054688 885 263.998046875 883.333007812 273.998046875 880 c 0
 283.998046875 876.653320312 295.998046875 871.3203125 309.998046875 864 c 0
 331.33203125 852.666992188 349.665039062 847 364.998046875 847 c 0
 378.331054688 847 389.998046875 849.666992188 399.998046875 855 c 0
 409.998046875 860.333007812 423.665039062 871 440.998046875 887 c 1
 440.998046875 796 l 1
 425.665039062 780.666992188 412.165039062 769.666992188 400.498046875 763 c 0
 388.831054688 756.333007812 375.331054688 753 359.998046875 753 c 0
 347.331054688 753 335.998046875 754.666992188 325.998046875 758 c 0
 315.998046875 761.333007812 303.998046875 766.666015625 289.998046875 773.999023438 c 0
 268.665039062 785.33203125 250.33203125 790.999023438 234.999023438 790.999023438 c 0
 221.666015625 790.999023438 209.999023438 788.33203125 199.999023438 782.999023438 c 0
 189.999023438 777.66015625 175.999023438 767.327148438 157.999023438 752 c 1
 157.999023438 842 l 1
EndSplineSet
EndChar

StartChar: Odieresis
Encoding: 214 214 151
Width: 600
GlyphClass: 2
Flags: W
AnchorPoint: "Anchor-0" 300 690 basechar 0
LayerCount: 2
Fore
SplineSet
50 267 m 2
 49.9990234375 425 l 2
 49.9990234375 608.333007812 133.666015625 700 300.999023438 700 c 0
 377.666015625 700 438.333007812 678.5 483 635.5 c 0
 527.666992188 592.5 550 522.333007812 550 425 c 2
 550 267 l 2
 550 169.666992188 527.166992188 99.5 481.5 56.5 c 0
 435.833007812 13.5 374.333007812 -8 297 -8 c 0
 132.333007812 -8 50 83.6669921875 50 267 c 2
389.999023438 147.5 m 0
 409.33203125 173.166992188 418.999023438 213.666992188 418.999023438 269 c 2
 418.999023438 418 l 2
 418.999023438 476.666992188 409.33203125 519.166992188 389.999023438 545.5 c 0
 370.666015625 571.833007812 340.999023438 585 300.999023438 585 c 0
 258.999023438 585 228.666015625 572.166992188 209.999023438 546.5 c 0
 191.33203125 520.833007812 181.999023438 478 181.999023438 418 c 2
 181.999023438 269 l 2
 181.999023438 212.333007812 191.33203125 171.5 209.999023438 146.5 c 0
 228.666015625 121.5 258.999023438 109 300.999023438 109 c 0
 340.999023438 109 370.666015625 121.833007812 389.999023438 147.5 c 0
149.999023438 873 m 1
 256.999023438 873 l 1
 256.999023438 757 l 1
 149.999023438 757 l 1
 149.999023438 873 l 1
341.999023438 873 m 1
 448.999023438 873 l 1
 448.999023438 757 l 1
 341.999023438 757 l 1
 341.999023438 873 l 1
EndSplineSet
EndChar

StartChar: multiply
Encoding: 215 215 152
Width: 529
GlyphClass: 2
Flags: W
LayerCount: 2
Fore
SplineSet
69 157 m 1
 188 276 l 1
 69 396 l 1
 145 472 l 1
 265 353 l 1
 384 472 l 1
 460 395 l 1
 341 276 l 1
 460 157 l 1
 384 80 l 1
 265 200 l 1
 145 80 l 1
 69 157 l 1
EndSplineSet
EndChar

StartChar: Oslash
Encoding: 216 216 153
Width: 600
GlyphClass: 2
Flags: W
AnchorPoint: "Anchor-0" 300 690 basechar 0
LayerCount: 2
Fore
SplineSet
495 621 m 1
 531.666992188 575.666992188 550 510.333007812 550 425 c 2
 550 267 l 2
 550 169.666992188 527.166992188 99.5 481.5 56.5 c 0
 435.833007812 13.5 374.333007812 -8 297 -8 c 0
 237.666992188 -8 188.666992188 4 150 28 c 1
 122 -20 l 1
 50 -20 l 1
 103 71 l 1
 67.6669921875 115.666992188 50 181 50 267 c 2
 50 425 l 2
 50 608.333007812 133.666992188 700 301 700 c 0
 361 700 410.333007812 687.666992188 449 663 c 1
 479 715 l 1
 550 715 l 1
 495 621 l 1
186 212.999023438 m 1
 384 552.999023438 l 1
 365.333007812 574.33203125 337.666015625 584.999023438 301 584.999023438 c 0
 259 584.999023438 228.666992188 572.166015625 210 546.499023438 c 0
 191.333007812 520.83203125 182 477.999023438 182 417.999023438 c 2
 182 268.999023438 l 2
 182 245.666015625 183.333007812 226.999023438 186 212.999023438 c 1
414 481.999023438 m 1
 215 140 l 1
 235 119.333007812 263.666992188 109 301 109 c 0
 341 109 370.666992188 121.833007812 390 147.5 c 0
 409.333007812 173.166992188 419 213.666992188 419 269 c 2
 419 418 l 2
 419 439.333007812 417.333007812 460.666015625 414 481.999023438 c 1
EndSplineSet
EndChar

StartChar: Ugrave
Encoding: 217 217 154
Width: 614
GlyphClass: 2
Flags: W
AnchorPoint: "Anchor-0" 307 690 basechar 0
LayerCount: 2
Fore
SplineSet
179.5 23.5 m 0
 141.833007812 43.1669921875 112.333984375 70.833984375 91.0009765625 106.500976562 c 0
 69.66796875 142.16796875 59.0009765625 182.66796875 59.0009765625 228.000976562 c 2
 59.0009765625 690.000976562 l 1
 190.000976562 690.000976562 l 1
 190.000976562 232.000976562 l 2
 190.000976562 192.66796875 200.333984375 162.16796875 221.000976562 140.500976562 c 0
 241.66796875 118.833984375 270.000976562 108.000976562 306.000976562 108.000976562 c 0
 342.000976562 108.000976562 370.500976562 118.833984375 391.500976562 140.500976562 c 0
 412.500976562 162.16796875 423.000976562 192.66796875 423.000976562 232.000976562 c 2
 423.000976562 690.000976562 l 1
 555.000976562 690.000976562 l 1
 555.000976562 228.000976562 l 2
 555.000976562 182.66796875 544.16796875 142.16796875 522.500976562 106.500976562 c 0
 500.833984375 70.833984375 471.166992188 43.1669921875 433.500976562 23.5 c 0
 395.833984375 3.8330078125 353.333984375 -6 306.000976562 -6 c 0
 259.333984375 -6 217.166992188 3.8330078125 179.5 23.5 c 0
148.000976562 891 m 1
 285.000976562 891 l 1
 393.000976562 758 l 1
 286.000976562 758 l 1
 148.000976562 891 l 1
EndSplineSet
EndChar

StartChar: Uacute
Encoding: 218 218 155
Width: 614
GlyphClass: 2
Flags: W
AnchorPoint: "Anchor-0" 307 690 basechar 0
LayerCount: 2
Fore
SplineSet
179.5 23.5 m 0
 141.833007812 43.1669921875 112.333984375 70.833984375 91.0009765625 106.500976562 c 0
 69.66796875 142.16796875 59.0009765625 182.66796875 59.0009765625 228.000976562 c 2
 59.0009765625 690.000976562 l 1
 190.000976562 690.000976562 l 1
 190.000976562 232.000976562 l 2
 190.000976562 192.66796875 200.333984375 162.16796875 221.000976562 140.500976562 c 0
 241.66796875 118.833984375 270.000976562 108.000976562 306.000976562 108.000976562 c 0
 342.000976562 108.000976562 370.500976562 118.833984375 391.500976562 140.500976562 c 0
 412.500976562 162.16796875 423.000976562 192.66796875 423.000976562 232.000976562 c 2
 423.000976562 690.000976562 l 1
 555.000976562 690.000976562 l 1
 555.000976562 228.000976562 l 2
 555.000976562 182.66796875 544.16796875 142.16796875 522.500976562 106.500976562 c 0
 500.833984375 70.833984375 471.166992188 43.1669921875 433.500976562 23.5 c 0
 395.833984375 3.8330078125 353.333984375 -6 306.000976562 -6 c 0
 259.333984375 -6 217.166992188 3.8330078125 179.5 23.5 c 0
322.000976562 891 m 1
 459.000976562 891 l 1
 321.000976562 758 l 1
 214.000976562 758 l 1
 322.000976562 891 l 1
EndSplineSet
EndChar

StartChar: Ucircumflex
Encoding: 219 219 156
Width: 614
GlyphClass: 2
Flags: W
AnchorPoint: "Anchor-0" 307 690 basechar 0
LayerCount: 2
Fore
SplineSet
179.5 23.5 m 0
 141.833007812 43.1669921875 112.333984375 70.833984375 91.0009765625 106.500976562 c 0
 69.66796875 142.16796875 59.0009765625 182.66796875 59.0009765625 228.000976562 c 2
 59.0009765625 690.000976562 l 1
 190.000976562 690.000976562 l 1
 190.000976562 232.000976562 l 2
 190.000976562 192.66796875 200.333984375 162.16796875 221.000976562 140.500976562 c 0
 241.66796875 118.833984375 270.000976562 108.000976562 306.000976562 108.000976562 c 0
 342.000976562 108.000976562 370.500976562 118.833984375 391.500976562 140.500976562 c 0
 412.500976562 162.16796875 423.000976562 192.66796875 423.000976562 232.000976562 c 2
 423.000976562 690.000976562 l 1
 555.000976562 690.000976562 l 1
 555.000976562 228.000976562 l 2
 555.000976562 182.66796875 544.16796875 142.16796875 522.500976562 106.500976562 c 0
 500.833984375 70.833984375 471.166992188 43.1669921875 433.500976562 23.5 c 0
 395.833984375 3.8330078125 353.333984375 -6 306.000976562 -6 c 0
 259.333984375 -6 217.166992188 3.8330078125 179.5 23.5 c 0
261.000976562 898 m 1
 352.000976562 898 l 1
 467.000976562 747 l 1
 370.000976562 747 l 1
 307.000976562 825 l 1
 244.000976562 747 l 1
 146.000976562 747 l 1
 261.000976562 898 l 1
EndSplineSet
EndChar

StartChar: Udieresis
Encoding: 220 220 157
Width: 614
GlyphClass: 2
Flags: W
AnchorPoint: "Anchor-0" 307 690 basechar 0
LayerCount: 2
Fore
SplineSet
179.5 23.5 m 0
 141.833007812 43.1669921875 112.333984375 70.833984375 91.0009765625 106.500976562 c 0
 69.66796875 142.16796875 59.0009765625 182.66796875 59.0009765625 228.000976562 c 2
 59.0009765625 690.000976562 l 1
 190.000976562 690.000976562 l 1
 190.000976562 232.000976562 l 2
 190.000976562 192.66796875 200.333984375 162.16796875 221.000976562 140.500976562 c 0
 241.66796875 118.833984375 270.000976562 108.000976562 306.000976562 108.000976562 c 0
 342.000976562 108.000976562 370.500976562 118.833984375 391.500976562 140.500976562 c 0
 412.500976562 162.16796875 423.000976562 192.66796875 423.000976562 232.000976562 c 2
 423.000976562 690.000976562 l 1
 555.000976562 690.000976562 l 1
 555.000976562 228.000976562 l 2
 555.000976562 182.66796875 544.16796875 142.16796875 522.500976562 106.500976562 c 0
 500.833984375 70.833984375 471.166992188 43.1669921875 433.500976562 23.5 c 0
 395.833984375 3.8330078125 353.333984375 -6 306.000976562 -6 c 0
 259.333984375 -6 217.166992188 3.8330078125 179.5 23.5 c 0
157.000976562 873 m 1
 264.000976562 873 l 1
 264.000976562 757 l 1
 157.000976562 757 l 1
 157.000976562 873 l 1
349.000976562 873 m 1
 456.000976562 873 l 1
 456.000976562 757 l 1
 349.000976562 757 l 1
 349.000976562 873 l 1
EndSplineSet
EndChar

StartChar: Yacute
Encoding: 221 221 158
Width: 541
GlyphClass: 2
Flags: W
AnchorPoint: "Anchor-0" 270 690 basechar 0
LayerCount: 2
Fore
SplineSet
336 284 m 1
 336 0 l 1
 205 0 l 1
 205 283 l 1
 4 690 l 1
 147 690 l 1
 270 410 l 1
 393 690 l 1
 537 690 l 1
 336 284 l 1
285 891 m 1
 422 891 l 1
 284 758 l 1
 177 758 l 1
 285 891 l 1
EndSplineSet
EndChar

StartChar: Thorn
Encoding: 222 222 159
Width: 567
GlyphClass: 2
Flags: W
LayerCount: 2
Fore
SplineSet
482.5 518 m 0
 522.833007812 479.333007812 543 426.333007812 543 359 c 0
 543 295 522.833007812 244 482.5 206 c 0
 442.166992188 168 387 149 317 149 c 2
 190 149 l 1
 190 0 l 1
 59 0 l 1
 59 690 l 1
 190 690 l 1
 190 576 l 1
 317 576 l 2
 387 576 442.166992188 556.666992188 482.5 518 c 0
385 288 m 0
 403 304.666992188 412 328.333007812 412 359 c 0
 412 392.333007812 403.166992188 417.833007812 385.5 435.5 c 0
 367.833007812 453.166992188 343 462 311 462 c 2
 190 462 l 1
 190 263 l 1
 311 263 l 2
 342.333007812 263 367 271.333007812 385 288 c 0
EndSplineSet
EndChar

StartChar: germandbls
Encoding: 223 223 160
Width: 524
GlyphClass: 2
Flags: W
LayerCount: 2
Fore
SplineSet
254 100 m 1
 286.001953125 100.000976562 l 2
 308.001953125 100.000976562 324.001953125 104.16796875 334.001953125 112.500976562 c 0
 344.001953125 120.833984375 350.168945312 133.500976562 352.501953125 150.500976562 c 0
 354.834960938 167.500976562 356.001953125 194.000976562 356.001953125 230.000976562 c 0
 356.001953125 265.334960938 354.501953125 291.66796875 351.501953125 309.000976562 c 0
 348.501953125 326.333984375 341.334960938 339.500976562 330.001953125 348.500976562 c 0
 318.668945312 357.500976562 301.001953125 362.000976562 277.001953125 362.000976562 c 2
 254.001953125 362.000976562 l 1
 254.001953125 465.000976562 l 1
 285.001953125 465.000976562 l 2
 307.001953125 465.000976562 322.834960938 470.333984375 332.501953125 481.000976562 c 0
 342.168945312 491.66796875 347.001953125 507.66796875 347.001953125 529.000976562 c 0
 347.001953125 551.66796875 340.334960938 568.16796875 327.001953125 578.500976562 c 0
 313.668945312 588.833984375 293.001953125 594.000976562 265.001953125 594.000976562 c 0
 235.001953125 594.000976562 213.001953125 587.16796875 199.001953125 573.500976562 c 0
 185.001953125 559.833984375 178.001953125 538.333984375 178.001953125 509.000976562 c 2
 178.001953125 0.0009765625 l 1
 54.001953125 0.0009765625 l 1
 54.001953125 498.000976562 l 2
 54.001953125 564.000976562 70.6689453125 614.16796875 104.001953125 648.500976562 c 0
 137.334960938 682.833984375 190.66796875 700.000976562 264.000976562 700.000976562 c 0
 329.333984375 700.000976562 380.000976562 685.66796875 416.000976562 657.000976562 c 0
 452.000976562 628.333984375 470.000976562 587.666992188 470.000976562 535 c 0
 470.000976562 508.333007812 465.500976562 485.5 456.500976562 466.5 c 0
 447.500976562 447.5 433.000976562 431.333007812 413.000976562 418 c 1
 432.334960938 407.333007812 446.66796875 394.5 456 379.5 c 0
 465.333007812 364.5 471.5 345.5 474.5 322.5 c 0
 477.5 299.5 479 268 479 228 c 0
 479 168 474.166992188 121.833007812 464.5 89.5 c 0
 454.833007812 57.1669921875 437 33.5 411 18.5 c 0
 385 3.5 346.333007812 -4 295 -4 c 2
 254 -4 l 1
 254 100 l 1
EndSplineSet
EndChar

StartChar: agrave
Encoding: 224 224 161
Width: 501
GlyphClass: 2
Flags: W
AnchorPoint: "Anchor-0" 242 520 basechar 0
LayerCount: 2
Fore
SplineSet
394 479.5 m 0
 429.333007812 448.5 446.997070312 402.666015625 446.997070312 341.999023438 c 2
 446.997070312 -0.0009765625 l 1
 326.997070312 -0.0009765625 l 1
 326.997070312 44.9990234375 l 1
 309.6640625 26.9990234375 291.831054688 13.9990234375 273.498046875 5.9990234375 c 0
 255.165039062 -2.0009765625 231.998046875 -6.0009765625 203.998046875 -6.0009765625 c 0
 150.665039062 -6.0009765625 109.33203125 8.33203125 79.9990234375 36.9990234375 c 0
 50.666015625 65.666015625 35.9990234375 105.333007812 35.9990234375 156 c 0
 35.9990234375 202.666992188 51.666015625 239.5 82.9990234375 266.5 c 0
 114.33203125 293.5 157.999023438 307 213.999023438 307 c 2
 323.999023438 307 l 1
 323.999023438 348 l 2
 323.999023438 403.333007812 296.33203125 431 240.999023438 431 c 0
 217.666015625 431 199.166015625 425.166992188 185.499023438 413.5 c 0
 171.83203125 401.833007812 164.999023438 386.333007812 164.999023438 367 c 2
 164.999023438 364 l 1
 49.9990234375 364 l 1
 49.9990234375 368 l 2
 49.9990234375 416.666992188 67.33203125 455.166992188 101.999023438 483.5 c 0
 136.666015625 511.833007812 183.333007812 526 242 526 c 0
 308 526 358.666992188 510.5 394 479.5 c 0
302.497070312 116.499023438 m 0
 316.830078125 131.499023438 323.997070312 154.33203125 323.997070312 184.999023438 c 2
 323.997070312 221.999023438 l 1
 233.997070312 221.999023438 l 2
 181.997070312 221.999023438 155.997070312 200.999023438 155.997070312 158.999023438 c 0
 155.997070312 115.666015625 181.330078125 93.9990234375 231.997070312 93.9990234375 c 0
 264.6640625 93.9990234375 288.1640625 101.499023438 302.497070312 116.499023438 c 0
82.9970703125 720.999023438 m 1
 219.997070312 720.999023438 l 1
 327.997070312 587.999023438 l 1
 220.997070312 587.999023438 l 1
 82.9970703125 720.999023438 l 1
EndSplineSet
EndChar

StartChar: aacute
Encoding: 225 225 162
Width: 501
GlyphClass: 2
Flags: W
AnchorPoint: "Anchor-0" 242 520 basechar 0
LayerCount: 2
Fore
SplineSet
394 479.5 m 0
 429.333007812 448.5 446.997070312 402.666015625 446.997070312 341.999023438 c 2
 446.997070312 -0.0009765625 l 1
 326.997070312 -0.0009765625 l 1
 326.997070312 44.9990234375 l 1
 309.6640625 26.9990234375 291.831054688 13.9990234375 273.498046875 5.9990234375 c 0
 255.165039062 -2.0009765625 231.998046875 -6.0009765625 203.998046875 -6.0009765625 c 0
 150.665039062 -6.0009765625 109.33203125 8.33203125 79.9990234375 36.9990234375 c 0
 50.666015625 65.666015625 35.9990234375 105.333007812 35.9990234375 156 c 0
 35.9990234375 202.666992188 51.666015625 239.5 82.9990234375 266.5 c 0
 114.33203125 293.5 157.999023438 307 213.999023438 307 c 2
 323.999023438 307 l 1
 323.999023438 348 l 2
 323.999023438 403.333007812 296.33203125 431 240.999023438 431 c 0
 217.666015625 431 199.166015625 425.166992188 185.499023438 413.5 c 0
 171.83203125 401.833007812 164.999023438 386.333007812 164.999023438 367 c 2
 164.999023438 364 l 1
 49.9990234375 364 l 1
 49.9990234375 368 l 2
 49.9990234375 416.666992188 67.33203125 455.166992188 101.999023438 483.5 c 0
 136.666015625 511.833007812 183.333007812 526 242 526 c 0
 308 526 358.666992188 510.5 394 479.5 c 0
302.497070312 116.499023438 m 0
 316.830078125 131.499023438 323.997070312 154.33203125 323.997070312 184.999023438 c 2
 323.997070312 221.999023438 l 1
 233.997070312 221.999023438 l 2
 181.997070312 221.999023438 155.997070312 200.999023438 155.997070312 158.999023438 c 0
 155.997070312 115.666015625 181.330078125 93.9990234375 231.997070312 93.9990234375 c 0
 264.6640625 93.9990234375 288.1640625 101.499023438 302.497070312 116.499023438 c 0
256.997070312 720.999023438 m 1
 393.997070312 720.999023438 l 1
 255.997070312 587.999023438 l 1
 148.997070312 587.999023438 l 1
 256.997070312 720.999023438 l 1
EndSplineSet
EndChar

StartChar: acircumflex
Encoding: 226 226 163
Width: 501
GlyphClass: 2
Flags: W
AnchorPoint: "Anchor-0" 242 520 basechar 0
LayerCount: 2
Fore
SplineSet
394 479.5 m 0
 429.333007812 448.5 446.997070312 402.666015625 446.997070312 341.999023438 c 2
 446.997070312 -0.0009765625 l 1
 326.997070312 -0.0009765625 l 1
 326.997070312 44.9990234375 l 1
 309.6640625 26.9990234375 291.831054688 13.9990234375 273.498046875 5.9990234375 c 0
 255.165039062 -2.0009765625 231.998046875 -6.0009765625 203.998046875 -6.0009765625 c 0
 150.665039062 -6.0009765625 109.33203125 8.33203125 79.9990234375 36.9990234375 c 0
 50.666015625 65.666015625 35.9990234375 105.333007812 35.9990234375 156 c 0
 35.9990234375 202.666992188 51.666015625 239.5 82.9990234375 266.5 c 0
 114.33203125 293.5 157.999023438 307 213.999023438 307 c 2
 323.999023438 307 l 1
 323.999023438 348 l 2
 323.999023438 403.333007812 296.33203125 431 240.999023438 431 c 0
 217.666015625 431 199.166015625 425.166992188 185.499023438 413.5 c 0
 171.83203125 401.833007812 164.999023438 386.333007812 164.999023438 367 c 2
 164.999023438 364 l 1
 49.9990234375 364 l 1
 49.9990234375 368 l 2
 49.9990234375 416.666992188 67.33203125 455.166992188 101.999023438 483.5 c 0
 136.666015625 511.833007812 183.333007812 526 242 526 c 0
 308 526 358.666992188 510.5 394 479.5 c 0
302.497070312 116.499023438 m 0
 316.830078125 131.499023438 323.997070312 154.33203125 323.997070312 184.999023438 c 2
 323.997070312 221.999023438 l 1
 233.997070312 221.999023438 l 2
 181.997070312 221.999023438 155.997070312 200.999023438 155.997070312 158.999023438 c 0
 155.997070312 115.666015625 181.330078125 93.9990234375 231.997070312 93.9990234375 c 0
 264.6640625 93.9990234375 288.1640625 101.499023438 302.497070312 116.499023438 c 0
195.997070312 727.999023438 m 1
 286.997070312 727.999023438 l 1
 401.997070312 576.999023438 l 1
 304.997070312 576.999023438 l 1
 241.997070312 654.999023438 l 1
 178.997070312 576.999023438 l 1
 80.9970703125 576.999023438 l 1
 195.997070312 727.999023438 l 1
EndSplineSet
EndChar

StartChar: atilde
Encoding: 227 227 164
Width: 501
GlyphClass: 2
Flags: W
AnchorPoint: "Anchor-0" 242 520 basechar 0
LayerCount: 2
Fore
SplineSet
394 479.5 m 0
 429.333007812 448.5 446.997070312 402.666015625 446.997070312 341.999023438 c 2
 446.997070312 -0.0009765625 l 1
 326.997070312 -0.0009765625 l 1
 326.997070312 44.9990234375 l 1
 309.6640625 26.9990234375 291.831054688 13.9990234375 273.498046875 5.9990234375 c 0
 255.165039062 -2.0009765625 231.998046875 -6.0009765625 203.998046875 -6.0009765625 c 0
 150.665039062 -6.0009765625 109.33203125 8.33203125 79.9990234375 36.9990234375 c 0
 50.666015625 65.666015625 35.9990234375 105.333007812 35.9990234375 156 c 0
 35.9990234375 202.666992188 51.666015625 239.5 82.9990234375 266.5 c 0
 114.33203125 293.5 157.999023438 307 213.999023438 307 c 2
 323.999023438 307 l 1
 323.999023438 348 l 2
 323.999023438 403.333007812 296.33203125 431 240.999023438 431 c 0
 217.666015625 431 199.166015625 425.166992188 185.499023438 413.5 c 0
 171.83203125 401.833007812 164.999023438 386.333007812 164.999023438 367 c 2
 164.999023438 364 l 1
 49.9990234375 364 l 1
 49.9990234375 368 l 2
 49.9990234375 416.666992188 67.33203125 455.166992188 101.999023438 483.5 c 0
 136.666015625 511.833007812 183.333007812 526 242 526 c 0
 308 526 358.666992188 510.5 394 479.5 c 0
302.497070312 116.499023438 m 0
 316.830078125 131.499023438 323.997070312 154.33203125 323.997070312 184.999023438 c 2
 323.997070312 221.999023438 l 1
 233.997070312 221.999023438 l 2
 181.997070312 221.999023438 155.997070312 200.999023438 155.997070312 158.999023438 c 0
 155.997070312 115.666015625 181.330078125 93.9990234375 231.997070312 93.9990234375 c 0
 264.6640625 93.9990234375 288.1640625 101.499023438 302.497070312 116.499023438 c 0
99.9970703125 671.999023438 m 1
 115.330078125 687.33203125 128.830078125 698.333007812 140.497070312 705 c 0
 152.1640625 711.666992188 165.6640625 715 180.997070312 715 c 0
 194.330078125 715 205.997070312 713.333007812 215.997070312 710 c 0
 225.997070312 706.666015625 237.997070312 701.333007812 251.997070312 694 c 0
 273.331054688 682.666992188 291.6640625 677 306.997070312 677 c 0
 320.330078125 677 331.997070312 679.666992188 341.997070312 685 c 0
 351.997070312 690.333007812 365.6640625 701 382.997070312 717 c 1
 382.997070312 626 l 1
 367.6640625 610.666992188 354.1640625 599.666992188 342.497070312 593 c 0
 330.830078125 586.333007812 317.330078125 583 301.997070312 583 c 0
 289.330078125 583 277.997070312 584.666992188 267.997070312 588 c 0
 257.997070312 591.333007812 245.997070312 596.666015625 231.997070312 603.999023438 c 0
 210.663085938 615.33203125 192.330078125 620.999023438 176.997070312 620.999023438 c 0
 163.6640625 620.999023438 151.997070312 618.33203125 141.997070312 612.999023438 c 0
 131.997070312 607.661132812 117.997070312 597.328125 99.9970703125 581.999023438 c 1
 99.9970703125 671.999023438 l 1
EndSplineSet
EndChar

StartChar: adieresis
Encoding: 228 228 165
Width: 501
GlyphClass: 2
Flags: W
AnchorPoint: "Anchor-0" 242 520 basechar 0
LayerCount: 2
Fore
SplineSet
394 479.5 m 0
 429.333007812 448.5 446.997070312 402.666015625 446.997070312 341.999023438 c 2
 446.997070312 -0.0009765625 l 1
 326.997070312 -0.0009765625 l 1
 326.997070312 44.9990234375 l 1
 309.6640625 26.9990234375 291.831054688 13.9990234375 273.498046875 5.9990234375 c 0
 255.165039062 -2.0009765625 231.998046875 -6.0009765625 203.998046875 -6.0009765625 c 0
 150.665039062 -6.0009765625 109.33203125 8.33203125 79.9990234375 36.9990234375 c 0
 50.666015625 65.666015625 35.9990234375 105.333007812 35.9990234375 156 c 0
 35.9990234375 202.666992188 51.666015625 239.5 82.9990234375 266.5 c 0
 114.33203125 293.5 157.999023438 307 213.999023438 307 c 2
 323.999023438 307 l 1
 323.999023438 348 l 2
 323.999023438 403.333007812 296.33203125 431 240.999023438 431 c 0
 217.666015625 431 199.166015625 425.166992188 185.499023438 413.5 c 0
 171.83203125 401.833007812 164.999023438 386.333007812 164.999023438 367 c 2
 164.999023438 364 l 1
 49.9990234375 364 l 1
 49.9990234375 368 l 2
 49.9990234375 416.666992188 67.33203125 455.166992188 101.999023438 483.5 c 0
 136.666015625 511.833007812 183.333007812 526 242 526 c 0
 308 526 358.666992188 510.5 394 479.5 c 0
302.497070312 116.499023438 m 0
 316.830078125 131.499023438 323.997070312 154.33203125 323.997070312 184.999023438 c 2
 323.997070312 221.999023438 l 1
 233.997070312 221.999023438 l 2
 181.997070312 221.999023438 155.997070312 200.999023438 155.997070312 158.999023438 c 0
 155.997070312 115.666015625 181.330078125 93.9990234375 231.997070312 93.9990234375 c 0
 264.6640625 93.9990234375 288.1640625 101.499023438 302.497070312 116.499023438 c 0
91.9970703125 702.999023438 m 1
 198.997070312 702.999023438 l 1
 198.997070312 586.999023438 l 1
 91.9970703125 586.999023438 l 1
 91.9970703125 702.999023438 l 1
283.997070312 702.999023438 m 1
 390.997070312 702.999023438 l 1
 390.997070312 586.999023438 l 1
 283.997070312 586.999023438 l 1
 283.997070312 702.999023438 l 1
EndSplineSet
EndChar

StartChar: aring
Encoding: 229 229 166
Width: 501
GlyphClass: 2
Flags: W
AnchorPoint: "Anchor-0" 242 520 basechar 0
LayerCount: 2
Fore
SplineSet
394 479.5 m 0
 429.333007812 448.5 446.997070312 402.666015625 446.997070312 341.999023438 c 2
 446.997070312 -0.0009765625 l 1
 326.997070312 -0.0009765625 l 1
 326.997070312 44.9990234375 l 1
 309.6640625 26.9990234375 291.831054688 13.9990234375 273.498046875 5.9990234375 c 0
 255.165039062 -2.0009765625 231.998046875 -6.0009765625 203.998046875 -6.0009765625 c 0
 150.665039062 -6.0009765625 109.33203125 8.33203125 79.9990234375 36.9990234375 c 0
 50.666015625 65.666015625 35.9990234375 105.333007812 35.9990234375 156 c 0
 35.9990234375 202.666992188 51.666015625 239.5 82.9990234375 266.5 c 0
 114.33203125 293.5 157.999023438 307 213.999023438 307 c 2
 323.999023438 307 l 1
 323.999023438 348 l 2
 323.999023438 403.333007812 296.33203125 431 240.999023438 431 c 0
 217.666015625 431 199.166015625 425.166992188 185.499023438 413.5 c 0
 171.83203125 401.833007812 164.999023438 386.333007812 164.999023438 367 c 2
 164.999023438 364 l 1
 49.9990234375 364 l 1
 49.9990234375 368 l 2
 49.9990234375 416.666992188 67.33203125 455.166992188 101.999023438 483.5 c 0
 136.666015625 511.833007812 183.333007812 526 242 526 c 0
 308 526 358.666992188 510.5 394 479.5 c 0
302.497070312 116.499023438 m 0
 316.830078125 131.499023438 323.997070312 154.33203125 323.997070312 184.999023438 c 2
 323.997070312 221.999023438 l 1
 233.997070312 221.999023438 l 2
 181.997070312 221.999023438 155.997070312 200.999023438 155.997070312 158.999023438 c 0
 155.997070312 115.666015625 181.330078125 93.9990234375 231.997070312 93.9990234375 c 0
 264.6640625 93.9990234375 288.1640625 101.499023438 302.497070312 116.499023438 c 0
168.497070312 576.499023438 m 0
 148.830078125 596.166015625 138.997070312 620.666015625 138.997070312 649.999023438 c 0
 138.997070312 679.999023438 148.830078125 704.83203125 168.497070312 724.499023438 c 0
 188.1640625 744.166015625 212.6640625 753.999023438 241.997070312 753.999023438 c 0
 271.330078125 753.999023438 295.830078125 744.166015625 315.497070312 724.499023438 c 0
 335.1640625 704.83203125 344.997070312 679.999023438 344.997070312 649.999023438 c 0
 344.997070312 620.666015625 335.1640625 596.166015625 315.497070312 576.499023438 c 0
 295.830078125 556.83203125 271.330078125 546.999023438 241.997070312 546.999023438 c 0
 212.6640625 546.999023438 188.1640625 556.83203125 168.497070312 576.499023438 c 0
275.497070312 615.999023438 m 0
 284.497070312 625.33203125 288.997070312 636.666015625 288.997070312 649.999023438 c 0
 288.997070312 663.999023438 284.497070312 675.666015625 275.497070312 684.999023438 c 0
 266.497070312 694.33203125 255.330078125 698.999023438 241.997070312 698.999023438 c 0
 228.6640625 698.999023438 217.6640625 694.33203125 208.997070312 684.999023438 c 0
 200.330078125 675.666015625 195.997070312 663.999023438 195.997070312 649.999023438 c 0
 195.997070312 636.663085938 200.497070312 625.330078125 209.497070312 615.999023438 c 0
 218.497070312 606.666015625 229.330078125 601.999023438 241.997070312 601.999023438 c 0
 255.330078125 601.999023438 266.497070312 606.666015625 275.497070312 615.999023438 c 0
EndSplineSet
EndChar

StartChar: ae
Encoding: 230 230 167
Width: 795
GlyphClass: 2
Flags: W
LayerCount: 2
Fore
SplineSet
447 209 m 2
 447 170.333007812 455.499023438 142.666015625 472.499023438 125.999023438 c 0
 489.499023438 109.33203125 513.999023438 100.999023438 545.999023438 100.999023438 c 0
 569.999023438 100.999023438 589.166015625 106.166015625 603.499023438 116.499023438 c 0
 617.83203125 126.83203125 625.999023438 141.33203125 627.999023438 159.999023438 c 2
 627.999023438 162.999023438 l 1
 745.999023438 162.999023438 l 1
 745.999023438 157.999023438 l 2
 745.999023438 127.999023438 738.499023438 100.499023438 723.499023438 75.4990234375 c 0
 708.499023438 50.4990234375 686.33203125 30.666015625 656.999023438 15.9990234375 c 0
 627.666015625 1.33203125 591.999023438 -6.0009765625 549.999023438 -6.0009765625 c 0
 480.666015625 -6.0009765625 425.999023438 14.9990234375 385.999023438 56.9990234375 c 1
 366.666015625 36.9990234375 343.166015625 21.4990234375 315.499023438 10.4990234375 c 0
 287.83203125 -0.5009765625 256.665039062 -6.0009765625 221.999023438 -6.0009765625 c 0
 165.33203125 -6.0009765625 120.165039062 8.4990234375 86.498046875 37.4990234375 c 0
 52.8310546875 66.4990234375 35.998046875 105.999023438 35.998046875 155.999023438 c 0
 35.998046875 202.666015625 51.6650390625 239.499023438 82.998046875 266.499023438 c 0
 114.331054688 293.499023438 157.998046875 306.999023438 213.998046875 306.999023438 c 2
 323.998046875 306.999023438 l 1
 323.998046875 347.999023438 l 2
 323.998046875 403.33203125 296.331054688 430.999023438 240.998046875 430.999023438 c 0
 217.665039062 430.999023438 199.165039062 425.166015625 185.498046875 413.499023438 c 0
 171.831054688 401.83203125 164.998046875 386.33203125 164.998046875 366.999023438 c 2
 164.998046875 363.999023438 l 1
 49.998046875 363.999023438 l 1
 49.998046875 367.999023438 l 2
 49.998046875 416.666015625 67.3310546875 455.166015625 101.998046875 483.499023438 c 0
 136.665039062 511.83203125 183.33203125 525.999023438 241.999023438 525.999023438 c 0
 306.666015625 525.999023438 357.333007812 509.33203125 394 475.999023438 c 1
 431.333007812 509.33203125 479.333007812 525.999023438 538 525.999023438 c 0
 602.666992188 525.999023438 654.166992188 506.33203125 692.5 466.999023438 c 0
 730.833007812 427.666015625 750 369.333007812 750 292 c 2
 750 223 l 1
 447 223 l 1
 447 209 l 2
470.499023438 395 m 0
 454.83203125 378.333007812 446.999023438 350.333007812 446.999023438 311 c 2
 446.999023438 308 l 1
 626.999023438 308 l 1
 626.999023438 321 l 2
 626.999023438 387 597.33203125 420 537.999023438 420 c 0
 508.666015625 420 486.166015625 411.666992188 470.499023438 395 c 0
323.999023438 190 m 2
 323.999023438 222 l 1
 233.999023438 222 l 2
 181.999023438 222 155.999023438 201 155.999023438 159 c 0
 155.999023438 115.666992188 181.33203125 94 231.999023438 94 c 0
 293.33203125 94 323.999023438 126 323.999023438 190 c 2
EndSplineSet
EndChar

StartChar: ccedilla
Encoding: 231 231 168
Width: 505
GlyphClass: 2
Flags: W
LayerCount: 2
Fore
SplineSet
342 331 m 1
 342 337.002929688 l 2
 342 361.669921875 334.5 381.002929688 319.5 395.002929688 c 0
 304.5 409.002929688 284 416.002929688 258 416.002929688 c 0
 198 416.002929688 168 379.669921875 168 307.002929688 c 2
 168 213.002929688 l 2
 168 173.669921875 175.833007812 145.669921875 191.5 129.002929688 c 0
 207.166992188 112.3359375 229.333984375 104.002929688 258 104.002929688 c 0
 284 104.002929688 304.5 110.669921875 319.5 124.002929688 c 0
 334.5 137.3359375 342 156.002929688 342 180.002929688 c 2
 342 186.002929688 l 1
 460 186.002929688 l 1
 460 179.002929688 l 2
 460 132.3359375 447.833007812 93.6689453125 423.5 63.001953125 c 0
 399.166992188 32.3349609375 365 11.66796875 321 1.0009765625 c 1
 272 -155.999023438 l 1
 158 -155.999023438 l 1
 220 -3.9990234375 l 1
 165.333007812 2.0009765625 122.5 22.66796875 91.5 58.0009765625 c 0
 60.5 93.333984375 45 144.666992188 45 212 c 2
 45 309 l 2
 45 383 63.8330078125 437.666992188 101.5 473 c 0
 139.166992188 508.333007812 190.666992188 526 256 526 c 0
 320 526 370 509.666992188 406 477 c 0
 442 444.333007812 460 399 460 341 c 2
 460 331 l 1
 342 331 l 1
EndSplineSet
EndChar

StartChar: egrave
Encoding: 232 232 169
Width: 517
GlyphClass: 2
Flags: W
AnchorPoint: "Anchor-0" 258 520 basechar 0
LayerCount: 2
Fore
SplineSet
168 223 m 1
 168 209 l 2
 168 170.333007812 176.666992188 142.666015625 194 125.999023438 c 0
 211.333007812 109.33203125 236 100.999023438 268 100.999023438 c 0
 292.666992188 100.999023438 312 106.166015625 326 116.499023438 c 0
 340 126.83203125 347.666992188 141.33203125 349 159.999023438 c 1
 350 162.999023438 l 1
 468 162.999023438 l 1
 468 157.999023438 l 2
 468 108.666015625 449.666992188 68.9990234375 413 38.9990234375 c 0
 376.333007812 8.9990234375 326.333007812 -6.0009765625 263 -6.0009765625 c 0
 196.333007812 -6.0009765625 143.333007812 13.166015625 104 51.4990234375 c 0
 64.6669921875 89.83203125 45 148.999023438 45 228.999023438 c 2
 45 291.999023438 l 2
 45 369.999023438 64 428.499023438 102 467.499023438 c 0
 140 506.499023438 192.333007812 525.999023438 259 525.999023438 c 0
 324.333984375 525.999023438 376.166992188 506.33203125 414.5 466.999023438 c 0
 452.833007812 427.666015625 472 369.333007812 472 292 c 2
 472 223 l 1
 168 223 l 1
191.5 395 m 0
 175.833007812 378.333007812 168 350.333007812 168 311 c 2
 168 308 l 1
 348 308 l 1
 348 321 l 2
 348 387 318.333007812 420 259 420 c 0
 229.666992188 420 207.166992188 411.666992188 191.5 395 c 0
99 721 m 1
 236 721 l 1
 344 588 l 1
 237 588 l 1
 99 721 l 1
EndSplineSet
EndChar

StartChar: eacute
Encoding: 233 233 170
Width: 517
GlyphClass: 2
Flags: W
AnchorPoint: "Anchor-0" 258 520 basechar 0
LayerCount: 2
Fore
SplineSet
168 223 m 1
 168 209 l 2
 168 170.333007812 176.666992188 142.666015625 194 125.999023438 c 0
 211.333007812 109.33203125 236 100.999023438 268 100.999023438 c 0
 292.666992188 100.999023438 312 106.166015625 326 116.499023438 c 0
 340 126.83203125 347.666992188 141.33203125 349 159.999023438 c 1
 350 162.999023438 l 1
 468 162.999023438 l 1
 468 157.999023438 l 2
 468 108.666015625 449.666992188 68.9990234375 413 38.9990234375 c 0
 376.333007812 8.9990234375 326.333007812 -6.0009765625 263 -6.0009765625 c 0
 196.333007812 -6.0009765625 143.333007812 13.166015625 104 51.4990234375 c 0
 64.6669921875 89.83203125 45 148.999023438 45 228.999023438 c 2
 45 291.999023438 l 2
 45 369.999023438 64 428.499023438 102 467.499023438 c 0
 140 506.499023438 192.333007812 525.999023438 259 525.999023438 c 0
 324.333984375 525.999023438 376.166992188 506.33203125 414.5 466.999023438 c 0
 452.833007812 427.666015625 472 369.333007812 472 292 c 2
 472 223 l 1
 168 223 l 1
191.5 395 m 0
 175.833007812 378.333007812 168 350.333007812 168 311 c 2
 168 308 l 1
 348 308 l 1
 348 321 l 2
 348 387 318.333007812 420 259 420 c 0
 229.666992188 420 207.166992188 411.666992188 191.5 395 c 0
273 721 m 1
 410 721 l 1
 272 588 l 1
 165 588 l 1
 273 721 l 1
EndSplineSet
EndChar

StartChar: ecircumflex
Encoding: 234 234 171
Width: 517
GlyphClass: 2
Flags: W
AnchorPoint: "Anchor-0" 258 520 basechar 0
LayerCount: 2
Fore
SplineSet
168 223 m 1
 168 209 l 2
 168 170.333007812 176.666992188 142.666015625 194 125.999023438 c 0
 211.333007812 109.33203125 236 100.999023438 268 100.999023438 c 0
 292.666992188 100.999023438 312 106.166015625 326 116.499023438 c 0
 340 126.83203125 347.666992188 141.33203125 349 159.999023438 c 1
 350 162.999023438 l 1
 468 162.999023438 l 1
 468 157.999023438 l 2
 468 108.666015625 449.666992188 68.9990234375 413 38.9990234375 c 0
 376.333007812 8.9990234375 326.333007812 -6.0009765625 263 -6.0009765625 c 0
 196.333007812 -6.0009765625 143.333007812 13.166015625 104 51.4990234375 c 0
 64.6669921875 89.83203125 45 148.999023438 45 228.999023438 c 2
 45 291.999023438 l 2
 45 369.999023438 64 428.499023438 102 467.499023438 c 0
 140 506.499023438 192.333007812 525.999023438 259 525.999023438 c 0
 324.333984375 525.999023438 376.166992188 506.33203125 414.5 466.999023438 c 0
 452.833007812 427.666015625 472 369.333007812 472 292 c 2
 472 223 l 1
 168 223 l 1
191.5 395 m 0
 175.833007812 378.333007812 168 350.333007812 168 311 c 2
 168 308 l 1
 348 308 l 1
 348 321 l 2
 348 387 318.333007812 420 259 420 c 0
 229.666992188 420 207.166992188 411.666992188 191.5 395 c 0
212 728 m 1
 303 728 l 1
 418 577 l 1
 321 577 l 1
 258 655 l 1
 195 577 l 1
 97 577 l 1
 212 728 l 1
EndSplineSet
EndChar

StartChar: edieresis
Encoding: 235 235 172
Width: 517
GlyphClass: 2
Flags: W
AnchorPoint: "Anchor-0" 258 520 basechar 0
LayerCount: 2
Fore
SplineSet
168 223 m 1
 168 209 l 2
 168 170.333007812 176.666992188 142.666015625 194 125.999023438 c 0
 211.333007812 109.33203125 236 100.999023438 268 100.999023438 c 0
 292.666992188 100.999023438 312 106.166015625 326 116.499023438 c 0
 340 126.83203125 347.666992188 141.33203125 349 159.999023438 c 1
 350 162.999023438 l 1
 468 162.999023438 l 1
 468 157.999023438 l 2
 468 108.666015625 449.666992188 68.9990234375 413 38.9990234375 c 0
 376.333007812 8.9990234375 326.333007812 -6.0009765625 263 -6.0009765625 c 0
 196.333007812 -6.0009765625 143.333007812 13.166015625 104 51.4990234375 c 0
 64.6669921875 89.83203125 45 148.999023438 45 228.999023438 c 2
 45 291.999023438 l 2
 45 369.999023438 64 428.499023438 102 467.499023438 c 0
 140 506.499023438 192.333007812 525.999023438 259 525.999023438 c 0
 324.333984375 525.999023438 376.166992188 506.33203125 414.5 466.999023438 c 0
 452.833007812 427.666015625 472 369.333007812 472 292 c 2
 472 223 l 1
 168 223 l 1
191.5 395 m 0
 175.833007812 378.333007812 168 350.333007812 168 311 c 2
 168 308 l 1
 348 308 l 1
 348 321 l 2
 348 387 318.333007812 420 259 420 c 0
 229.666992188 420 207.166992188 411.666992188 191.5 395 c 0
108 703 m 1
 215 703 l 1
 215 587 l 1
 108 587 l 1
 108 703 l 1
300 703 m 1
 407 703 l 1
 407 587 l 1
 300 587 l 1
 300 703 l 1
EndSplineSet
EndChar

StartChar: igrave
Encoding: 236 236 173
Width: 241
GlyphClass: 2
Flags: W
AnchorPoint: "Anchor-0" 120 520 basechar 0
LayerCount: 2
Fore
SplineSet
59 520 m 1
 182 520 l 1
 182 0 l 1
 59 0 l 1
 59 520 l 1
-39 721 m 1
 98 721 l 1
 206 588 l 1
 99 588 l 1
 -39 721 l 1
EndSplineSet
EndChar

StartChar: iacute
Encoding: 237 237 174
Width: 241
GlyphClass: 2
Flags: W
AnchorPoint: "Anchor-0" 120 520 basechar 0
LayerCount: 2
Fore
SplineSet
59 520 m 1
 182 520 l 1
 182 0 l 1
 59 0 l 1
 59 520 l 1
135 721 m 1
 272 721 l 1
 134 588 l 1
 27 588 l 1
 135 721 l 1
EndSplineSet
EndChar

StartChar: icircumflex
Encoding: 238 238 175
Width: 241
GlyphClass: 2
Flags: W
AnchorPoint: "Anchor-0" 120 520 basechar 0
LayerCount: 2
Fore
SplineSet
59 520 m 1
 182 520 l 1
 182 0 l 1
 59 0 l 1
 59 520 l 1
74 728 m 1
 165 728 l 1
 280 577 l 1
 183 577 l 1
 120 655 l 1
 57 577 l 1
 -41 577 l 1
 74 728 l 1
EndSplineSet
EndChar

StartChar: idieresis
Encoding: 239 239 176
Width: 241
GlyphClass: 2
Flags: W
AnchorPoint: "Anchor-0" 120 520 basechar 0
LayerCount: 2
Fore
SplineSet
59 520 m 1
 182 520 l 1
 182 0 l 1
 59 0 l 1
 59 520 l 1
-30 703 m 1
 77 703 l 1
 77 587 l 1
 -30 587 l 1
 -30 703 l 1
162 703 m 1
 269 703 l 1
 269 587 l 1
 162 587 l 1
 162 703 l 1
EndSplineSet
EndChar

StartChar: eth
Encoding: 240 240 177
Width: 509
GlyphClass: 2
Flags: W
LayerCount: 2
Fore
SplineSet
438.5 394 m 0
 455.5 351.333007812 463.999023438 306.333007812 463.999023438 259 c 2
 463.999023438 218 l 2
 463.999023438 144.666992188 445.666015625 88.1669921875 408.999023438 48.5 c 0
 372.33203125 8.8330078125 320.33203125 -11 252.999023438 -11 c 0
 186.33203125 -11 134.999023438 8.5 98.9990234375 47.5 c 0
 62.9990234375 86.5 44.9990234375 140.333007812 44.9990234375 209 c 2
 44.9990234375 253 l 2
 44.9990234375 317.666992188 60.33203125 369.166992188 90.9990234375 407.5 c 0
 121.666015625 445.833007812 164.333007812 465 219 465 c 0
 245.666992188 465 268.666992188 460.333007812 288 451 c 1
 228 537 l 1
 125 505 l 1
 100 584 l 1
 179 608 l 1
 118 695 l 1
 246 695 l 1
 285 640 l 1
 381 670 l 1
 406 591 l 1
 335 569 l 1
 359 535 l 2
 395 483.666992188 421.5 436.666992188 438.5 394 c 0
347.999023438 255 m 2
 347.999023438 328.333007812 316.999023438 365 254.999023438 365 c 0
 191.666015625 365 159.999023438 329 159.999023438 257 c 2
 159.999023438 211 l 2
 159.999023438 135 191.666015625 97 254.999023438 97 c 0
 316.999023438 97 347.999023438 135.333007812 347.999023438 212 c 2
 347.999023438 255 l 2
EndSplineSet
EndChar

StartChar: ntilde
Encoding: 241 241 178
Width: 520
GlyphClass: 2
Flags: W
AnchorPoint: "Anchor-0" 260 520 basechar 0
LayerCount: 2
Fore
SplineSet
54 520 m 1
 175 520 l 1
 175 473 l 1
 190.333007812 490.333007812 208.833007812 503.5 230.5 512.5 c 0
 252.166992188 521.5 274.666992188 526 298 526 c 0
 351.333984375 526 392.666992188 509.333007812 422 476 c 0
 451.333007812 442.666992188 466 397 466 339 c 2
 466 0 l 1
 342 0 l 1
 342 324 l 2
 342 353.333007812 334.666992188 376 320 392 c 0
 305.333007812 408 285.666015625 416 261 416 c 0
 237 416 217.166992188 408 201.5 392 c 0
 185.833007812 376 178 353.333007812 178 324 c 2
 178 0 l 1
 54 0 l 1
 54 520 l 1
118 672 m 1
 133.333007812 687.333007812 146.833007812 698.333984375 158.5 705.000976562 c 0
 170.166992188 711.66796875 183.666992188 715.000976562 199 715.000976562 c 0
 212.333007812 715.000976562 224 713.333984375 234 710.000976562 c 0
 244 706.666992188 256 701.333984375 270 694.000976562 c 0
 291.333984375 682.66796875 309.666992188 677.000976562 325 677.000976562 c 0
 338.333007812 677.000976562 350 679.66796875 360 685.000976562 c 0
 370 690.333984375 383.666992188 701.000976562 401 717.000976562 c 1
 401 626.000976562 l 1
 385.666992188 610.66796875 372.166992188 599.66796875 360.5 593.000976562 c 0
 348.833007812 586.333984375 335.333007812 583.000976562 320 583.000976562 c 0
 307.333007812 583.000976562 296 584.66796875 286 588.000976562 c 0
 276 591.333984375 264 596.666992188 250 604 c 0
 228.666015625 615.333007812 210.333007812 621 195 621 c 0
 181.666992188 621 170 618.333007812 160 613 c 0
 150 607.662109375 136 597.329101562 118 582 c 1
 118 672 l 1
EndSplineSet
EndChar

StartChar: ograve
Encoding: 242 242 179
Width: 510
GlyphClass: 2
Flags: W
AnchorPoint: "Anchor-0" 256 520 basechar 0
LayerCount: 2
Fore
SplineSet
101.5 47 m 0
 63.8330078125 82.3330078125 45 137.333007812 45 212 c 2
 45 309 l 2
 45 383 63.8330078125 437.666992188 101.5 473 c 0
 139.166992188 508.333007812 190.666992188 526 256 526 c 0
 320.666992188 526 371.666992188 508.333007812 409 473 c 0
 446.333007812 437.666992188 465 383 465 309 c 2
 465 212 l 2
 465 137.333007812 446.333007812 82.3330078125 409 47 c 0
 371.666992188 11.6669921875 320.666992188 -6 256 -6 c 0
 190.666992188 -6 139.166992188 11.6669921875 101.5 47 c 0
342 213 m 2
 342 307 l 2
 342 379.666992188 313.333007812 416 256 416 c 0
 197.333007812 416 168 379.666992188 168 307 c 2
 168 213 l 2
 168 140.333007812 197.333007812 104 256 104 c 0
 313.333007812 104 342 140.333007812 342 213 c 2
97 721 m 1
 234 721 l 1
 342 588 l 1
 235 588 l 1
 97 721 l 1
EndSplineSet
EndChar

StartChar: oacute
Encoding: 243 243 180
Width: 510
GlyphClass: 2
Flags: W
AnchorPoint: "Anchor-0" 256 520 basechar 0
LayerCount: 2
Fore
SplineSet
101.5 47 m 0
 63.8330078125 82.3330078125 45 137.333007812 45 212 c 2
 45 309 l 2
 45 383 63.8330078125 437.666992188 101.5 473 c 0
 139.166992188 508.333007812 190.666992188 526 256 526 c 0
 320.666992188 526 371.666992188 508.333007812 409 473 c 0
 446.333007812 437.666992188 465 383 465 309 c 2
 465 212 l 2
 465 137.333007812 446.333007812 82.3330078125 409 47 c 0
 371.666992188 11.6669921875 320.666992188 -6 256 -6 c 0
 190.666992188 -6 139.166992188 11.6669921875 101.5 47 c 0
342 213 m 2
 342 307 l 2
 342 379.666992188 313.333007812 416 256 416 c 0
 197.333007812 416 168 379.666992188 168 307 c 2
 168 213 l 2
 168 140.333007812 197.333007812 104 256 104 c 0
 313.333007812 104 342 140.333007812 342 213 c 2
271 721 m 1
 408 721 l 1
 270 588 l 1
 163 588 l 1
 271 721 l 1
EndSplineSet
EndChar

StartChar: ocircumflex
Encoding: 244 244 181
Width: 510
GlyphClass: 2
Flags: W
AnchorPoint: "Anchor-0" 256 520 basechar 0
LayerCount: 2
Fore
SplineSet
101.5 47 m 0
 63.8330078125 82.3330078125 45 137.333007812 45 212 c 2
 45 309 l 2
 45 383 63.8330078125 437.666992188 101.5 473 c 0
 139.166992188 508.333007812 190.666992188 526 256 526 c 0
 320.666992188 526 371.666992188 508.333007812 409 473 c 0
 446.333007812 437.666992188 465 383 465 309 c 2
 465 212 l 2
 465 137.333007812 446.333007812 82.3330078125 409 47 c 0
 371.666992188 11.6669921875 320.666992188 -6 256 -6 c 0
 190.666992188 -6 139.166992188 11.6669921875 101.5 47 c 0
342 213 m 2
 342 307 l 2
 342 379.666992188 313.333007812 416 256 416 c 0
 197.333007812 416 168 379.666992188 168 307 c 2
 168 213 l 2
 168 140.333007812 197.333007812 104 256 104 c 0
 313.333007812 104 342 140.333007812 342 213 c 2
210 728 m 1
 301 728 l 1
 416 577 l 1
 319 577 l 1
 256 655 l 1
 193 577 l 1
 95 577 l 1
 210 728 l 1
EndSplineSet
EndChar

StartChar: otilde
Encoding: 245 245 182
Width: 510
GlyphClass: 2
Flags: W
AnchorPoint: "Anchor-0" 256 520 basechar 0
LayerCount: 2
Fore
SplineSet
101.5 47 m 0
 63.8330078125 82.3330078125 45 137.333007812 45 212 c 2
 45 309 l 2
 45 383 63.8330078125 437.666992188 101.5 473 c 0
 139.166992188 508.333007812 190.666992188 526 256 526 c 0
 320.666992188 526 371.666992188 508.333007812 409 473 c 0
 446.333007812 437.666992188 465 383 465 309 c 2
 465 212 l 2
 465 137.333007812 446.333007812 82.3330078125 409 47 c 0
 371.666992188 11.6669921875 320.666992188 -6 256 -6 c 0
 190.666992188 -6 139.166992188 11.6669921875 101.5 47 c 0
342 213 m 2
 342 307 l 2
 342 379.666992188 313.333007812 416 256 416 c 0
 197.333007812 416 168 379.666992188 168 307 c 2
 168 213 l 2
 168 140.333007812 197.333007812 104 256 104 c 0
 313.333007812 104 342 140.333007812 342 213 c 2
114 672 m 1
 129.333007812 687.333007812 142.833007812 698.333984375 154.5 705.000976562 c 0
 166.166992188 711.66796875 179.666992188 715.000976562 195 715.000976562 c 0
 208.333007812 715.000976562 220 713.333984375 230 710.000976562 c 0
 240 706.666992188 252 701.333984375 266 694.000976562 c 0
 287.333984375 682.66796875 305.666992188 677.000976562 321 677.000976562 c 0
 334.333007812 677.000976562 346 679.66796875 356 685.000976562 c 0
 366 690.333984375 379.666992188 701.000976562 397 717.000976562 c 1
 397 626.000976562 l 1
 381.666992188 610.66796875 368.166992188 599.66796875 356.5 593.000976562 c 0
 344.833007812 586.333984375 331.333007812 583.000976562 316 583.000976562 c 0
 303.333007812 583.000976562 292 584.66796875 282 588.000976562 c 0
 272 591.333984375 260 596.666992188 246 604 c 0
 224.666015625 615.333007812 206.333007812 621 191 621 c 0
 177.666992188 621 166 618.333007812 156 613 c 0
 146 607.662109375 132 597.329101562 114 582 c 1
 114 672 l 1
EndSplineSet
EndChar

StartChar: odieresis
Encoding: 246 246 183
Width: 510
GlyphClass: 2
Flags: W
AnchorPoint: "Anchor-0" 256 520 basechar 0
LayerCount: 2
Fore
SplineSet
101.5 47 m 0
 63.8330078125 82.3330078125 45 137.333007812 45 212 c 2
 45 309 l 2
 45 383 63.8330078125 437.666992188 101.5 473 c 0
 139.166992188 508.333007812 190.666992188 526 256 526 c 0
 320.666992188 526 371.666992188 508.333007812 409 473 c 0
 446.333007812 437.666992188 465 383 465 309 c 2
 465 212 l 2
 465 137.333007812 446.333007812 82.3330078125 409 47 c 0
 371.666992188 11.6669921875 320.666992188 -6 256 -6 c 0
 190.666992188 -6 139.166992188 11.6669921875 101.5 47 c 0
342 213 m 2
 342 307 l 2
 342 379.666992188 313.333007812 416 256 416 c 0
 197.333007812 416 168 379.666992188 168 307 c 2
 168 213 l 2
 168 140.333007812 197.333007812 104 256 104 c 0
 313.333007812 104 342 140.333007812 342 213 c 2
106 703 m 1
 213 703 l 1
 213 587 l 1
 106 587 l 1
 106 703 l 1
298 703 m 1
 405 703 l 1
 405 587 l 1
 298 587 l 1
 298 703 l 1
EndSplineSet
EndChar

StartChar: divide
Encoding: 247 247 184
Width: 529
GlyphClass: 2
Flags: W
LayerCount: 2
Fore
SplineSet
217 395.5 m 0
 204.333007812 408.5 198.000976562 424.333007812 198.000976562 443 c 0
 198.000976562 461.666992188 204.333984375 477.5 217.000976562 490.5 c 0
 229.66796875 503.5 245.334960938 510 264.000976562 510 c 0
 282.66796875 510 298.500976562 503.5 311.500976562 490.5 c 0
 324.500976562 477.5 331.000976562 461.666992188 331.000976562 443 c 0
 331.000976562 424.333007812 324.500976562 408.5 311.500976562 395.5 c 0
 298.500976562 382.5 282.66796875 376 264.000976562 376 c 0
 245.333984375 376 229.666992188 382.5 217 395.5 c 0
48.0009765625 333 m 1
 481.000976562 333 l 1
 481.000976562 219 l 1
 48.0009765625 219 l 1
 48.0009765625 333 l 1
217.000976562 62.5 m 0
 204.333984375 75.5 198.001953125 91.3330078125 198.001953125 110 c 0
 198.001953125 128.666992188 204.334960938 144.5 217.001953125 157.5 c 0
 229.668945312 170.5 245.3359375 177 264.001953125 177 c 0
 282.668945312 177 298.501953125 170.5 311.501953125 157.5 c 0
 324.501953125 144.5 331.001953125 128.666992188 331.001953125 110 c 0
 331.001953125 91.3330078125 324.668945312 75.5 312.001953125 62.5 c 0
 299.334960938 49.5 283.334960938 43 264.001953125 43 c 0
 245.334960938 43 229.66796875 49.5 217.000976562 62.5 c 0
EndSplineSet
EndChar

StartChar: oslash
Encoding: 248 248 185
Width: 510
GlyphClass: 2
Flags: W
LayerCount: 2
Fore
SplineSet
415 466 m 1
 448.333007812 429.333007812 465 377 465 309 c 2
 465 212 l 2
 465 137.333007812 446.333007812 82.3330078125 409 47 c 0
 371.666992188 11.6669921875 320.666992188 -6 256 -6 c 0
 209.333007812 -6 170 2.6669921875 138 20 c 1
 107 -29 l 1
 45 -29 l 1
 96 53 l 1
 62 90.3330078125 45 143.333007812 45 212 c 2
 45 309 l 2
 45 383 63.8330078125 437.666992188 101.5 473 c 0
 139.166992188 508.333007812 190.666992188 526 256 526 c 0
 302 526 341.333007812 517 374 499 c 1
 403 546 l 1
 465 546 l 1
 415 466 l 1
171 174 m 1
 311 398 l 1
 297 410 278.666992188 416 256 416 c 0
 197.333007812 416 168 379.666992188 168 307 c 2
 168 213 l 2
 168 198.333007812 169 185.333007812 171 174 c 1
339 344 m 1
 200 121 l 1
 214 109.666992188 232.666992188 104 256 104 c 0
 313.333007812 104 342 140.333007812 342 213 c 2
 342 307 l 2
 342 321 341 333.333007812 339 344 c 1
EndSplineSet
EndChar

StartChar: ugrave
Encoding: 249 249 186
Width: 520
GlyphClass: 2
Flags: W
AnchorPoint: "Anchor-0" 260 520 basechar 0
LayerCount: 2
Fore
SplineSet
54 210 m 2
 54 520 l 1
 178 520 l 1
 178 216 l 2
 178 179.333007812 183.5 151.5 194.5 132.5 c 0
 205.5 113.5 227.333007812 104 260 104 c 0
 292.666992188 104 314.5 113 325.5 131 c 0
 336.5 149 342 177.333007812 342 216 c 2
 342 520 l 1
 466 520 l 1
 466 210 l 2
 466 138 449 84 415 48 c 0
 381 12 329.333007812 -6 260 -6 c 0
 122.666992188 -6 54 66 54 210 c 2
101 721 m 1
 238 721 l 1
 346 588 l 1
 239 588 l 1
 101 721 l 1
EndSplineSet
EndChar

StartChar: uacute
Encoding: 250 250 187
Width: 520
GlyphClass: 2
Flags: W
AnchorPoint: "Anchor-0" 260 520 basechar 0
LayerCount: 2
Fore
SplineSet
54 210 m 2
 54 520 l 1
 178 520 l 1
 178 216 l 2
 178 179.333007812 183.5 151.5 194.5 132.5 c 0
 205.5 113.5 227.333007812 104 260 104 c 0
 292.666992188 104 314.5 113 325.5 131 c 0
 336.5 149 342 177.333007812 342 216 c 2
 342 520 l 1
 466 520 l 1
 466 210 l 2
 466 138 449 84 415 48 c 0
 381 12 329.333007812 -6 260 -6 c 0
 122.666992188 -6 54 66 54 210 c 2
275 721 m 1
 412 721 l 1
 274 588 l 1
 167 588 l 1
 275 721 l 1
EndSplineSet
EndChar

StartChar: ucircumflex
Encoding: 251 251 188
Width: 520
GlyphClass: 2
Flags: W
AnchorPoint: "Anchor-0" 260 520 basechar 0
LayerCount: 2
Fore
SplineSet
54 210 m 2
 54 520 l 1
 178 520 l 1
 178 216 l 2
 178 179.333007812 183.5 151.5 194.5 132.5 c 0
 205.5 113.5 227.333007812 104 260 104 c 0
 292.666992188 104 314.5 113 325.5 131 c 0
 336.5 149 342 177.333007812 342 216 c 2
 342 520 l 1
 466 520 l 1
 466 210 l 2
 466 138 449 84 415 48 c 0
 381 12 329.333007812 -6 260 -6 c 0
 122.666992188 -6 54 66 54 210 c 2
214 728 m 1
 305 728 l 1
 420 577 l 1
 323 577 l 1
 260 655 l 1
 197 577 l 1
 99 577 l 1
 214 728 l 1
EndSplineSet
EndChar

StartChar: udieresis
Encoding: 252 252 189
Width: 520
GlyphClass: 2
Flags: W
AnchorPoint: "Anchor-0" 260 520 basechar 0
LayerCount: 2
Fore
SplineSet
54 210 m 2
 54 520 l 1
 178 520 l 1
 178 216 l 2
 178 179.333007812 183.5 151.5 194.5 132.5 c 0
 205.5 113.5 227.333007812 104 260 104 c 0
 292.666992188 104 314.5 113 325.5 131 c 0
 336.5 149 342 177.333007812 342 216 c 2
 342 520 l 1
 466 520 l 1
 466 210 l 2
 466 138 449 84 415 48 c 0
 381 12 329.333007812 -6 260 -6 c 0
 122.666992188 -6 54 66 54 210 c 2
110 703 m 1
 217 703 l 1
 217 587 l 1
 110 587 l 1
 110 703 l 1
302 703 m 1
 409 703 l 1
 409 587 l 1
 302 587 l 1
 302 703 l 1
EndSplineSet
EndChar

StartChar: yacute
Encoding: 253 253 190
Width: 482
GlyphClass: 2
Flags: W
AnchorPoint: "Anchor-0" 241 520 basechar 0
LayerCount: 2
Fore
SplineSet
473 520 m 1
 276 -45 l 2
 262.666992188 -83 243.5 -110.666992188 218.5 -128 c 0
 193.5 -145.333007812 160.333007812 -154 119 -154 c 2
 76 -154 l 1
 76 -43 l 1
 115 -43 l 2
 135 -43 149.833007812 -39.5 159.5 -32.5 c 0
 169.166992188 -25.5 177 -12.3330078125 183 7 c 2
 185 14 l 1
 9 520 l 1
 140 520 l 1
 242 193 l 1
 346 520 l 1
 473 520 l 1
256 721 m 1
 393 721 l 1
 255 588 l 1
 148 588 l 1
 256 721 l 1
EndSplineSet
EndChar

StartChar: thorn
Encoding: 254 254 191
Width: 515
GlyphClass: 2
Flags: W
LayerCount: 2
Fore
SplineSet
54 690 m 1
 177.999023438 690 l 1
 177.999023438 467 l 1
 206.666015625 506.333007812 245.333007812 526 294 526 c 0
 346 526 388.333007812 508.333007812 421 473 c 0
 453.666992188 437.666992188 470 384 470 312 c 2
 470 209 l 2
 470 137 453.666992188 83.1669921875 421 47.5 c 0
 388.333007812 11.8330078125 347.333007812 -6 298 -6 c 0
 245.333007812 -6 204.333007812 12 175 48 c 1
 175 -156 l 1
 54 -156 l 1
 54 690 l 1
345.999023438 213 m 2
 345.999023438 307 l 2
 345.999023438 345.666992188 338.499023438 373.5 323.499023438 390.5 c 0
 308.499023438 407.5 288.33203125 416 262.999023438 416 c 0
 236.33203125 416 215.33203125 406.666992188 199.999023438 388 c 0
 184.666015625 369.333007812 176.999023438 342.333007812 176.999023438 307 c 2
 176.999023438 213 l 2
 176.999023438 177.666992188 184.83203125 150.666992188 200.499023438 132 c 0
 216.166015625 113.333007812 237.999023438 104 265.999023438 104 c 0
 319.33203125 104 345.999023438 140.333007812 345.999023438 213 c 2
EndSplineSet
EndChar

StartChar: ydieresis
Encoding: 255 255 192
Width: 482
GlyphClass: 2
Flags: W
AnchorPoint: "Anchor-0" 241 520 basechar 0
LayerCount: 2
Fore
SplineSet
473 520 m 1
 276 -45 l 2
 262.666992188 -83 243.5 -110.666992188 218.5 -128 c 0
 193.5 -145.333007812 160.333007812 -154 119 -154 c 2
 76 -154 l 1
 76 -43 l 1
 115 -43 l 2
 135 -43 149.833007812 -39.5 159.5 -32.5 c 0
 169.166992188 -25.5 177 -12.3330078125 183 7 c 2
 185 14 l 1
 9 520 l 1
 140 520 l 1
 242 193 l 1
 346 520 l 1
 473 520 l 1
91 703 m 1
 198 703 l 1
 198 587 l 1
 91 587 l 1
 91 703 l 1
283 703 m 1
 390 703 l 1
 390 587 l 1
 283 587 l 1
 283 703 l 1
EndSplineSet
EndChar

StartChar: dotlessi
Encoding: 305 305 193
Width: 241
GlyphClass: 2
Flags: W
AnchorPoint: "Anchor-0" 120 520 basechar 0
LayerCount: 2
Fore
SplineSet
59 520 m 1
 182 520 l 1
 182 0 l 1
 59 0 l 1
 59 520 l 1
EndSplineSet
EndChar

StartChar: OE
Encoding: 338 338 194
Width: 871
GlyphClass: 2
Flags: W
LayerCount: 2
Fore
SplineSet
550 576 m 1
 550 405 l 1
 791 405 l 1
 791 291 l 1
 550 291 l 1
 550 114 l 1
 836 114 l 1
 836 0 l 1
 429 0 l 1
 429 31 l 1
 389 5 342 -8 288 -8 c 0
 216 -8 158.333007812 13.6669921875 115 57 c 0
 71.6669921875 100.333007812 50 170.333007812 50 267 c 2
 50 425 l 2
 50 521 72.1669921875 590.833007812 116.5 634.5 c 0
 160.833007812 678.166992188 218.333007812 700 289 700 c 0
 342.333007812 700 389 686.666992188 429 660 c 1
 429 690 l 1
 836 690 l 1
 836 576 l 1
 550 576 l 1
419 418 m 2
 419 476.666992188 409.333007812 519.166992188 390 545.5 c 0
 370.666992188 571.833007812 341 585 301 585 c 0
 259 585 228.666992188 572.166992188 210 546.5 c 0
 191.333007812 520.833007812 182 478 182 418 c 2
 182 269 l 2
 182 212.333007812 191.333007812 171.5 210 146.5 c 0
 228.666992188 121.5 259 109 301 109 c 0
 341 109 370.666992188 121.833007812 390 147.5 c 0
 409.333007812 173.166992188 419 213.666992188 419 269 c 2
 419 418 l 2
EndSplineSet
EndChar

StartChar: oe
Encoding: 339 339 195
Width: 813
GlyphClass: 2
Flags: W
LayerCount: 2
Fore
SplineSet
465 209 m 2
 465 170.333007812 473.5 142.666015625 490.5 125.999023438 c 0
 507.5 109.33203125 532 100.999023438 564 100.999023438 c 0
 588 100.999023438 607.166992188 106.166015625 621.5 116.499023438 c 0
 635.833007812 126.83203125 644 141.33203125 646 159.999023438 c 2
 646 162.999023438 l 1
 764 162.999023438 l 1
 764 157.999023438 l 2
 764 108.666015625 745.833007812 68.9990234375 709.5 38.9990234375 c 0
 673.166992188 8.9990234375 623 -6.0009765625 559 -6.0009765625 c 0
 494.333007812 -6.0009765625 443.666015625 10.9990234375 407 44.9990234375 c 1
 371 10.9990234375 320.666992188 -6.0009765625 256 -6.0009765625 c 0
 190.666992188 -6.0009765625 139.166992188 11.666015625 101.5 46.9990234375 c 0
 63.8330078125 82.33203125 45 137.33203125 45 211.999023438 c 2
 45 308.999023438 l 2
 45 382.999023438 63.8330078125 437.666015625 101.5 472.999023438 c 0
 139.166992188 508.33203125 190.666992188 525.999023438 256 525.999023438 c 0
 320.666992188 525.999023438 371 508.999023438 407 474.999023438 c 1
 444.333007812 508.999023438 494 525.999023438 556 525.999023438 c 0
 620.666992188 525.999023438 672.166992188 506.33203125 710.5 466.999023438 c 0
 748.833007812 427.666015625 768 369.333007812 768 292 c 2
 768 223 l 1
 465 223 l 1
 465 209 l 2
465 308 m 1
 645 308 l 1
 645 321 l 2
 645 387 615.333007812 420 556 420 c 0
 526.666992188 420 504.166992188 411.666992188 488.5 395 c 0
 472.833007812 378.333007812 465 350.333007812 465 311 c 2
 465 308 l 1
342 307 m 2
 342 379.666992188 313.333007812 416 256 416 c 0
 197.333007812 416 168 379.666992188 168 307 c 2
 168 213 l 2
 168 140.333007812 197.333007812 104 256 104 c 0
 313.333007812 104 342 140.333007812 342 213 c 2
 342 307 l 2
EndSplineSet
EndChar

StartChar: Scaron
Encoding: 352 352 196
Width: 548
GlyphClass: 2
Flags: W
AnchorPoint: "Anchor-0" 272 690 basechar 0
LayerCount: 2
Fore
SplineSet
94 49.5 m 0
 52.6669921875 86.5 29.6630859375 140.002929688 24.99609375 210.002929688 c 1
 148.99609375 210.002929688 l 1
 153.663085938 172.002929688 165.830078125 145.169921875 185.497070312 129.502929688 c 0
 205.1640625 113.8359375 234.331054688 106.002929688 272.998046875 106.002929688 c 0
 346.998046875 106.002929688 383.998046875 136.3359375 383.998046875 197.002929688 c 0
 383.998046875 224.3359375 376.665039062 245.168945312 361.998046875 259.501953125 c 0
 347.331054688 273.8359375 323.998046875 283.668945312 291.998046875 289.000976562 c 2
 226.998046875 300.000976562 l 2
 102.331054688 320.66796875 39.998046875 384.66796875 39.998046875 492.000976562 c 0
 39.998046875 556.000976562 61.1650390625 606.66796875 103.498046875 644.000976562 c 0
 145.831054688 681.333984375 201.998046875 700.000976562 271.998046875 700.000976562 c 0
 339.998046875 700.000976562 393.831054688 682.000976562 433.498046875 646.000976562 c 0
 473.165039062 610.000976562 495.665039062 559.333984375 500.998046875 494.000976562 c 1
 374.998046875 494.000976562 l 1
 372.998046875 527.333984375 363.331054688 551.666992188 345.998046875 567 c 0
 328.665039062 582.333007812 303.33203125 590 269.999023438 590 c 0
 235.999023438 590 210.33203125 582.166992188 192.999023438 566.5 c 0
 175.666015625 550.833007812 166.999023438 529.333007812 166.999023438 502 c 0
 166.999023438 478 174.666015625 459 189.999023438 445 c 0
 205.33203125 431 229.33203125 421 261.999023438 415 c 2
 334.999023438 402 l 2
 453.666015625 380.666992188 512.999023438 316 512.999023438 208 c 0
 512.999023438 138.666992188 490.83203125 85.6669921875 446.499023438 49 c 0
 402.166015625 12.3330078125 342.333007812 -6 267 -6 c 0
 193 -6 135.333007812 12.5 94 49.5 c 0
110.99609375 891.002929688 m 1
 208.99609375 891.002929688 l 1
 271.99609375 813.002929688 l 1
 334.99609375 891.002929688 l 1
 431.99609375 891.002929688 l 1
 316.99609375 740.002929688 l 1
 225.99609375 740.002929688 l 1
 110.99609375 891.002929688 l 1
EndSplineSet
EndChar

StartChar: scaron
Encoding: 353 353 197
Width: 474
GlyphClass: 2
Flags: W
AnchorPoint: "Anchor-0" 237 520 basechar 0
LayerCount: 2
Fore
SplineSet
90 37.5 m 0
 54 66.5 35.9990234375 105.333007812 35.9990234375 154 c 2
 35.9990234375 158 l 1
 151.999023438 158 l 1
 151.999023438 156 l 2
 151.999023438 136.666992188 159.83203125 121.5 175.499023438 110.5 c 0
 191.166015625 99.5 211.666015625 94 236.999023438 94 c 0
 264.333007812 94 285.666015625 98.8330078125 300.999023438 108.5 c 0
 316.33203125 118.166992188 323.999023438 132.666992188 323.999023438 152 c 0
 323.999023438 168 318.33203125 180.333007812 306.999023438 189 c 0
 295.666015625 197.666992188 276.666015625 204 249.999023438 208 c 2
 194.999023438 217 l 2
 142.999023438 225.666992188 104.666015625 241.666992188 79.9990234375 265 c 0
 55.33203125 288.333984375 42.9990234375 321.666992188 42.9990234375 365 c 0
 42.9990234375 414.333007812 61.166015625 453.5 97.4990234375 482.5 c 0
 133.83203125 511.5 180.33203125 526 236.999023438 526 c 0
 275.666015625 526 309.833007812 519.5 339.5 506.5 c 0
 369.166992188 493.5 392.166992188 475.5 408.5 452.5 c 0
 424.833007812 429.5 433 403.666992188 433 375 c 2
 433 369 l 1
 318 369 l 1
 318 372 l 2
 318 390 310.833007812 404 296.5 414 c 0
 282.166992188 424 262.333984375 429 237.000976562 429 c 0
 211.666992188 429 192.333984375 424 179.000976562 414 c 0
 165.66796875 404 159.000976562 390.666992188 159.000976562 374 c 0
 159.000976562 358.666992188 164.16796875 346.666992188 174.500976562 338 c 0
 184.833984375 329.333007812 201.666992188 323.333007812 225 320 c 2
 286 311 l 2
 338 303.666992188 377 287.666992188 403 263 c 0
 429 238.333007812 442 204.333007812 442 161 c 0
 442 107.666992188 422.666992188 66.5 384 37.5 c 0
 345.333007812 8.5 295 -6 233 -6 c 0
 173.666992188 -6 126 8.5 90 37.5 c 0
75.9990234375 721 m 1
 173.999023438 721 l 1
 236.999023438 643 l 1
 299.999023438 721 l 1
 396.999023438 721 l 1
 281.999023438 570 l 1
 190.999023438 570 l 1
 75.9990234375 721 l 1
EndSplineSet
EndChar

StartChar: Ydieresis
Encoding: 376 376 198
Width: 541
GlyphClass: 2
Flags: W
AnchorPoint: "Anchor-0" 270 690 basechar 0
LayerCount: 2
Fore
SplineSet
336 284 m 1
 336 0 l 1
 205 0 l 1
 205 283 l 1
 4 690 l 1
 147 690 l 1
 270 410 l 1
 393 690 l 1
 537 690 l 1
 336 284 l 1
120 873 m 1
 227 873 l 1
 227 757 l 1
 120 757 l 1
 120 873 l 1
312 873 m 1
 419 873 l 1
 419 757 l 1
 312 757 l 1
 312 873 l 1
EndSplineSet
EndChar

StartChar: Zcaron
Encoding: 381 381 199
Width: 505
GlyphClass: 2
Flags: W
AnchorPoint: "Anchor-0" 252 690 basechar 0
LayerCount: 2
Fore
SplineSet
478 115 m 1
 478 0 l 1
 30 0 l 1
 30 115 l 1
 327 576 l 1
 36 576 l 1
 36 690 l 1
 469 690 l 1
 469 576 l 1
 173 115 l 1
 478 115 l 1
91 891 m 1
 189 891 l 1
 252 813 l 1
 315 891 l 1
 412 891 l 1
 297 740 l 1
 206 740 l 1
 91 891 l 1
EndSplineSet
EndChar

StartChar: zcaron
Encoding: 382 382 200
Width: 455
GlyphClass: 2
Flags: W
AnchorPoint: "Anchor-0" 227 520 basechar 0
LayerCount: 2
Fore
SplineSet
410 416 m 1
 180 104 l 1
 410 104 l 1
 410 0 l 1
 45 0 l 1
 45 104 l 1
 275 416 l 1
 45 416 l 1
 45 520 l 1
 410 520 l 1
 410 416 l 1
66 721 m 1
 164 721 l 1
 227 643 l 1
 290 721 l 1
 387 721 l 1
 272 570 l 1
 181 570 l 1
 66 721 l 1
EndSplineSet
EndChar

StartChar: florin
Encoding: 402 402 201
Width: 419
GlyphClass: 2
Flags: W
LayerCount: 2
Fore
SplineSet
9 -39 m 1
 38.0009765625 -39.001953125 l 2
 60.66796875 -39.001953125 77.16796875 -34.6689453125 87.5009765625 -26.001953125 c 0
 97.833984375 -17.3349609375 105.000976562 -0.66796875 109.000976562 23.9990234375 c 2
 152.000976562 312.999023438 l 1
 74.0009765625 312.999023438 l 1
 74.0009765625 422.999023438 l 1
 168.000976562 422.999023438 l 1
 184.000976562 527.999023438 l 2
 192.66796875 584.666015625 210.66796875 625.833007812 238.000976562 651.499023438 c 0
 265.333984375 677.166015625 305.666992188 689.999023438 359 689.999023438 c 2
 410 689.999023438 l 1
 410 575.999023438 l 1
 376 575.999023438 l 2
 355.333007812 575.999023438 339.5 571.33203125 328.5 561.999023438 c 0
 317.5 552.666015625 310.333007812 536.999023438 307 514.999023438 c 2
 293 422.999023438 l 1
 393 422.999023438 l 1
 393 312.999023438 l 1
 277 312.999023438 l 1
 231 8.9990234375 l 2
 221.666992188 -50.333984375 203.5 -92.6669921875 176.5 -118 c 0
 149.5 -143.333007812 108.666992188 -156 54 -156 c 2
 9 -156 l 1
 9 -39 l 1
EndSplineSet
EndChar

StartChar: circumflex
Encoding: 710 710 202
Width: 500
GlyphClass: 2
Flags: W
LayerCount: 2
Fore
SplineSet
204 728 m 1
 295 728 l 1
 410 577 l 1
 313 577 l 1
 250 655 l 1
 187 577 l 1
 89 577 l 1
 204 728 l 1
EndSplineSet
EndChar

StartChar: caron
Encoding: 711 711 203
Width: 500
GlyphClass: 2
Flags: W
LayerCount: 2
Fore
SplineSet
89 721 m 1
 187 721 l 1
 250 643 l 1
 313 721 l 1
 410 721 l 1
 295 570 l 1
 204 570 l 1
 89 721 l 1
EndSplineSet
EndChar

StartChar: dotaccent
Encoding: 729 729 204
Width: 500
GlyphClass: 2
Flags: W
LayerCount: 2
Fore
SplineSet
187 695 m 1
 313 695 l 1
 313 596 l 1
 187 596 l 1
 187 695 l 1
EndSplineSet
EndChar

StartChar: ring
Encoding: 730 730 205
Width: 500
GlyphClass: 2
Flags: W
LayerCount: 2
Fore
SplineSet
174.5 606.5 m 0
 154.833007812 626.166992188 145 650.666992188 145 680 c 0
 145 710 154.833007812 734.833007812 174.5 754.5 c 0
 194.166992188 774.166992188 218.666992188 784 248 784 c 0
 277.333007812 784 301.833007812 774.166992188 321.5 754.5 c 0
 341.166992188 734.833007812 351 710 351 680 c 0
 351 650.666992188 341.166992188 626.166992188 321.5 606.5 c 0
 301.833007812 586.833007812 277.333007812 577 248 577 c 0
 218.666992188 577 194.166992188 586.833007812 174.5 606.5 c 0
281.5 646 m 0
 290.5 655.333007812 295 666.666992188 295 680 c 0
 295 694 290.5 705.666992188 281.5 715 c 0
 272.5 724.333007812 261.333007812 729 248 729 c 0
 234.666992188 729 223.666992188 724.333007812 215 715 c 0
 206.333007812 705.666992188 202 694 202 680 c 0
 202 666.661132812 206.5 655.328125 215.5 646 c 0
 224.5 636.666992188 235.333007812 632 248 632 c 0
 261.333007812 632 272.5 636.666992188 281.5 646 c 0
EndSplineSet
EndChar

StartChar: tilde
Encoding: 732 732 206
Width: 500
GlyphClass: 2
Flags: W
LayerCount: 2
Fore
SplineSet
108 672 m 1
 123.333007812 687.333007812 136.833007812 698.333984375 148.5 705.000976562 c 0
 160.166992188 711.66796875 173.666992188 715.000976562 189 715.000976562 c 0
 202.333007812 715.000976562 214 713.333984375 224 710.000976562 c 0
 234 706.666992188 246 701.333984375 260 694.000976562 c 0
 281.333984375 682.66796875 299.666992188 677.000976562 315 677.000976562 c 0
 328.333007812 677.000976562 340 679.66796875 350 685.000976562 c 0
 360 690.333984375 373.666992188 701.000976562 391 717.000976562 c 1
 391 626.000976562 l 1
 375.666992188 610.66796875 362.166992188 599.66796875 350.5 593.000976562 c 0
 338.833007812 586.333984375 325.333007812 583.000976562 310 583.000976562 c 0
 297.333007812 583.000976562 286 584.66796875 276 588.000976562 c 0
 266 591.333984375 254 596.666992188 240 604 c 0
 218.666015625 615.333007812 200.333007812 621 185 621 c 0
 171.666992188 621 160 618.333007812 150 613 c 0
 140 607.662109375 126 597.329101562 108 582 c 1
 108 672 l 1
EndSplineSet
EndChar

StartChar: gravecomb
Encoding: 768 768 207
Width: 0
GlyphClass: 4
Flags: W
AnchorPoint: "Anchor-0" 0 520 mark 0
LayerCount: 2
Fore
SplineSet
-159 721 m 1
 -22 721 l 1
 86 588 l 1
 -21 588 l 1
 -159 721 l 1
EndSplineSet
EndChar

StartChar: acutecomb
Encoding: 769 769 208
Width: 0
GlyphClass: 4
Flags: W
AnchorPoint: "Anchor-0" 0 520 mark 0
LayerCount: 2
Fore
SplineSet
15 721 m 1
 152 721 l 1
 14 588 l 1
 -93 588 l 1
 15 721 l 1
EndSplineSet
EndChar

StartChar: uni0302
Encoding: 770 770 209
Width: 0
GlyphClass: 4
Flags: W
AnchorPoint: "Anchor-0" 0 520 mark 0
LayerCount: 2
Fore
SplineSet
-46 728 m 1
 45 728 l 1
 160 577 l 1
 63 577 l 1
 0 655 l 1
 -63 577 l 1
 -161 577 l 1
 -46 728 l 1
EndSplineSet
EndChar

StartChar: tildecomb
Encoding: 771 771 210
Width: 0
GlyphClass: 4
Flags: W
AnchorPoint: "Anchor-0" 0 520 mark 0
LayerCount: 2
Fore
SplineSet
-142 672 m 1
 -126.666992188 687.333007812 -113.166992188 698.333984375 -101.5 705.000976562 c 0
 -89.8330078125 711.66796875 -76.3330078125 715.000976562 -61 715.000976562 c 0
 -47.6669921875 715.000976562 -36 713.333984375 -26 710.000976562 c 0
 -16 706.666992188 -4 701.333984375 10 694.000976562 c 0
 31.3330078125 682.66796875 49.666015625 677.000976562 64.9990234375 677.000976562 c 0
 78.33203125 677.000976562 89.9990234375 679.66796875 99.9990234375 685.000976562 c 0
 109.999023438 690.333984375 123.666015625 701.000976562 140.999023438 717.000976562 c 1
 140.999023438 626.000976562 l 1
 125.666015625 610.66796875 112.166015625 599.66796875 100.499023438 593.000976562 c 0
 88.83203125 586.333984375 75.33203125 583.000976562 59.9990234375 583.000976562 c 0
 47.33203125 583.000976562 35.9990234375 584.66796875 25.9990234375 588.000976562 c 0
 15.9990234375 591.333984375 3.9990234375 596.666992188 -10.0009765625 604 c 0
 -31.333984375 615.333007812 -49.6669921875 621 -65 621 c 0
 -78.3330078125 621 -90 618.333007812 -100 613 c 0
 -110 607.662109375 -124 597.329101562 -142 582 c 1
 -142 672 l 1
EndSplineSet
EndChar

StartChar: uni0308
Encoding: 776 776 211
Width: 0
GlyphClass: 4
Flags: W
AnchorPoint: "Anchor-0" 0 520 mark 0
LayerCount: 2
Fore
SplineSet
-150 703 m 1
 -43 703 l 1
 -43 587 l 1
 -150 587 l 1
 -150 703 l 1
42 703 m 1
 149 703 l 1
 149 587 l 1
 42 587 l 1
 42 703 l 1
EndSplineSet
EndChar

StartChar: uni030A
Encoding: 778 778 212
Width: 0
GlyphClass: 4
Flags: W
AnchorPoint: "Anchor-0" 0 520 mark 0
LayerCount: 2
Fore
SplineSet
-73.5 606.5 m 0
 -93.1669921875 626.166992188 -103 650.666992188 -103 680 c 0
 -103 710 -93.1669921875 734.833007812 -73.5 754.5 c 0
 -53.8330078125 774.166992188 -29.3330078125 784 0 784 c 0
 29.3330078125 784 53.8330078125 774.166992188 73.5 754.5 c 0
 93.1669921875 734.833007812 103 710 103 680 c 0
 103 650.666992188 93.1669921875 626.166992188 73.5 606.5 c 0
 53.8330078125 586.833007812 29.3330078125 577 0 577 c 0
 -29.3330078125 577 -53.8330078125 586.833007812 -73.5 606.5 c 0
33.5 646 m 0
 42.5 655.333007812 47 666.666992188 47 680 c 0
 47 694 42.5 705.666992188 33.5 715 c 0
 24.5 724.333007812 13.3330078125 729 0 729 c 0
 -13.3330078125 729 -24.3330078125 724.333007812 -33 715 c 0
 -41.6669921875 705.666992188 -46 694 -46 680 c 0
 -46 666.661132812 -41.5 655.328125 -32.5 646 c 0
 -23.5 636.666992188 -12.6669921875 632 0 632 c 0
 13.3330078125 632 24.5 636.666992188 33.5 646 c 0
EndSplineSet
EndChar

StartChar: endash
Encoding: 8211 8211 213
Width: 417
GlyphClass: 2
Flags: W
LayerCount: 2
Fore
SplineSet
0 403 m 1
 417 403 l 1
 417 288 l 1
 0 288 l 1
 0 403 l 1
EndSplineSet
EndChar

StartChar: emdash
Encoding: 8212 8212 214
Width: 833
GlyphClass: 2
Flags: W
LayerCount: 2
Fore
SplineSet
0 403 m 1
 833 403 l 1
 833 288 l 1
 0 288 l 1
 0 403 l 1
EndSplineSet
EndChar

StartChar: quoteleft
Encoding: 8216 8216 215
Width: 193
GlyphClass: 2
Flags: W
LayerCount: 2
Fore
SplineSet
155 433 m 1
 38 433 l 1
 38 633 l 1
 155 732 l 1
 155 433 l 1
84 690 m 1024
EndSplineSet
EndChar

StartChar: quoteright
Encoding: 8217 8217 216
Width: 193
GlyphClass: 2
Flags: W
LayerCount: 2
Fore
SplineSet
38 690 m 1
 155 690 l 1
 155 490 l 1
 38 391 l 1
 38 690 l 1
EndSplineSet
EndChar

StartChar: quotesinglbase
Encoding: 8218 8218 217
Width: 193
GlyphClass: 2
Flags: W
LayerCount: 2
Fore
SplineSet
38 137 m 1
 155 137 l 1
 155 -63 l 1
 38 -162 l 1
 38 137 l 1
EndSplineSet
EndChar

StartChar: quotedblleft
Encoding: 8220 8220 218
Width: 383
GlyphClass: 2
Flags: W
LayerCount: 2
Fore
SplineSet
155 433 m 1
 38 433 l 1
 38 633 l 1
 155 732 l 1
 155 433 l 1
345 433 m 1
 228 433 l 1
 228 633 l 1
 345 732 l 1
 345 433 l 1
201 690 m 1024
EndSplineSet
EndChar

StartChar: quotedblright
Encoding: 8221 8221 219
Width: 383
GlyphClass: 2
Flags: W
LayerCount: 2
Fore
SplineSet
38 690 m 1
 155 690 l 1
 155 490 l 1
 38 391 l 1
 38 690 l 1
228 690 m 1
 345 690 l 1
 345 490 l 1
 228 391 l 1
 228 690 l 1
EndSplineSet
EndChar

StartChar: quotedblbase
Encoding: 8222 8222 220
Width: 382
GlyphClass: 2
Flags: W
LayerCount: 2
Fore
SplineSet
227 137 m 1
 344 137 l 1
 344 -63 l 1
 227 -162 l 1
 227 137 l 1
38 137 m 1
 155 137 l 1
 155 -63 l 1
 38 -162 l 1
 38 137 l 1
EndSplineSet
EndChar

StartChar: dagger
Encoding: 8224 8224 221
Width: 545
GlyphClass: 2
Flags: W
LayerCount: 2
Fore
SplineSet
491 360 m 1
 339 360 l 1
 339 -156 l 1
 208 -156 l 1
 208 360 l 1
 54 360 l 1
 54 474 l 1
 208 474 l 1
 208 690 l 1
 339 690 l 1
 339 474 l 1
 491 474 l 1
 491 360 l 1
EndSplineSet
EndChar

StartChar: daggerdbl
Encoding: 8225 8225 222
Width: 545
GlyphClass: 2
Flags: W
LayerCount: 2
Fore
SplineSet
339 367 m 1
 339 172 l 1
 491 172 l 1
 491 57 l 1
 339 57 l 1
 339 -156 l 1
 208 -156 l 1
 208 57 l 1
 54 57 l 1
 54 172 l 1
 208 172 l 1
 208 367 l 1
 54 367 l 1
 54 482 l 1
 208 482 l 1
 208 690 l 1
 339 690 l 1
 339 482 l 1
 491 482 l 1
 491 367 l 1
 339 367 l 1
EndSplineSet
EndChar

StartChar: bullet
Encoding: 8226 8226 223
Width: 453
GlyphClass: 2
Flags: W
LayerCount: 2
Fore
SplineSet
122 203 m 0
 94.6669921875 230.333007812 81 265.333007812 81 308 c 0
 81 350.666992188 94.6669921875 385.666992188 122 413 c 0
 149.333007812 440.333007812 184.333007812 454 227 454 c 0
 269 454 303.666992188 440.333007812 331 413 c 0
 358.333007812 385.666992188 372 350.666992188 372 308 c 0
 372 265.333007812 358.333007812 230.333007812 331 203 c 0
 303.666992188 175.666992188 269 162 227 162 c 0
 184.333007812 162 149.333007812 175.666992188 122 203 c 0
EndSplineSet
EndChar

StartChar: ellipsis
Encoding: 8230 8230 224
Width: 773
GlyphClass: 2
Flags: W
LayerCount: 2
Fore
SplineSet
38 142 m 1
 177 142 l 1
 177 0 l 1
 38 0 l 1
 38 142 l 1
596 142 m 1
 735 142 l 1
 735 0 l 1
 596 0 l 1
 596 142 l 1
317 142 m 1
 456 142 l 1
 456 0 l 1
 317 0 l 1
 317 142 l 1
EndSplineSet
EndChar

StartChar: perthousand
Encoding: 8240 8240 225
Width: 1254
GlyphClass: 2
Flags: W
LayerCount: 2
Fore
SplineSet
72.5 301.5 m 0
 50.8330078125 326.5 40.0009765625 363.666992188 40.0009765625 413 c 2
 40.0009765625 555 l 2
 40.0009765625 601.66796875 51.5009765625 636.834960938 74.5009765625 660.5 c 0
 97.5009765625 684.166992188 131.000976562 696 175.000976562 696 c 0
 221.000976562 696 254.833984375 684.333007812 276.500976562 661 c 0
 298.16796875 637.665039062 309.000976562 602.33203125 309.000976562 555 c 2
 309.000976562 413 l 2
 309.000976562 363.666992188 298.16796875 326.5 276.500976562 301.5 c 0
 254.833984375 276.5 221.000976562 264 175.000976562 264 c 0
 128.333984375 264 94.1669921875 276.5 72.5 301.5 c 0
595.000976562 695 m 1
 694.000976562 695 l 1
 308.000976562 0 l 1
 210.000976562 0 l 1
 595.000976562 695 l 1
201.000976562 366 m 0
 204.333984375 374.666992188 206.000976562 392.000976562 206.000976562 418.000976562 c 2
 206.000976562 542.000976562 l 2
 206.000976562 567.333984375 204.16796875 584.666992188 200.500976562 594 c 0
 196.833984375 603.333007812 188.333984375 608 175.000976562 608 c 0
 161.66796875 608 153.000976562 603.333007812 149.000976562 594 c 0
 145.000976562 584.666015625 143.000976562 567.333007812 143.000976562 542 c 2
 143.000976562 418 l 2
 143.000976562 393.333007812 144.833984375 376.333007812 148.500976562 367 c 0
 152.16796875 357.666992188 161.000976562 353 175.000976562 353 c 0
 189.000976562 353 197.66796875 357.333007812 201.000976562 366 c 0
626.500976562 31.5009765625 m 0
 604.833984375 56.5009765625 594.001953125 93.666015625 594.001953125 142.999023438 c 2
 594.001953125 284.999023438 l 2
 594.001953125 331.666015625 605.501953125 366.833007812 628.501953125 390.5 c 0
 651.501953125 414.166992188 685.001953125 426 729.001953125 426 c 0
 775.001953125 426 808.834960938 414.333007812 830.501953125 391 c 0
 852.168945312 367.666992188 863.001953125 332.333984375 863.001953125 285.000976562 c 2
 863.001953125 143.000976562 l 2
 863.001953125 93.66796875 852.168945312 56.5009765625 830.501953125 31.5009765625 c 0
 808.834960938 6.5009765625 775.001953125 -5.9990234375 729.001953125 -5.9990234375 c 0
 682.334960938 -5.9990234375 648.16796875 6.5009765625 626.500976562 31.5009765625 c 0
976.501953125 31.4990234375 m 0
 954.834960938 56.4990234375 944.002929688 93.6640625 944.002929688 142.997070312 c 2
 944.002929688 284.997070312 l 2
 944.002929688 331.6640625 955.502929688 366.831054688 978.502929688 390.498046875 c 0
 1001.50292969 414.165039062 1035.00292969 425.998046875 1079.00292969 425.998046875 c 0
 1125.00292969 425.998046875 1158.8359375 414.331054688 1180.50292969 390.998046875 c 0
 1202.16992188 367.665039062 1213.00292969 332.33203125 1213.00292969 284.999023438 c 2
 1213.00292969 142.999023438 l 2
 1213.00292969 93.666015625 1202.16992188 56.4990234375 1180.50292969 31.4990234375 c 0
 1158.8359375 6.4990234375 1125.00292969 -6.0009765625 1079.00292969 -6.0009765625 c 0
 1032.3359375 -6.0009765625 998.168945312 6.4990234375 976.501953125 31.4990234375 c 0
755.002929688 95.9970703125 m 0
 758.3359375 104.6640625 760.002929688 121.99609375 760.002929688 147.99609375 c 2
 760.002929688 271.99609375 l 2
 760.002929688 297.330078125 758.169921875 314.663085938 754.502929688 323.99609375 c 0
 750.8359375 333.329101562 742.3359375 337.99609375 729.002929688 337.99609375 c 0
 715.669921875 337.99609375 707.002929688 333.329101562 703.002929688 323.99609375 c 0
 699.002929688 314.663085938 697.002929688 297.330078125 697.002929688 271.997070312 c 2
 697.002929688 147.997070312 l 2
 697.002929688 123.330078125 698.8359375 106.330078125 702.502929688 96.9970703125 c 0
 706.169921875 87.6640625 715.002929688 82.9970703125 729.002929688 82.9970703125 c 0
 743.002929688 82.9970703125 751.669921875 87.330078125 755.002929688 95.9970703125 c 0
1105.00292969 95.99609375 m 0
 1108.3359375 104.663085938 1110.00292969 121.995117188 1110.00292969 147.995117188 c 2
 1110.00292969 271.995117188 l 2
 1110.00292969 297.329101562 1108.16992188 314.662109375 1104.50292969 323.995117188 c 0
 1100.8359375 333.328125 1092.3359375 337.995117188 1079.00292969 337.995117188 c 0
 1065.66992188 337.995117188 1057.00292969 333.328125 1053.00292969 323.995117188 c 0
 1049.00292969 314.662109375 1047.00292969 297.329101562 1047.00292969 271.99609375 c 2
 1047.00292969 147.99609375 l 2
 1047.00292969 123.329101562 1048.8359375 106.329101562 1052.50292969 96.99609375 c 0
 1056.16992188 87.6630859375 1065.00292969 82.99609375 1079.00292969 82.99609375 c 0
 1093.00292969 82.99609375 1101.66992188 87.3291015625 1105.00292969 95.99609375 c 0
EndSplineSet
EndChar

StartChar: guilsinglleft
Encoding: 8249 8249 226
Width: 298
GlyphClass: 2
Flags: W
LayerCount: 2
Fore
SplineSet
18 264 m 1
 244 491 l 1
 244 360 l 1
 149 264 l 1
 244 168 l 1
 244 37 l 1
 18 264 l 1
EndSplineSet
EndChar

StartChar: guilsinglright
Encoding: 8250 8250 227
Width: 308
GlyphClass: 2
Flags: W
LayerCount: 2
Fore
SplineSet
54 168 m 1
 150 264 l 1
 54 360 l 1
 54 491 l 1
 281 264 l 1
 54 37 l 1
 54 168 l 1
EndSplineSet
EndChar

